  0
SECTION
  2
HEADER
  9
$ACADVER
  1
AC1009
  9
$FILLMODE
 70
0
  9
$EXTMIN
 10
-8.8498
 20
-14.3150
 30
0.0000
  9
$EXTMAX
 10
65.5150
 20
43.8824
 30
0.0000
  0
ENDSEC
  0
SECTION
  2
TABLES
  0
TABLE
  2
LTYPE
 70
1
  0
LTYPE
  2
CONTINUOUS
 70
64
  3
Solid line
 72
65
 73
0
 40
0
  0
ENDTAB
  0
TABLE
  2
LAYER
 70
255
  0
LAYER
  2
20
 70
64
 62
30
  6
CONTINUOUS
  0
LAYER
  2
21
 70
64
 62
253
  6
CONTINUOUS
  0
LAYER
  2
25
 70
64
 62
253
  6
CONTINUOUS
  0
LAYER
  2
48
 70
64
 62
253
  6
CONTINUOUS
  0
LAYER
  2
49
 70
64
 62
253
  6
CONTINUOUS
  0
LAYER
  2
51
 70
64
 62
253
  6
CONTINUOUS
  0
LAYER
  2
117
 70
64
 62
253
  6
CONTINUOUS
  0
LAYER
  2
119
 70
64
 62
253
  6
CONTINUOUS
  0
LAYER
  2
120
 70
64
 62
253
  6
CONTINUOUS
  0
LAYER
  2
127
 70
64
 62
253
  6
CONTINUOUS
  0
LAYER
  2
128
 70
64
 62
253
  6
CONTINUOUS
  0
LAYER
  2
130
 70
64
 62
253
  6
CONTINUOUS
  0
LAYER
  2
133
 70
64
 62
253
  6
CONTINUOUS
  0
LAYER
  2
134
 70
64
 62
253
  6
CONTINUOUS
  0
LAYER
  2
135
 70
64
 62
253
  6
CONTINUOUS
  0
LAYER
  2
136
 70
64
 62
253
  6
CONTINUOUS
  0
LAYER
  2
137
 70
64
 62
253
  6
CONTINUOUS
  0
LAYER
  2
138
 70
64
 62
253
  6
CONTINUOUS
  0
LAYER
  2
139
 70
64
 62
253
  6
CONTINUOUS
  0
LAYER
  2
140
 70
64
 62
253
  6
CONTINUOUS
  0
LAYER
  2
141
 70
64
 62
253
  6
CONTINUOUS
  0
LAYER
  2
142
 70
64
 62
253
  6
CONTINUOUS
  0
LAYER
  2
143
 70
64
 62
253
  6
CONTINUOUS
  0
LAYER
  2
144
 70
64
 62
253
  6
CONTINUOUS
  0
LAYER
  2
145
 70
64
 62
253
  6
CONTINUOUS
  0
LAYER
  2
146
 70
64
 62
253
  6
CONTINUOUS
  0
LAYER
  2
147
 70
64
 62
253
  6
CONTINUOUS
  0
LAYER
  2
148
 70
64
 62
253
  6
CONTINUOUS
  0
LAYER
  2
149
 70
64
 62
253
  6
CONTINUOUS
  0
LAYER
  2
150
 70
64
 62
253
  6
CONTINUOUS
  0
LAYER
  2
152
 70
64
 62
253
  6
CONTINUOUS
  0
LAYER
  2
153
 70
64
 62
253
  6
CONTINUOUS
  0
LAYER
  2
154
 70
64
 62
253
  6
CONTINUOUS
  0
LAYER
  2
155
 70
64
 62
253
  6
CONTINUOUS
  0
LAYER
  2
191
 70
64
 62
253
  6
CONTINUOUS
  0
LAYER
  2
192
 70
64
 62
253
  6
CONTINUOUS
  0
LAYER
  2
193
 70
64
 62
253
  6
CONTINUOUS
  0
LAYER
  2
194
 70
64
 62
253
  6
CONTINUOUS
  0
LAYER
  2
195
 70
64
 62
253
  6
CONTINUOUS
  0
LAYER
  2
196
 70
64
 62
253
  6
CONTINUOUS
  0
LAYER
  2
199
 70
64
 62
253
  6
CONTINUOUS
  0
LAYER
  2
228
 70
64
 62
253
  6
CONTINUOUS
  0
LAYER
  2
229
 70
64
 62
253
  6
CONTINUOUS
  0
LAYER
  2
230
 70
64
 62
253
  6
CONTINUOUS
  0
LAYER
  2
231
 70
64
 62
253
  6
CONTINUOUS
  0
LAYER
  2
232
 70
64
 62
253
  6
CONTINUOUS
  0
LAYER
  2
233
 70
64
 62
253
  6
CONTINUOUS
  0
LAYER
  2
248
 70
64
 62
253
  6
CONTINUOUS
  0
LAYER
  2
249
 70
64
 62
253
  6
CONTINUOUS
  0
LAYER
  2
255
 70
64
 62
253
  6
CONTINUOUS
  0
ENDTAB
  0
ENDSEC
  0
SECTION
  2
BLOCKS
  0
BLOCK
  8
0
  2
RECT
 70
64
 10
0.0000
 20
0.0000
 30
0.0000
  3
RECT
  0
SOLID
  8
0
 10
-0.5000
 20
-0.5000
 30
0.0000
 11
0.5000
 21
-0.5000
 31
0.0000
 12
-0.5000
 22
0.5000
 32
0.0000
 13
0.5000
 23
0.5000
 33
0.0000
  0
ENDBLK
  8
0
  0
BLOCK
  8
0
  2
PIE
 70
64
 10
0.0000
 20
0.0000
 30
0.0000
  3
PIE
  0
CIRCLE
  8
0
 10
0.0000
 20
0.0000
 30
0.0000
 40
0.5000
  0
ENDBLK
  8
0
  0
BLOCK
  8
0
  2
OCTAGONP
 70
64
 10
0.0000
 20
0.0000
 30
0.0000
  3
OCTAGONP
  0
POLYLINE
  8
0
 66
1
 10
0.0000
 20
0.0000
 30
0.0000
 40
0.0000
 41
0.0000
 70
1
  0
VERTEX
  8
0
 10
-0.5000
 20
-0.2071
 30
0.0000
  0
VERTEX
  8
0
 10
-0.5000
 20
0.2071
 30
0.0000
  0
VERTEX
  8
0
 10
-0.2071
 20
0.5000
 30
0.0000
  0
VERTEX
  8
0
 10
0.2071
 20
0.5000
 30
0.0000
  0
VERTEX
  8
0
 10
0.5000
 20
0.2071
 30
0.0000
  0
VERTEX
  8
0
 10
0.5000
 20
-0.2071
 30
0.0000
  0
VERTEX
  8
0
 10
0.2071
 20
-0.5000
 30
0.0000
  0
VERTEX
  8
0
 10
-0.2071
 20
-0.5000
 30
0.0000
  0
SEQEND
  8
0
  0
ENDBLK
  8
0
  0
BLOCK
  8
0
  2
SQUAREP
 70
64
 10
0.0000
 20
0.0000
 30
0.0000
  3
SQUAREP
  0
SOLID
  8
0
 10
-0.5000
 20
-0.5000
 30
0.0000
 11
0.5000
 21
-0.5000
 31
0.0000
 12
-0.5000
 22
0.5000
 32
0.0000
 13
0.5000
 23
0.5000
 33
0.0000
  0
ENDBLK
  8
0
  0
BLOCK
  8
0
  2
ROUNDP
 70
64
 10
0.0000
 20
0.0000
 30
0.0000
  3
ROUNDP
  0
CIRCLE
  8
0
 10
0.0000
 20
0.0000
 30
0.0000
 40
0.5000
  0
ENDBLK
  8
0
  0
BLOCK
  8
0
  2
ANNULUSP
 70
64
 10
0.0000
 20
0.0000
 30
0.0000
  3
ANNULUSP
  0
CIRCLE
  8
0
 10
0.0000
 20
0.0000
 30
0.0000
 40
0.5000
  0
ENDBLK
  8
0
  0
BLOCK
  8
0
  2
THERMALP
 70
64
 10
0.0000
 20
0.0000
 30
0.0000
  3
THERMALP
  0
LINE
  8
0
 10
-0.2379
 20
0.4500
 30
0.0000
 11
0.2379
 21
0.4500
 31
0.0000
  0
LINE
  8
0
 10
0.4500
 20
0.2379
 30
0.0000
 11
0.4500
 21
-0.2379
 31
0.0000
  0
LINE
  8
0
 10
0.2379
 20
-0.4500
 30
0.0000
 11
-0.2379
 21
-0.4500
 31
0.0000
  0
LINE
  8
0
 10
-0.4500
 20
-0.2379
 30
0.0000
 11
-0.4500
 21
0.2379
 31
0.0000
  0
ENDBLK
  8
0
  0
BLOCK
  8
0
  2
OCTAGONV
 70
64
 10
0.0000
 20
0.0000
 30
0.0000
  3
OCTAGONV
  0
POLYLINE
  8
0
 66
1
 10
0.0000
 20
0.0000
 30
0.0000
 40
0.0000
 41
0.0000
 70
1
  0
VERTEX
  8
0
 10
-0.5000
 20
-0.2071
 30
0.0000
  0
VERTEX
  8
0
 10
-0.5000
 20
0.2071
 30
0.0000
  0
VERTEX
  8
0
 10
-0.2071
 20
0.5000
 30
0.0000
  0
VERTEX
  8
0
 10
0.2071
 20
0.5000
 30
0.0000
  0
VERTEX
  8
0
 10
0.5000
 20
0.2071
 30
0.0000
  0
VERTEX
  8
0
 10
0.5000
 20
-0.2071
 30
0.0000
  0
VERTEX
  8
0
 10
0.2071
 20
-0.5000
 30
0.0000
  0
VERTEX
  8
0
 10
-0.2071
 20
-0.5000
 30
0.0000
  0
SEQEND
  8
0
  0
ENDBLK
  8
0
  0
BLOCK
  8
0
  2
SQUAREV
 70
64
 10
0.0000
 20
0.0000
 30
0.0000
  3
SQUAREV
  0
SOLID
  8
0
 10
-0.5000
 20
-0.5000
 30
0.0000
 11
0.5000
 21
-0.5000
 31
0.0000
 12
-0.5000
 22
0.5000
 32
0.0000
 13
0.5000
 23
0.5000
 33
0.0000
  0
ENDBLK
  8
0
  0
BLOCK
  8
0
  2
ROUNDV
 70
64
 10
0.0000
 20
0.0000
 30
0.0000
  3
ROUNDV
  0
CIRCLE
  8
0
 10
0.0000
 20
0.0000
 30
0.0000
 40
0.5000
  0
ENDBLK
  8
0
  0
BLOCK
  8
0
  2
ANNULUSV
 70
64
 10
0.0000
 20
0.0000
 30
0.0000
  3
ANNULUSV
  0
CIRCLE
  8
0
 10
0.0000
 20
0.0000
 30
0.0000
 40
0.5000
  0
ENDBLK
  8
0
  0
BLOCK
  8
0
  2
THERMALV
 70
64
 10
0.0000
 20
0.0000
 30
0.0000
  3
THERMALV
  0
LINE
  8
0
 10
-0.2379
 20
0.4500
 30
0.0000
 11
0.2379
 21
0.4500
 31
0.0000
  0
LINE
  8
0
 10
0.4500
 20
0.2379
 30
0.0000
 11
0.4500
 21
-0.2379
 31
0.0000
  0
LINE
  8
0
 10
0.2379
 20
-0.4500
 30
0.0000
 11
-0.2379
 21
-0.4500
 31
0.0000
  0
LINE
  8
0
 10
-0.4500
 20
-0.2379
 30
0.0000
 11
-0.4500
 21
0.2379
 31
0.0000
  0
ENDBLK
  8
0
  0
ENDSEC
  0
SECTION
  2
ENTITIES
  0
LINE
  8
20
 10
0.0000
 20
0.0000
 30
0.0000
 11
56.0000
 21
0.0000
 31
0.0000
  0
LINE
  8
20
 10
0.0000
 20
13.6500
 30
0.0000
 11
0.0000
 21
0.0000
 31
0.0000
  0
LINE
  8
20
 10
0.0000
 20
13.6500
 30
0.0000
 11
56.0000
 21
13.6500
 31
0.0000
  0
LINE
  8
20
 10
56.0000
 20
13.6500
 30
0.0000
 11
56.0000
 21
0.0000
 31
0.0000
  0
LINE
  8
48
 10
28.4925
 20
38.3262
 30
0.0000
 11
28.9440
 21
38.3262
 31
0.0000
  0
ARC
  8
48
 10
28.9440
 20
38.7778
 30
0.0000
 40
0.4516
 50
270.0000
 51
90.0000
  0
LINE
  8
48
 10
28.4925
 20
39.9518
 30
0.0000
 11
29.0343
 21
39.9518
 31
0.0000
  0
ARC
  8
48
 10
29.0343
 20
39.5906
 30
0.0000
 40
0.3612
 50
270.0000
 51
90.0000
  0
LINE
  8
48
 10
29.0343
 20
39.2293
 30
0.0000
 11
28.6731
 21
39.2293
 31
0.0000
  0
LINE
  8
48
 10
30.0556
 20
38.3262
 30
0.0000
 11
30.5974
 21
38.3262
 31
0.0000
  0
ARC
  8
48
 10
30.5974
 20
38.6874
 30
0.0000
 40
0.3612
 50
270.0000
 51
0.0000
  0
LINE
  8
48
 10
30.9587
 20
38.6874
 30
0.0000
 11
30.9587
 21
38.8681
 31
0.0000
  0
ARC
  8
48
 10
30.5974
 20
38.8681
 30
0.0000
 40
0.3612
 50
0.0000
 51
90.0000
  0
LINE
  8
48
 10
30.5974
 20
39.2293
 30
0.0000
 11
30.0556
 21
39.2293
 31
0.0000
  0
LINE
  8
48
 10
30.0556
 20
39.2293
 30
0.0000
 11
30.0556
 21
39.9518
 31
0.0000
  0
LINE
  8
48
 10
30.0556
 20
39.9518
 30
0.0000
 11
30.9587
 21
39.9518
 31
0.0000
  0
LINE
  8
48
 10
31.7081
 20
37.7843
 30
0.0000
 11
31.7081
 21
39.4099
 31
0.0000
  0
LINE
  8
48
 10
32.4306
 20
39.4099
 30
0.0000
 11
32.4306
 21
38.6874
 31
0.0000
  0
ARC
  8
48
 10
32.0694
 20
38.6874
 30
0.0000
 40
0.3612
 50
180.0000
 51
0.0000
  0
LINE
  8
48
 10
32.4306
 20
38.6874
 30
0.0000
 11
32.4306
 21
38.5068
 31
0.0000
  0
ARC
  8
48
 10
32.6112
 20
38.5068
 30
0.0000
 40
0.1806
 50
180.0000
 51
270.0000
  0
LINE
  8
48
 10
33.1957
 20
38.3262
 30
0.0000
 11
33.1957
 21
39.4099
 31
0.0000
  0
LINE
  8
48
 10
33.1957
 20
39.4099
 30
0.0000
 11
34.0085
 21
39.4099
 31
0.0000
  0
ARC
  8
48
 10
34.0085
 20
39.1390
 30
0.0000
 40
0.2709
 50
0.0000
 51
90.0000
  0
LINE
  8
48
 10
34.2794
 20
39.1390
 30
0.0000
 11
34.2794
 21
38.3262
 31
0.0000
  0
LINE
  8
48
 10
33.7376
 20
38.3262
 30
0.0000
 11
33.7376
 21
39.4099
 31
0.0000
  0
ARC
  8
48
 10
51.8492
 20
39.3867
 30
0.0000
 40
0.4064
 50
0.0000
 51
90.0000
  0
ARC
  8
48
 10
51.8492
 20
39.2709
 30
0.0000
 40
0.5221
 50
90.0001
 51
162.0549
  0
ARC
  8
48
 10
51.8190
 20
39.3867
 30
0.0000
 40
0.4365
 50
313.6036
 51
359.9997
  0
LINE
  8
48
 10
52.1201
 20
39.0706
 30
0.0000
 11
51.3525
 21
38.1675
 31
0.0000
  0
LINE
  8
48
 10
51.3525
 20
38.1675
 30
0.0000
 11
52.2556
 21
38.1675
 31
0.0000
  0
LINE
  8
48
 10
35.4775
 20
42.6068
 30
0.0000
 11
35.9290
 21
42.9681
 31
0.0000
  0
LINE
  8
48
 10
35.9290
 20
42.9681
 30
0.0000
 11
35.9290
 21
41.3424
 31
0.0000
  0
LINE
  8
48
 10
35.4775
 20
41.3424
 30
0.0000
 11
36.3806
 21
41.3424
 31
0.0000
  0
LINE
  8
48
 10
37.0406
 20
42.6068
 30
0.0000
 11
37.4921
 21
42.9681
 31
0.0000
  0
LINE
  8
48
 10
37.4921
 20
42.9681
 30
0.0000
 11
37.4921
 21
41.3424
 31
0.0000
  0
LINE
  8
48
 10
37.0406
 20
41.3424
 30
0.0000
 11
37.9437
 21
41.3424
 31
0.0000
  0
ARC
  8
48
 10
39.1004
 20
42.5617
 30
0.0000
 40
0.4064
 50
0.0000
 51
90.0000
  0
ARC
  8
48
 10
39.1004
 20
42.4459
 30
0.0000
 40
0.5221
 50
90.0001
 51
162.0549
  0
ARC
  8
48
 10
39.0703
 20
42.5617
 30
0.0000
 40
0.4365
 50
313.6036
 51
359.9997
  0
LINE
  8
48
 10
39.3713
 20
42.2456
 30
0.0000
 11
38.6037
 21
41.3424
 31
0.0000
  0
LINE
  8
48
 10
38.6037
 20
41.3424
 30
0.0000
 11
39.5068
 21
41.3424
 31
0.0000
  0
LINE
  8
48
 10
40.1807
 20
41.9746
 30
0.0000
 11
41.2644
 21
41.9746
 31
0.0000
  0
ARC
  8
48
 10
42.4351
 20
42.5617
 30
0.0000
 40
0.4064
 50
0.0000
 51
90.0000
  0
ARC
  8
48
 10
42.4351
 20
42.4459
 30
0.0000
 40
0.5221
 50
90.0001
 51
162.0549
  0
ARC
  8
48
 10
42.4049
 20
42.5617
 30
0.0000
 40
0.4365
 50
313.6036
 51
359.9997
  0
LINE
  8
48
 10
42.7060
 20
42.2456
 30
0.0000
 11
41.9384
 21
41.3424
 31
0.0000
  0
LINE
  8
48
 10
41.9384
 20
41.3424
 30
0.0000
 11
42.8415
 21
41.3424
 31
0.0000
  0
LINE
  8
48
 10
43.5154
 20
41.9746
 30
0.0000
 11
44.5991
 21
41.9746
 31
0.0000
  0
ARC
  8
48
 10
46.6126
 20
42.1553
 30
0.0000
 40
1.3396
 50
154.0109
 51
180.0001
  0
ARC
  8
48
 10
45.7246
 20
42.6339
 30
0.0000
 40
0.3342
 50
90.0001
 51
161.0756
  0
ARC
  8
48
 10
45.7246
 20
42.6339
 30
0.0000
 40
0.3342
 50
18.9248
 51
90.0000
  0
ARC
  8
48
 10
44.8365
 20
42.1553
 30
0.0000
 40
1.3396
 50
360.0000
 51
25.9891
  0
ARC
  8
48
 10
46.6126
 20
42.1553
 30
0.0000
 40
1.3396
 50
180.0000
 51
205.9889
  0
ARC
  8
48
 10
45.7246
 20
41.6766
 30
0.0000
 40
0.3342
 50
198.9250
 51
270.0000
  0
ARC
  8
48
 10
44.8365
 20
42.1553
 30
0.0000
 40
1.3396
 50
334.0111
 51
360.0000
  0
ARC
  8
48
 10
45.7246
 20
41.6766
 30
0.0000
 40
0.3342
 50
269.9999
 51
341.0745
  0
LINE
  8
48
 10
45.3633
 20
41.7037
 30
0.0000
 11
46.0858
 21
42.6068
 31
0.0000
  0
LINE
  8
48
 10
46.8361
 20
42.6068
 30
0.0000
 11
47.2877
 21
42.9681
 31
0.0000
  0
LINE
  8
48
 10
47.2877
 20
42.9681
 30
0.0000
 11
47.2877
 21
41.3424
 31
0.0000
  0
LINE
  8
48
 10
46.8361
 20
41.3424
 30
0.0000
 11
47.7392
 21
41.3424
 31
0.0000
  0
LINE
  8
48
 10
48.4132
 20
41.9746
 30
0.0000
 11
49.4969
 21
41.9746
 31
0.0000
  0
ARC
  8
48
 10
51.5104
 20
42.1553
 30
0.0000
 40
1.3396
 50
154.0109
 51
180.0001
  0
ARC
  8
48
 10
50.6223
 20
42.6339
 30
0.0000
 40
0.3342
 50
90.0001
 51
161.0756
  0
ARC
  8
48
 10
50.6223
 20
42.6339
 30
0.0000
 40
0.3342
 50
18.9248
 51
90.0000
  0
ARC
  8
48
 10
49.7343
 20
42.1553
 30
0.0000
 40
1.3396
 50
360.0000
 51
25.9891
  0
ARC
  8
48
 10
51.5104
 20
42.1553
 30
0.0000
 40
1.3396
 50
180.0000
 51
205.9889
  0
ARC
  8
48
 10
50.6223
 20
41.6766
 30
0.0000
 40
0.3342
 50
198.9250
 51
270.0000
  0
ARC
  8
48
 10
49.7343
 20
42.1553
 30
0.0000
 40
1.3396
 50
334.0111
 51
360.0000
  0
ARC
  8
48
 10
50.6223
 20
41.6766
 30
0.0000
 40
0.3342
 50
269.9999
 51
341.0745
  0
LINE
  8
48
 10
50.2611
 20
41.7037
 30
0.0000
 11
50.9836
 21
42.6068
 31
0.0000
  0
ARC
  8
48
 10
52.2306
 20
42.5617
 30
0.0000
 40
0.4064
 50
0.0000
 51
90.0000
  0
ARC
  8
48
 10
52.2306
 20
42.4459
 30
0.0000
 40
0.5221
 50
90.0001
 51
162.0549
  0
ARC
  8
48
 10
52.2005
 20
42.5617
 30
0.0000
 40
0.4365
 50
313.6036
 51
359.9997
  0
LINE
  8
48
 10
52.5016
 20
42.2456
 30
0.0000
 11
51.7339
 21
41.3424
 31
0.0000
  0
LINE
  8
48
 10
51.7339
 20
41.3424
 30
0.0000
 11
52.6370
 21
41.3424
 31
0.0000
  0
ARC
  8
48
 10
46.2929
 20
33.0367
 30
0.0000
 40
0.4064
 50
0.0000
 51
90.0000
  0
ARC
  8
48
 10
46.2929
 20
32.9209
 30
0.0000
 40
0.5221
 50
90.0001
 51
162.0549
  0
ARC
  8
48
 10
46.2628
 20
33.0367
 30
0.0000
 40
0.4365
 50
313.6036
 51
359.9997
  0
LINE
  8
48
 10
46.5638
 20
32.7206
 30
0.0000
 11
45.7962
 21
31.8175
 31
0.0000
  0
LINE
  8
48
 10
45.7962
 20
31.8175
 30
0.0000
 11
46.6993
 21
31.8175
 31
0.0000
  0
ARC
  8
48
 10
2.0680
 20
41.7072
 30
0.0000
 40
0.3330
 50
270.0005
 51
360.0000
  0
ARC
  8
48
 10
2.0680
 20
42.0777
 30
0.0000
 40
0.7035
 50
224.7598
 51
270.0006
  0
ARC
  8
48
 10
1.9431
 20
42.5398
 30
0.0000
 40
0.3330
 50
90.0000
 51
180.0000
  0
ARC
  8
48
 10
1.9431
 20
42.2484
 30
0.0000
 40
0.6244
 50
53.1299
 51
89.9999
  0
ARC
  8
48
 10
1.9483
 20
42.5398
 30
0.0000
 40
0.3382
 50
179.9999
 51
239.4904
  0
ARC
  8
48
 10
2.0628
 20
41.7072
 30
0.0000
 40
0.3382
 50
0.0001
 51
59.4892
  0
LINE
  8
48
 10
2.2345
 20
41.9986
 30
0.0000
 11
1.7766
 21
42.2484
 31
0.0000
  0
LINE
  8
48
 10
3.0064
 20
42.3733
 30
0.0000
 11
3.3394
 21
41.3742
 31
0.0000
  0
LINE
  8
48
 10
3.3394
 20
41.3742
 30
0.0000
 11
3.6725
 21
42.3733
 31
0.0000
  0
LINE
  8
48
 10
4.9751
 20
41.3742
 30
0.0000
 11
4.5588
 21
41.3742
 31
0.0000
  0
ARC
  8
48
 10
4.5588
 20
41.6240
 30
0.0000
 40
0.2498
 50
180.0000
 51
270.0000
  0
LINE
  8
48
 10
4.3090
 20
41.6240
 30
0.0000
 11
4.3090
 21
42.0402
 31
0.0000
  0
ARC
  8
48
 10
4.6420
 20
42.0402
 30
0.0000
 40
0.3330
 50
0.0000
 51
180.0000
  0
LINE
  8
48
 10
4.9751
 20
42.0402
 30
0.0000
 11
4.9751
 21
41.8737
 31
0.0000
  0
LINE
  8
48
 10
4.9751
 20
41.8737
 30
0.0000
 11
4.3090
 21
41.8737
 31
0.0000
  0
LINE
  8
48
 10
5.7158
 20
41.3742
 30
0.0000
 11
5.7158
 21
42.3733
 31
0.0000
  0
LINE
  8
48
 10
5.7158
 20
42.3733
 30
0.0000
 11
6.1321
 21
42.3733
 31
0.0000
  0
ARC
  8
48
 10
6.1321
 20
42.1235
 30
0.0000
 40
0.2498
 50
0.0014
 51
90.0000
  0
LINE
  8
48
 10
6.3819
 20
42.1235
 30
0.0000
 11
6.3819
 21
41.3742
 31
0.0000
  0
LINE
  8
48
 10
8.0612
 20
41.3742
 30
0.0000
 11
8.0612
 21
42.8728
 31
0.0000
  0
LINE
  8
48
 10
8.0612
 20
42.8728
 30
0.0000
 11
8.4774
 21
42.8728
 31
0.0000
  0
ARC
  8
48
 10
8.4774
 20
42.4565
 30
0.0000
 40
0.4163
 50
270.0000
 51
90.0000
  0
LINE
  8
48
 10
8.4774
 20
42.0402
 30
0.0000
 11
8.0612
 21
42.0402
 31
0.0000
  0
LINE
  8
48
 10
10.1855
 20
41.3742
 30
0.0000
 11
9.7692
 21
41.3742
 31
0.0000
  0
ARC
  8
48
 10
9.7692
 20
41.6240
 30
0.0000
 40
0.2498
 50
180.0000
 51
270.0000
  0
LINE
  8
48
 10
9.5194
 20
41.6240
 30
0.0000
 11
9.5194
 21
42.0402
 31
0.0000
  0
ARC
  8
48
 10
9.8524
 20
42.0402
 30
0.0000
 40
0.3330
 50
0.0000
 51
180.0000
  0
LINE
  8
48
 10
10.1855
 20
42.0402
 30
0.0000
 11
10.1855
 21
41.8737
 31
0.0000
  0
LINE
  8
48
 10
10.1855
 20
41.8737
 30
0.0000
 11
9.5194
 21
41.8737
 31
0.0000
  0
LINE
  8
48
 10
10.7314
 20
42.3733
 30
0.0000
 11
11.2310
 21
42.3733
 31
0.0000
  0
LINE
  8
48
 10
10.8979
 20
42.8728
 30
0.0000
 11
10.8979
 21
41.6240
 31
0.0000
  0
ARC
  8
48
 10
11.1477
 20
41.6240
 30
0.0000
 40
0.2498
 50
180.0000
 51
270.0000
  0
LINE
  8
48
 10
11.1477
 20
41.3742
 30
0.0000
 11
11.2310
 21
41.3742
 31
0.0000
  0
LINE
  8
48
 10
12.5301
 20
41.3742
 30
0.0000
 11
12.1139
 21
41.3742
 31
0.0000
  0
ARC
  8
48
 10
12.1139
 20
41.6240
 30
0.0000
 40
0.2498
 50
180.0000
 51
270.0000
  0
LINE
  8
48
 10
11.8641
 20
41.6240
 30
0.0000
 11
11.8641
 21
42.0402
 31
0.0000
  0
ARC
  8
48
 10
12.1971
 20
42.0402
 30
0.0000
 40
0.3330
 50
0.0000
 51
180.0000
  0
LINE
  8
48
 10
12.5301
 20
42.0402
 30
0.0000
 11
12.5301
 21
41.8737
 31
0.0000
  0
LINE
  8
48
 10
12.5301
 20
41.8737
 30
0.0000
 11
11.8641
 21
41.8737
 31
0.0000
  0
LINE
  8
48
 10
13.2837
 20
41.3742
 30
0.0000
 11
13.2837
 21
42.3733
 31
0.0000
  0
LINE
  8
48
 10
13.2837
 20
42.3733
 30
0.0000
 11
13.7832
 21
42.3733
 31
0.0000
  0
LINE
  8
48
 10
13.7832
 20
42.3733
 30
0.0000
 11
13.7832
 21
42.2068
 31
0.0000
  0
LINE
  8
48
 10
14.8542
 20
41.7905
 30
0.0000
 11
14.4379
 21
41.9570
 31
0.0000
  0
ARC
  8
48
 10
14.5180
 20
42.1574
 30
0.0000
 40
0.2159
 50
89.1813
 51
248.1985
  0
ARC
  8
48
 10
14.5076
 20
41.4279
 30
0.0000
 40
0.9455
 50
65.7608
 51
89.1813
  0
ARC
  8
48
 10
14.7740
 20
41.5900
 30
0.0000
 40
0.2159
 50
269.1813
 51
68.1985
  0
ARC
  8
48
 10
14.7911
 20
42.7861
 30
0.0000
 40
1.4120
 50
250.2096
 51
269.1813
  0
LINE
  8
48
 10
16.3337
 20
41.3742
 30
0.0000
 11
15.9175
 21
41.3742
 31
0.0000
  0
ARC
  8
48
 10
15.9175
 20
41.6240
 30
0.0000
 40
0.2498
 50
180.0000
 51
270.0000
  0
LINE
  8
48
 10
15.6677
 20
41.6240
 30
0.0000
 11
15.6677
 21
42.0402
 31
0.0000
  0
ARC
  8
48
 10
16.0007
 20
42.0402
 30
0.0000
 40
0.3330
 50
0.0000
 51
180.0000
  0
LINE
  8
48
 10
16.3337
 20
42.0402
 30
0.0000
 11
16.3337
 21
41.8737
 31
0.0000
  0
LINE
  8
48
 10
16.3337
 20
41.8737
 30
0.0000
 11
15.6677
 21
41.8737
 31
0.0000
  0
LINE
  8
48
 10
17.0745
 20
41.3742
 30
0.0000
 11
17.0745
 21
42.3733
 31
0.0000
  0
LINE
  8
48
 10
17.0745
 20
42.3733
 30
0.0000
 11
17.4908
 21
42.3733
 31
0.0000
  0
ARC
  8
48
 10
17.4908
 20
42.1235
 30
0.0000
 40
0.2498
 50
0.0014
 51
90.0000
  0
LINE
  8
48
 10
17.7406
 20
42.1235
 30
0.0000
 11
17.7406
 21
41.3742
 31
0.0000
  0
ARC
  8
48
 10
2.0264
 20
39.8312
 30
0.0000
 40
0.3747
 50
0.0000
 51
90.0000
  0
ARC
  8
48
 10
2.0264
 20
39.7245
 30
0.0000
 40
0.4813
 50
90.0001
 51
162.0554
  0
ARC
  8
48
 10
1.9986
 20
39.8312
 30
0.0000
 40
0.4024
 50
313.6040
 51
359.9998
  0
LINE
  8
48
 10
2.2761
 20
39.5398
 30
0.0000
 11
1.5685
 21
38.7072
 31
0.0000
  0
LINE
  8
48
 10
1.5685
 20
38.7072
 30
0.0000
 11
2.4010
 21
38.7072
 31
0.0000
  0
ARC
  8
48
 10
4.3665
 20
39.4565
 30
0.0000
 40
1.2350
 50
154.0110
 51
180.0001
  0
ARC
  8
48
 10
3.5478
 20
39.8978
 30
0.0000
 40
0.3080
 50
90.0000
 51
161.0754
  0
ARC
  8
48
 10
3.5478
 20
39.8978
 30
0.0000
 40
0.3080
 50
18.9245
 51
90.0001
  0
ARC
  8
48
 10
2.7292
 20
39.4565
 30
0.0000
 40
1.2350
 50
359.9999
 51
25.9890
  0
ARC
  8
48
 10
4.3666
 20
39.4565
 30
0.0000
 40
1.2350
 50
180.0000
 51
205.9888
  0
ARC
  8
48
 10
3.5478
 20
39.0152
 30
0.0000
 40
0.3080
 50
198.9247
 51
270.0001
  0
ARC
  8
48
 10
2.7291
 20
39.4565
 30
0.0000
 40
1.2350
 50
334.0112
 51
0.0000
  0
ARC
  8
48
 10
3.5478
 20
39.0152
 30
0.0000
 40
0.3080
 50
270.0000
 51
341.0751
  0
LINE
  8
48
 10
3.2148
 20
39.0402
 30
0.0000
 11
3.8809
 21
39.8728
 31
0.0000
  0
LINE
  8
48
 10
4.6947
 20
39.8728
 30
0.0000
 11
5.1110
 21
40.2058
 31
0.0000
  0
LINE
  8
48
 10
5.1110
 20
40.2058
 30
0.0000
 11
5.1110
 21
38.7072
 31
0.0000
  0
LINE
  8
48
 10
4.6947
 20
38.7072
 30
0.0000
 11
5.5272
 21
38.7072
 31
0.0000
  0
LINE
  8
48
 10
7.0904
 20
39.3732
 30
0.0000
 11
6.5908
 21
39.3732
 31
0.0000
  0
ARC
  8
48
 10
6.5908
 20
39.7063
 30
0.0000
 40
0.3330
 50
180.0000
 51
270.0000
  0
LINE
  8
48
 10
6.2578
 20
39.7063
 30
0.0000
 11
6.2578
 21
39.7895
 31
0.0000
  0
ARC
  8
48
 10
6.6741
 20
39.7895
 30
0.0000
 40
0.4163
 50
0.0000
 51
180.0000
  0
LINE
  8
48
 10
7.0904
 20
39.7895
 30
0.0000
 11
7.0904
 21
39.3732
 31
0.0000
  0
ARC
  8
48
 10
6.4243
 20
39.3732
 30
0.0000
 40
0.6660
 50
270.0000
 51
0.0000
  0
LINE
  8
21
 10
37.0134
 20
11.1105
 30
0.0000
 11
37.0134
 21
12.6090
 31
0.0000
  0
LINE
  8
21
 10
37.0134
 20
12.6090
 30
0.0000
 11
37.4297
 21
12.6090
 31
0.0000
  0
ARC
  8
21
 10
37.4297
 20
12.1928
 30
0.0000
 40
0.4163
 50
270.0000
 51
90.0000
  0
LINE
  8
21
 10
37.4297
 20
11.7765
 30
0.0000
 11
37.0134
 21
11.7765
 31
0.0000
  0
LINE
  8
21
 10
38.4400
 20
11.1105
 30
0.0000
 11
38.4400
 21
12.1095
 31
0.0000
  0
LINE
  8
21
 10
38.3984
 20
12.5258
 30
0.0000
 11
38.3984
 21
12.6090
 31
0.0000
  0
LINE
  8
21
 10
38.3984
 20
12.6090
 30
0.0000
 11
38.4816
 21
12.6090
 31
0.0000
  0
LINE
  8
21
 10
38.4816
 20
12.6090
 30
0.0000
 11
38.4816
 21
12.5258
 31
0.0000
  0
LINE
  8
21
 10
38.4816
 20
12.5258
 30
0.0000
 11
38.3984
 21
12.5258
 31
0.0000
  0
LINE
  8
21
 10
39.1179
 20
12.2760
 30
0.0000
 11
39.5342
 21
12.6090
 31
0.0000
  0
LINE
  8
21
 10
39.5342
 20
12.6090
 30
0.0000
 11
39.5342
 21
11.1105
 31
0.0000
  0
LINE
  8
21
 10
39.1179
 20
11.1105
 30
0.0000
 11
39.9505
 21
11.1105
 31
0.0000
  0
LINE
  8
21
 10
40.6810
 20
11.1105
 30
0.0000
 11
41.1806
 21
11.1105
 31
0.0000
  0
ARC
  8
21
 10
41.1806
 20
11.4435
 30
0.0000
 40
0.3330
 50
270.0000
 51
0.0005
  0
LINE
  8
21
 10
41.5136
 20
11.4435
 30
0.0000
 11
41.5136
 21
11.6100
 31
0.0000
  0
ARC
  8
21
 10
41.1806
 20
11.6100
 30
0.0000
 40
0.3330
 50
0.0000
 51
90.0000
  0
LINE
  8
21
 10
41.1806
 20
11.9430
 30
0.0000
 11
40.6810
 21
11.9430
 31
0.0000
  0
LINE
  8
21
 10
40.6810
 20
11.9430
 30
0.0000
 11
40.6810
 21
12.6090
 31
0.0000
  0
LINE
  8
21
 10
40.6810
 20
12.6090
 30
0.0000
 11
41.5136
 21
12.6090
 31
0.0000
  0
LINE
  8
21
 10
42.5772
 20
12.6090
 30
0.0000
 11
42.2442
 21
11.4435
 31
0.0000
  0
LINE
  8
21
 10
42.2442
 20
11.4435
 30
0.0000
 11
43.0767
 21
11.4435
 31
0.0000
  0
LINE
  8
21
 10
42.8269
 20
11.7765
 30
0.0000
 11
42.8269
 21
11.1105
 31
0.0000
  0
LINE
  8
21
 10
43.8073
 20
12.2760
 30
0.0000
 11
44.2236
 21
12.6090
 31
0.0000
  0
LINE
  8
21
 10
44.2236
 20
12.6090
 30
0.0000
 11
44.2236
 21
11.1105
 31
0.0000
  0
LINE
  8
21
 10
43.8073
 20
11.1105
 30
0.0000
 11
44.6398
 21
11.1105
 31
0.0000
  0
LINE
  8
21
 10
45.3914
 20
11.6932
 30
0.0000
 11
46.3904
 21
11.6932
 31
0.0000
  0
ARC
  8
21
 10
47.5894
 20
11.4435
 30
0.0000
 40
0.3330
 50
270.0005
 51
360.0000
  0
ARC
  8
21
 10
47.5894
 20
11.8139
 30
0.0000
 40
0.7035
 50
224.7598
 51
270.0006
  0
ARC
  8
21
 10
47.4645
 20
12.2760
 30
0.0000
 40
0.3330
 50
90.0000
 51
180.0000
  0
ARC
  8
21
 10
47.4645
 20
11.9846
 30
0.0000
 40
0.6244
 50
53.1299
 51
89.9999
  0
ARC
  8
21
 10
47.4697
 20
12.2760
 30
0.0000
 40
0.3382
 50
179.9999
 51
239.4904
  0
ARC
  8
21
 10
47.5842
 20
11.4435
 30
0.0000
 40
0.3382
 50
0.0001
 51
59.4892
  0
LINE
  8
21
 10
47.7559
 20
11.7349
 30
0.0000
 11
47.2980
 21
11.9846
 31
0.0000
  0
LINE
  8
21
 10
48.5697
 20
12.1095
 30
0.0000
 11
48.8195
 21
11.1105
 31
0.0000
  0
LINE
  8
21
 10
48.8195
 20
11.1105
 30
0.0000
 11
49.0692
 21
11.7765
 31
0.0000
  0
LINE
  8
21
 10
49.0692
 20
11.7765
 30
0.0000
 11
49.3190
 21
11.1105
 31
0.0000
  0
LINE
  8
21
 10
49.3190
 20
11.1105
 30
0.0000
 11
49.5688
 21
12.1095
 31
0.0000
  0
LINE
  8
21
 10
50.2155
 20
11.1105
 30
0.0000
 11
50.2155
 21
12.1095
 31
0.0000
  0
LINE
  8
21
 10
50.1739
 20
12.5258
 30
0.0000
 11
50.1739
 21
12.6090
 31
0.0000
  0
LINE
  8
21
 10
50.1739
 20
12.6090
 30
0.0000
 11
50.2571
 21
12.6090
 31
0.0000
  0
LINE
  8
21
 10
50.2571
 20
12.6090
 30
0.0000
 11
50.2571
 21
12.5258
 31
0.0000
  0
LINE
  8
21
 10
50.2571
 20
12.5258
 30
0.0000
 11
50.1739
 21
12.5258
 31
0.0000
  0
LINE
  8
21
 10
50.7298
 20
12.1095
 30
0.0000
 11
51.2293
 21
12.1095
 31
0.0000
  0
LINE
  8
21
 10
50.8963
 20
12.6090
 30
0.0000
 11
50.8963
 21
11.3602
 31
0.0000
  0
ARC
  8
21
 10
51.1461
 20
11.3602
 30
0.0000
 40
0.2498
 50
180.0000
 51
270.0000
  0
LINE
  8
21
 10
51.1461
 20
11.1105
 30
0.0000
 11
51.2293
 21
11.1105
 31
0.0000
  0
LINE
  8
21
 10
52.4479
 20
11.1105
 30
0.0000
 11
52.1149
 21
11.1105
 31
0.0000
  0
ARC
  8
21
 10
52.1149
 20
11.3602
 30
0.0000
 40
0.2498
 50
180.0000
 51
270.0000
  0
LINE
  8
21
 10
51.8651
 20
11.3602
 30
0.0000
 11
51.8651
 21
11.8598
 31
0.0000
  0
ARC
  8
21
 10
52.1149
 20
11.8598
 30
0.0000
 40
0.2498
 50
89.9993
 51
180.0000
  0
LINE
  8
21
 10
52.1149
 20
12.1095
 30
0.0000
 11
52.4479
 21
12.1095
 31
0.0000
  0
LINE
  8
21
 10
53.1130
 20
11.1105
 30
0.0000
 11
53.1130
 21
12.6090
 31
0.0000
  0
LINE
  8
21
 10
53.1130
 20
12.1095
 30
0.0000
 11
53.5292
 21
12.1095
 31
0.0000
  0
ARC
  8
21
 10
53.5292
 20
11.8597
 30
0.0000
 40
0.2498
 50
0.0014
 51
90.0000
  0
LINE
  8
21
 10
53.7790
 20
11.8598
 30
0.0000
 11
53.7790
 21
11.1105
 31
0.0000
  0
LINE
  8
21
 10
37.0134
 20
8.4435
 30
0.0000
 11
37.0134
 21
9.9421
 31
0.0000
  0
LINE
  8
21
 10
37.0134
 20
9.9421
 30
0.0000
 11
37.4297
 21
9.9421
 31
0.0000
  0
ARC
  8
21
 10
37.4297
 20
9.5258
 30
0.0000
 40
0.4163
 50
270.0000
 51
90.0000
  0
LINE
  8
21
 10
37.4297
 20
9.1095
 30
0.0000
 11
37.0134
 21
9.1095
 31
0.0000
  0
LINE
  8
21
 10
37.8460
 20
8.4435
 30
0.0000
 11
37.5130
 21
9.1095
 31
0.0000
  0
LINE
  8
21
 10
39.2079
 20
8.4435
 30
0.0000
 11
38.7916
 21
8.4435
 31
0.0000
  0
ARC
  8
21
 10
38.7916
 20
8.6932
 30
0.0000
 40
0.2498
 50
180.0000
 51
270.0000
  0
LINE
  8
21
 10
38.5418
 20
8.6932
 30
0.0000
 11
38.5418
 21
9.1095
 31
0.0000
  0
ARC
  8
21
 10
38.8748
 20
9.1095
 30
0.0000
 40
0.3330
 50
0.0000
 51
180.0000
  0
LINE
  8
21
 10
39.2079
 20
9.1095
 30
0.0000
 11
39.2079
 21
8.9430
 31
0.0000
  0
LINE
  8
21
 10
39.2079
 20
8.9430
 30
0.0000
 11
38.5418
 21
8.9430
 31
0.0000
  0
LINE
  8
21
 10
39.8444
 20
9.4425
 30
0.0000
 11
40.1774
 21
8.4435
 31
0.0000
  0
LINE
  8
21
 10
40.1774
 20
8.4435
 30
0.0000
 11
40.5105
 21
9.4425
 31
0.0000
  0
LINE
  8
21
 10
41.0737
 20
8.4435
 30
0.0000
 11
41.0737
 21
8.5267
 31
0.0000
  0
LINE
  8
21
 10
41.0737
 20
8.5267
 30
0.0000
 11
41.1569
 21
8.5267
 31
0.0000
  0
LINE
  8
21
 10
41.1569
 20
8.5267
 30
0.0000
 11
41.1569
 21
8.4435
 31
0.0000
  0
LINE
  8
21
 10
41.1569
 20
8.4435
 30
0.0000
 11
41.0737
 21
8.4435
 31
0.0000
  0
ARC
  8
21
 10
43.0848
 20
9.5674
 30
0.0000
 40
0.3747
 50
0.0000
 51
90.0000
  0
ARC
  8
21
 10
43.0848
 20
9.4607
 30
0.0000
 40
0.4813
 50
90.0001
 51
162.0554
  0
ARC
  8
21
 10
43.0570
 20
9.5674
 30
0.0000
 40
0.4024
 50
313.6040
 51
359.9998
  0
LINE
  8
21
 10
43.3345
 20
9.2760
 30
0.0000
 11
42.6269
 21
8.4435
 31
0.0000
  0
LINE
  8
21
 10
42.6269
 20
8.4435
 30
0.0000
 11
43.4594
 21
8.4435
 31
0.0000
  0
LINE
  8
21
 10
6.9290
 20
3.5000
 30
0.0000
 11
7.3734
 21
3.5000
 31
0.0000
  0
LINE
  8
21
 10
3.5000
 20
6.9290
 30
0.0000
 11
3.5000
 21
7.3734
 31
0.0000
  0
LINE
  8
21
 10
-0.3734
 20
3.5000
 30
0.0000
 11
0.0710
 21
3.5000
 31
0.0000
  0
LINE
  8
21
 10
3.5000
 20
-0.3735
 30
0.0000
 11
3.5000
 21
0.0710
 31
0.0000
  0
CIRCLE
  8
21
 10
3.5000
 20
3.5000
 30
0.0000
 40
1.4375
  0
CIRCLE
  8
21
 10
3.5000
 20
3.5000
 30
0.0000
 40
3.8133
  0
LINE
  8
21
 10
55.9290
 20
3.5000
 30
0.0000
 11
56.3734
 21
3.5000
 31
0.0000
  0
LINE
  8
21
 10
52.5000
 20
6.9290
 30
0.0000
 11
52.5000
 21
7.3734
 31
0.0000
  0
LINE
  8
21
 10
48.6266
 20
3.5000
 30
0.0000
 11
49.0710
 21
3.5000
 31
0.0000
  0
LINE
  8
21
 10
52.5000
 20
-0.3735
 30
0.0000
 11
52.5000
 21
0.0710
 31
0.0000
  0
CIRCLE
  8
21
 10
52.5000
 20
3.5000
 30
0.0000
 40
1.4375
  0
CIRCLE
  8
21
 10
52.5000
 20
3.5000
 30
0.0000
 40
3.8133
  0
ARC
  8
21
 10
7.6000
 20
10.6000
 30
0.0000
 40
1.7000
 50
298.0725
 51
61.9275
  0
ARC
  8
21
 10
7.6000
 20
10.6000
 30
0.0000
 40
1.7000
 50
118.0725
 51
241.9275
  0
LINE
  8
51
 10
8.4000
 20
9.1000
 30
0.0000
 11
6.8000
 21
9.1000
 31
0.0000
  0
LINE
  8
21
 10
8.7112
 20
9.0125
 30
0.0000
 11
9.3463
 21
9.0125
 31
0.0000
  0
LINE
  8
21
 10
8.7112
 20
12.2462
 30
0.0000
 11
9.3463
 21
12.2462
 31
0.0000
  0
LINE
  8
21
 10
9.0288
 20
11.9288
 30
0.0000
 11
9.0288
 21
12.5638
 31
0.0000
  0
ARC
  8
21
 10
7.6000
 20
10.6000
 30
0.0000
 40
1.7000
 50
298.0725
 51
61.9275
  0
ARC
  8
21
 10
7.6000
 20
10.6000
 30
0.0000
 40
1.7000
 50
118.0725
 51
241.9275
  0
ARC
  8
51
 10
7.6000
 20
10.6000
 30
0.0000
 40
1.7000
 50
61.9275
 51
118.0725
  0
LINE
  8
51
 10
8.1779
 20
11.3354
 30
0.0000
 11
7.2381
 21
11.6486
 31
0.0000
  0
LINE
  8
51
 10
7.2381
 20
11.6486
 30
0.0000
 11
8.1779
 21
11.9619
 31
0.0000
  0
LINE
  8
51
 10
7.9430
 20
11.8836
 30
0.0000
 11
7.9430
 21
11.4137
 31
0.0000
  0
LINE
  8
51
 10
8.1779
 20
9.9619
 30
0.0000
 11
8.1779
 21
9.7531
 31
0.0000
  0
ARC
  8
51
 10
7.9691
 20
9.7531
 30
0.0000
 40
0.2088
 50
270.0000
 51
0.0000
  0
LINE
  8
51
 10
7.9691
 20
9.5442
 30
0.0000
 11
7.4469
 21
9.5442
 31
0.0000
  0
ARC
  8
51
 10
7.4469
 20
9.7531
 30
0.0000
 40
0.2089
 50
180.0017
 51
270.0000
  0
LINE
  8
51
 10
7.2381
 20
9.7531
 30
0.0000
 11
7.2381
 21
9.9619
 31
0.0000
  0
CIRCLE
  8
51
 10
7.6000
 20
10.6000
 30
0.0000
 40
1.5000
  0
LINE
  8
25
 10
9.5685
 20
9.1611
 30
0.0000
 11
10.7115
 21
9.1611
 31
0.0000
  0
LINE
  8
25
 10
10.7115
 20
9.1611
 30
0.0000
 11
10.7115
 21
9.6691
 31
0.0000
  0
LINE
  8
25
 10
10.7115
 20
10.1492
 30
0.0000
 11
9.5685
 21
10.1492
 31
0.0000
  0
LINE
  8
25
 10
9.5685
 20
10.1492
 30
0.0000
 11
9.5685
 21
10.4667
 31
0.0000
  0
ARC
  8
25
 10
9.8860
 20
10.4667
 30
0.0000
 40
0.3175
 50
90.0000
 51
180.0000
  0
LINE
  8
25
 10
9.8860
 20
10.7842
 30
0.0000
 11
10.3940
 21
10.7842
 31
0.0000
  0
ARC
  8
25
 10
10.3940
 20
10.4667
 30
0.0000
 40
0.3175
 50
0.0000
 51
90.0000
  0
LINE
  8
25
 10
10.7115
 20
10.4667
 30
0.0000
 11
10.7115
 21
10.1492
 31
0.0000
  0
LINE
  8
25
 10
9.8225
 20
11.3303
 30
0.0000
 11
9.5685
 21
11.6478
 31
0.0000
  0
LINE
  8
25
 10
9.5685
 20
11.6478
 30
0.0000
 11
10.7115
 21
11.6478
 31
0.0000
  0
LINE
  8
25
 10
10.7115
 20
11.3303
 30
0.0000
 11
10.7115
 21
11.9653
 31
0.0000
  0
ARC
  8
21
 10
2.9000
 20
10.6000
 30
0.0000
 40
1.7000
 50
298.0725
 51
61.9275
  0
ARC
  8
21
 10
2.9000
 20
10.6000
 30
0.0000
 40
1.7000
 50
118.0725
 51
241.9275
  0
LINE
  8
51
 10
3.7000
 20
9.1000
 30
0.0000
 11
2.1000
 21
9.1000
 31
0.0000
  0
LINE
  8
21
 10
4.0113
 20
9.0125
 30
0.0000
 11
4.6463
 21
9.0125
 31
0.0000
  0
LINE
  8
21
 10
4.0113
 20
12.2462
 30
0.0000
 11
4.6463
 21
12.2462
 31
0.0000
  0
LINE
  8
21
 10
4.3288
 20
11.9288
 30
0.0000
 11
4.3288
 21
12.5638
 31
0.0000
  0
ARC
  8
21
 10
2.9000
 20
10.6000
 30
0.0000
 40
1.7000
 50
298.0725
 51
61.9275
  0
ARC
  8
21
 10
2.9000
 20
10.6000
 30
0.0000
 40
1.7000
 50
118.0725
 51
241.9275
  0
ARC
  8
51
 10
2.9000
 20
10.6000
 30
0.0000
 40
1.7000
 50
61.9275
 51
118.0725
  0
LINE
  8
51
 10
3.4779
 20
11.3354
 30
0.0000
 11
2.5381
 21
11.6486
 31
0.0000
  0
LINE
  8
51
 10
2.5381
 20
11.6486
 30
0.0000
 11
3.4779
 21
11.9619
 31
0.0000
  0
LINE
  8
51
 10
3.2429
 20
11.8836
 30
0.0000
 11
3.2429
 21
11.4137
 31
0.0000
  0
LINE
  8
51
 10
3.4779
 20
9.9619
 30
0.0000
 11
3.4779
 21
9.7531
 31
0.0000
  0
ARC
  8
51
 10
3.2691
 20
9.7531
 30
0.0000
 40
0.2088
 50
270.0000
 51
0.0000
  0
LINE
  8
51
 10
3.2691
 20
9.5442
 30
0.0000
 11
2.7469
 21
9.5442
 31
0.0000
  0
ARC
  8
51
 10
2.7469
 20
9.7531
 30
0.0000
 40
0.2089
 50
180.0017
 51
270.0000
  0
LINE
  8
51
 10
2.5381
 20
9.7531
 30
0.0000
 11
2.5381
 21
9.9619
 31
0.0000
  0
CIRCLE
  8
51
 10
2.9000
 20
10.6000
 30
0.0000
 40
1.5000
  0
LINE
  8
25
 10
1.6873
 20
8.5515
 30
0.0000
 11
1.6873
 21
7.4085
 31
0.0000
  0
LINE
  8
25
 10
1.6873
 20
7.4085
 30
0.0000
 11
2.1953
 21
7.4085
 31
0.0000
  0
LINE
  8
25
 10
2.6753
 20
7.4085
 30
0.0000
 11
2.6753
 21
8.5515
 31
0.0000
  0
LINE
  8
25
 10
2.6753
 20
8.5515
 30
0.0000
 11
2.9928
 21
8.5515
 31
0.0000
  0
ARC
  8
25
 10
2.9928
 20
8.2340
 30
0.0000
 40
0.3175
 50
0.0000
 51
90.0000
  0
LINE
  8
25
 10
3.3103
 20
8.2340
 30
0.0000
 11
3.3103
 21
7.7260
 31
0.0000
  0
ARC
  8
25
 10
2.9928
 20
7.7260
 30
0.0000
 40
0.3175
 50
270.0000
 51
0.0000
  0
LINE
  8
25
 10
2.9928
 20
7.4085
 30
0.0000
 11
2.6753
 21
7.4085
 31
0.0000
  0
ARC
  8
25
 10
4.2057
 20
8.2658
 30
0.0000
 40
0.2858
 50
0.0000
 51
90.0000
  0
ARC
  8
25
 10
4.2057
 20
8.1844
 30
0.0000
 40
0.3671
 50
90.0000
 51
162.0547
  0
ARC
  8
25
 10
4.1845
 20
8.2658
 30
0.0000
 40
0.3069
 50
313.6027
 51
0.0001
  0
LINE
  8
25
 10
4.3962
 20
8.0435
 30
0.0000
 11
3.8564
 21
7.4085
 31
0.0000
  0
LINE
  8
25
 10
3.8564
 20
7.4085
 30
0.0000
 11
4.4914
 21
7.4085
 31
0.0000
  0
LINE
  8
21
 10
11.6308
 20
12.4471
 30
0.0000
 11
15.1867
 21
12.4471
 31
0.0000
  0
LINE
  8
21
 10
15.1867
 20
10.5929
 30
0.0000
 11
11.6308
 21
10.5929
 31
0.0000
  0
LINE
  8
21
 10
15.1867
 20
12.4471
 30
0.0000
 11
15.1867
 21
10.5929
 31
0.0000
  0
LINE
  8
21
 10
11.6308
 20
12.4471
 30
0.0000
 11
11.6308
 21
10.5929
 31
0.0000
  0
LINE
  8
25
 10
15.5523
 20
11.1456
 30
0.0000
 11
15.5523
 21
12.0600
 31
0.0000
  0
LINE
  8
25
 10
15.5523
 20
12.0600
 30
0.0000
 11
15.8063
 21
12.0600
 31
0.0000
  0
ARC
  8
25
 10
15.8063
 20
11.8060
 30
0.0000
 40
0.2540
 50
270.0000
 51
90.0000
  0
LINE
  8
25
 10
15.8063
 20
11.5519
 30
0.0000
 11
15.5523
 21
11.5519
 31
0.0000
  0
LINE
  8
25
 10
16.0603
 20
11.1456
 30
0.0000
 11
15.8571
 21
11.5519
 31
0.0000
  0
LINE
  8
25
 10
16.4601
 20
11.8567
 30
0.0000
 11
16.7141
 21
12.0600
 31
0.0000
  0
LINE
  8
25
 10
16.7141
 20
12.0600
 30
0.0000
 11
16.7141
 21
11.1456
 31
0.0000
  0
LINE
  8
25
 10
16.4601
 20
11.1456
 30
0.0000
 11
16.9681
 21
11.1456
 31
0.0000
  0
LINE
  8
25
 10
17.3745
 20
11.6536
 30
0.0000
 11
17.6793
 21
11.6536
 31
0.0000
  0
ARC
  8
25
 10
17.6793
 20
11.4504
 30
0.0000
 40
0.2032
 50
0.0000
 51
90.0000
  0
LINE
  8
25
 10
17.8825
 20
11.4504
 30
0.0000
 11
17.8825
 21
11.3996
 31
0.0000
  0
ARC
  8
25
 10
17.6285
 20
11.3996
 30
0.0000
 40
0.2540
 50
180.0000
 51
0.0000
  0
LINE
  8
25
 10
17.3745
 20
11.3996
 30
0.0000
 11
17.3745
 21
11.6536
 31
0.0000
  0
ARC
  8
25
 10
17.7809
 20
11.6536
 30
0.0000
 40
0.4064
 50
90.0000
 51
180.0000
  0
LINE
  8
21
 10
11.6508
 20
10.4196
 30
0.0000
 11
15.2068
 21
10.4196
 31
0.0000
  0
LINE
  8
21
 10
15.2068
 20
8.5654
 30
0.0000
 11
11.6508
 21
8.5654
 31
0.0000
  0
LINE
  8
21
 10
15.2068
 20
10.4196
 30
0.0000
 11
15.2068
 21
8.5654
 31
0.0000
  0
LINE
  8
21
 10
11.6508
 20
10.4196
 30
0.0000
 11
11.6508
 21
8.5654
 31
0.0000
  0
LINE
  8
25
 10
15.6723
 20
8.8593
 30
0.0000
 11
15.6723
 21
9.7737
 31
0.0000
  0
LINE
  8
25
 10
15.6723
 20
9.7737
 30
0.0000
 11
15.9263
 21
9.7737
 31
0.0000
  0
ARC
  8
25
 10
15.9263
 20
9.5197
 30
0.0000
 40
0.2540
 50
270.0000
 51
90.0000
  0
LINE
  8
25
 10
15.9263
 20
9.2657
 30
0.0000
 11
15.6723
 21
9.2657
 31
0.0000
  0
LINE
  8
25
 10
16.1803
 20
8.8593
 30
0.0000
 11
15.9771
 21
9.2657
 31
0.0000
  0
LINE
  8
25
 10
16.5801
 20
9.5705
 30
0.0000
 11
16.8341
 21
9.7737
 31
0.0000
  0
LINE
  8
25
 10
16.8341
 20
9.7737
 30
0.0000
 11
16.8341
 21
8.8593
 31
0.0000
  0
LINE
  8
25
 10
16.5801
 20
8.8593
 30
0.0000
 11
17.0881
 21
8.8593
 31
0.0000
  0
LINE
  8
25
 10
17.4945
 20
9.6721
 30
0.0000
 11
17.4945
 21
9.7737
 31
0.0000
  0
LINE
  8
25
 10
17.4945
 20
9.7737
 30
0.0000
 11
18.0025
 21
9.7737
 31
0.0000
  0
LINE
  8
25
 10
18.0025
 20
9.7737
 30
0.0000
 11
17.7485
 21
8.8593
 31
0.0000
  0
LINE
  8
51
 10
7.8000
 20
5.1500
 30
0.0000
 11
7.8000
 21
6.5000
 31
0.0000
  0
ARC
  8
51
 10
8.0000
 20
6.5000
 30
0.0000
 40
0.2000
 50
90.0000
 51
180.0000
  0
LINE
  8
51
 10
8.0000
 20
6.7000
 30
0.0000
 11
8.0500
 21
6.7000
 31
0.0000
  0
LINE
  8
21
 10
8.0500
 20
6.7000
 30
0.0000
 11
13.5500
 21
6.7000
 31
0.0000
  0
LINE
  8
51
 10
13.5500
 20
6.7000
 30
0.0000
 11
13.6000
 21
6.7000
 31
0.0000
  0
ARC
  8
51
 10
13.6000
 20
6.5000
 30
0.0000
 40
0.2000
 50
0.0000
 51
90.0000
  0
LINE
  8
51
 10
13.8000
 20
6.5000
 30
0.0000
 11
13.8000
 21
5.1500
 31
0.0000
  0
LINE
  8
21
 10
13.8000
 20
5.1500
 30
0.0000
 11
13.8000
 21
2.3000
 31
0.0000
  0
LINE
  8
51
 10
13.8000
 20
2.3000
 30
0.0000
 11
13.8000
 21
0.9000
 31
0.0000
  0
ARC
  8
51
 10
13.6000
 20
0.9000
 30
0.0000
 40
0.2000
 50
270.0000
 51
0.0000
  0
LINE
  8
51
 10
13.6000
 20
0.7000
 30
0.0000
 11
13.2000
 21
0.7000
 31
0.0000
  0
LINE
  8
21
 10
13.2000
 20
0.7000
 30
0.0000
 11
8.0500
 21
0.7000
 31
0.0000
  0
LINE
  8
51
 10
8.0500
 20
0.7000
 30
0.0000
 11
8.0000
 21
0.7000
 31
0.0000
  0
ARC
  8
51
 10
8.0000
 20
0.9000
 30
0.0000
 40
0.2000
 50
180.0000
 51
270.0000
  0
LINE
  8
51
 10
7.8000
 20
0.9000
 30
0.0000
 11
7.8000
 21
2.2500
 31
0.0000
  0
LINE
  8
21
 10
7.8000
 20
2.2500
 30
0.0000
 11
7.8000
 21
5.1500
 31
0.0000
  0
ARC
  8
51
 10
8.6502
 20
1.5467
 30
0.0000
 40
0.4975
 50
134.7490
 51
232.8791
  0
ARC
  8
21
 10
8.6502
 20
1.5467
 30
0.0000
 40
0.4975
 50
232.8791
 51
134.7490
  0
ARC
  8
51
 10
8.6502
 20
5.8467
 30
0.0000
 40
0.4975
 50
134.7490
 51
232.8791
  0
ARC
  8
21
 10
8.6502
 20
5.8467
 30
0.0000
 40
0.4975
 50
232.8791
 51
134.7490
  0
ARC
  8
51
 10
12.9498
 20
5.8533
 30
0.0000
 40
0.4975
 50
314.7490
 51
52.8791
  0
ARC
  8
21
 10
12.9498
 20
5.8533
 30
0.0000
 40
0.4975
 50
52.8791
 51
314.7490
  0
ARC
  8
51
 10
12.9500
 20
1.5500
 30
0.0000
 40
0.5000
 50
306.8699
 51
53.1301
  0
ARC
  8
21
 10
12.9500
 20
1.5500
 30
0.0000
 40
0.5000
 50
53.1301
 51
306.8699
  0
CIRCLE
  8
21
 10
10.8000
 20
3.7000
 30
0.0000
 40
1.7500
  0
CIRCLE
  8
21
 10
10.8000
 20
3.7000
 30
0.0000
 40
1.4000
  0
INSERT
  8
51
  2
RECT
 10
7.5500
 20
5.9500
 30
0.0000
 41
0.5000
 42
0.7000
 43
1.0000
 50
0.0000
  0
INSERT
  8
51
  2
RECT
 10
7.5500
 20
1.4500
 30
0.0000
 41
0.5000
 42
0.7000
 43
1.0000
 50
0.0000
  0
INSERT
  8
51
  2
RECT
 10
14.0500
 20
1.4500
 30
0.0000
 41
0.5000
 42
0.7000
 43
1.0000
 50
0.0000
  0
INSERT
  8
51
  2
RECT
 10
14.0500
 20
5.9500
 30
0.0000
 41
0.5000
 42
0.7000
 43
1.0000
 50
0.0000
  0
ARC
  8
25
 10
8.1903
 20
7.1604
 30
0.0000
 40
0.2596
 50
270.0000
 51
0.0000
  0
ARC
  8
25
 10
8.1903
 20
7.4493
 30
0.0000
 40
0.5485
 50
224.7610
 51
269.9999
  0
ARC
  8
25
 10
8.0929
 20
7.8096
 30
0.0000
 40
0.2596
 50
89.9993
 51
180.0000
  0
ARC
  8
25
 10
8.0929
 20
7.5824
 30
0.0000
 40
0.4868
 50
53.1301
 51
89.9993
  0
ARC
  8
25
 10
8.0969
 20
7.8096
 30
0.0000
 40
0.2637
 50
179.9998
 51
239.4902
  0
ARC
  8
25
 10
8.1862
 20
7.1604
 30
0.0000
 40
0.2637
 50
0.0001
 51
59.4899
  0
LINE
  8
25
 10
8.3201
 20
7.3876
 30
0.0000
 11
7.9631
 21
7.5824
 31
0.0000
  0
LINE
  8
25
 10
8.8634
 20
8.0692
 30
0.0000
 11
9.1230
 21
6.9008
 31
0.0000
  0
LINE
  8
25
 10
9.1230
 20
6.9008
 30
0.0000
 11
9.3827
 21
7.6797
 31
0.0000
  0
LINE
  8
25
 10
9.3827
 20
7.6797
 30
0.0000
 11
9.6423
 21
6.9008
 31
0.0000
  0
LINE
  8
25
 10
9.6423
 20
6.9008
 30
0.0000
 11
9.9019
 21
8.0692
 31
0.0000
  0
LINE
  8
25
 10
10.3535
 20
7.8096
 30
0.0000
 11
10.6781
 21
8.0692
 31
0.0000
  0
LINE
  8
25
 10
10.6781
 20
8.0692
 30
0.0000
 11
10.6781
 21
6.9008
 31
0.0000
  0
LINE
  8
25
 10
10.3535
 20
6.9008
 30
0.0000
 11
11.0026
 21
6.9008
 31
0.0000
  0
LINE
  8
51
 10
16.4000
 20
5.1500
 30
0.0000
 11
16.4000
 21
6.5000
 31
0.0000
  0
ARC
  8
51
 10
16.6000
 20
6.5000
 30
0.0000
 40
0.2000
 50
90.0000
 51
180.0000
  0
LINE
  8
51
 10
16.6000
 20
6.7000
 30
0.0000
 11
16.6500
 21
6.7000
 31
0.0000
  0
LINE
  8
21
 10
16.6500
 20
6.7000
 30
0.0000
 11
22.1500
 21
6.7000
 31
0.0000
  0
LINE
  8
51
 10
22.1500
 20
6.7000
 30
0.0000
 11
22.2000
 21
6.7000
 31
0.0000
  0
ARC
  8
51
 10
22.2000
 20
6.5000
 30
0.0000
 40
0.2000
 50
0.0000
 51
90.0000
  0
LINE
  8
51
 10
22.4000
 20
6.5000
 30
0.0000
 11
22.4000
 21
5.1500
 31
0.0000
  0
LINE
  8
21
 10
22.4000
 20
5.1500
 30
0.0000
 11
22.4000
 21
2.3000
 31
0.0000
  0
LINE
  8
51
 10
22.4000
 20
2.3000
 30
0.0000
 11
22.4000
 21
0.9000
 31
0.0000
  0
ARC
  8
51
 10
22.2000
 20
0.9000
 30
0.0000
 40
0.2000
 50
270.0000
 51
0.0000
  0
LINE
  8
51
 10
22.2000
 20
0.7000
 30
0.0000
 11
21.8000
 21
0.7000
 31
0.0000
  0
LINE
  8
21
 10
21.8000
 20
0.7000
 30
0.0000
 11
16.6500
 21
0.7000
 31
0.0000
  0
LINE
  8
51
 10
16.6500
 20
0.7000
 30
0.0000
 11
16.6000
 21
0.7000
 31
0.0000
  0
ARC
  8
51
 10
16.6000
 20
0.9000
 30
0.0000
 40
0.2000
 50
180.0000
 51
270.0000
  0
LINE
  8
51
 10
16.4000
 20
0.9000
 30
0.0000
 11
16.4000
 21
2.2500
 31
0.0000
  0
LINE
  8
21
 10
16.4000
 20
2.2500
 30
0.0000
 11
16.4000
 21
5.1500
 31
0.0000
  0
ARC
  8
51
 10
17.2502
 20
1.5467
 30
0.0000
 40
0.4975
 50
134.7490
 51
232.8791
  0
ARC
  8
21
 10
17.2502
 20
1.5467
 30
0.0000
 40
0.4975
 50
232.8791
 51
134.7490
  0
ARC
  8
51
 10
17.2502
 20
5.8467
 30
0.0000
 40
0.4975
 50
134.7490
 51
232.8791
  0
ARC
  8
21
 10
17.2502
 20
5.8467
 30
0.0000
 40
0.4975
 50
232.8791
 51
134.7490
  0
ARC
  8
51
 10
21.5498
 20
5.8533
 30
0.0000
 40
0.4975
 50
314.7490
 51
52.8791
  0
ARC
  8
21
 10
21.5498
 20
5.8533
 30
0.0000
 40
0.4975
 50
52.8791
 51
314.7490
  0
ARC
  8
51
 10
21.5500
 20
1.5500
 30
0.0000
 40
0.5000
 50
306.8699
 51
53.1301
  0
ARC
  8
21
 10
21.5500
 20
1.5500
 30
0.0000
 40
0.5000
 50
53.1301
 51
306.8699
  0
CIRCLE
  8
21
 10
19.4000
 20
3.7000
 30
0.0000
 40
1.7500
  0
CIRCLE
  8
21
 10
19.4000
 20
3.7000
 30
0.0000
 40
1.4000
  0
INSERT
  8
51
  2
RECT
 10
16.1500
 20
5.9500
 30
0.0000
 41
0.5000
 42
0.7000
 43
1.0000
 50
0.0000
  0
INSERT
  8
51
  2
RECT
 10
16.1500
 20
1.4500
 30
0.0000
 41
0.5000
 42
0.7000
 43
1.0000
 50
0.0000
  0
INSERT
  8
51
  2
RECT
 10
22.6500
 20
1.4500
 30
0.0000
 41
0.5000
 42
0.7000
 43
1.0000
 50
0.0000
  0
INSERT
  8
51
  2
RECT
 10
22.6500
 20
5.9500
 30
0.0000
 41
0.5000
 42
0.7000
 43
1.0000
 50
0.0000
  0
ARC
  8
25
 10
16.7903
 20
7.1604
 30
0.0000
 40
0.2596
 50
270.0000
 51
0.0000
  0
ARC
  8
25
 10
16.7903
 20
7.4493
 30
0.0000
 40
0.5485
 50
224.7610
 51
269.9999
  0
ARC
  8
25
 10
16.6929
 20
7.8096
 30
0.0000
 40
0.2596
 50
89.9993
 51
180.0000
  0
ARC
  8
25
 10
16.6929
 20
7.5824
 30
0.0000
 40
0.4868
 50
53.1301
 51
89.9993
  0
ARC
  8
25
 10
16.6970
 20
7.8096
 30
0.0000
 40
0.2637
 50
179.9998
 51
239.4902
  0
ARC
  8
25
 10
16.7862
 20
7.1604
 30
0.0000
 40
0.2637
 50
0.0001
 51
59.4899
  0
LINE
  8
25
 10
16.9201
 20
7.3876
 30
0.0000
 11
16.5631
 21
7.5824
 31
0.0000
  0
LINE
  8
25
 10
17.4634
 20
8.0692
 30
0.0000
 11
17.7230
 21
6.9008
 31
0.0000
  0
LINE
  8
25
 10
17.7230
 20
6.9008
 30
0.0000
 11
17.9827
 21
7.6797
 31
0.0000
  0
LINE
  8
25
 10
17.9827
 20
7.6797
 30
0.0000
 11
18.2423
 21
6.9008
 31
0.0000
  0
LINE
  8
25
 10
18.2423
 20
6.9008
 30
0.0000
 11
18.5019
 21
8.0692
 31
0.0000
  0
ARC
  8
25
 10
19.3105
 20
7.7771
 30
0.0000
 40
0.2921
 50
0.0000
 51
90.0000
  0
ARC
  8
25
 10
19.3105
 20
7.6939
 30
0.0000
 40
0.3753
 50
90.0001
 51
162.0549
  0
ARC
  8
25
 10
19.2889
 20
7.7771
 30
0.0000
 40
0.3138
 50
313.6040
 51
359.9996
  0
LINE
  8
25
 10
19.5052
 20
7.5499
 30
0.0000
 11
18.9535
 21
6.9008
 31
0.0000
  0
LINE
  8
25
 10
18.9535
 20
6.9008
 30
0.0000
 11
19.6026
 21
6.9008
 31
0.0000
  0
LINE
  8
51
 10
25.0000
 20
5.1500
 30
0.0000
 11
25.0000
 21
6.5000
 31
0.0000
  0
ARC
  8
51
 10
25.2000
 20
6.5000
 30
0.0000
 40
0.2000
 50
90.0000
 51
180.0000
  0
LINE
  8
51
 10
25.2000
 20
6.7000
 30
0.0000
 11
25.2500
 21
6.7000
 31
0.0000
  0
LINE
  8
21
 10
25.2500
 20
6.7000
 30
0.0000
 11
30.7500
 21
6.7000
 31
0.0000
  0
LINE
  8
51
 10
30.7500
 20
6.7000
 30
0.0000
 11
30.8000
 21
6.7000
 31
0.0000
  0
ARC
  8
51
 10
30.8000
 20
6.5000
 30
0.0000
 40
0.2000
 50
0.0000
 51
90.0000
  0
LINE
  8
51
 10
31.0000
 20
6.5000
 30
0.0000
 11
31.0000
 21
5.1500
 31
0.0000
  0
LINE
  8
21
 10
31.0000
 20
5.1500
 30
0.0000
 11
31.0000
 21
2.3000
 31
0.0000
  0
LINE
  8
51
 10
31.0000
 20
2.3000
 30
0.0000
 11
31.0000
 21
0.9000
 31
0.0000
  0
ARC
  8
51
 10
30.8000
 20
0.9000
 30
0.0000
 40
0.2000
 50
270.0000
 51
0.0000
  0
LINE
  8
51
 10
30.8000
 20
0.7000
 30
0.0000
 11
30.4000
 21
0.7000
 31
0.0000
  0
LINE
  8
21
 10
30.4000
 20
0.7000
 30
0.0000
 11
25.2500
 21
0.7000
 31
0.0000
  0
LINE
  8
51
 10
25.2500
 20
0.7000
 30
0.0000
 11
25.2000
 21
0.7000
 31
0.0000
  0
ARC
  8
51
 10
25.2000
 20
0.9000
 30
0.0000
 40
0.2000
 50
180.0000
 51
270.0000
  0
LINE
  8
51
 10
25.0000
 20
0.9000
 30
0.0000
 11
25.0000
 21
2.2500
 31
0.0000
  0
LINE
  8
21
 10
25.0000
 20
2.2500
 30
0.0000
 11
25.0000
 21
5.1500
 31
0.0000
  0
ARC
  8
51
 10
25.8502
 20
1.5467
 30
0.0000
 40
0.4975
 50
134.7490
 51
232.8791
  0
ARC
  8
21
 10
25.8502
 20
1.5467
 30
0.0000
 40
0.4975
 50
232.8791
 51
134.7490
  0
ARC
  8
51
 10
25.8502
 20
5.8467
 30
0.0000
 40
0.4975
 50
134.7490
 51
232.8791
  0
ARC
  8
21
 10
25.8502
 20
5.8467
 30
0.0000
 40
0.4975
 50
232.8791
 51
134.7490
  0
ARC
  8
51
 10
30.1498
 20
5.8533
 30
0.0000
 40
0.4975
 50
314.7490
 51
52.8791
  0
ARC
  8
21
 10
30.1498
 20
5.8533
 30
0.0000
 40
0.4975
 50
52.8791
 51
314.7490
  0
ARC
  8
51
 10
30.1500
 20
1.5500
 30
0.0000
 40
0.5000
 50
306.8699
 51
53.1301
  0
ARC
  8
21
 10
30.1500
 20
1.5500
 30
0.0000
 40
0.5000
 50
53.1301
 51
306.8699
  0
CIRCLE
  8
21
 10
28.0000
 20
3.7000
 30
0.0000
 40
1.7500
  0
CIRCLE
  8
21
 10
28.0000
 20
3.7000
 30
0.0000
 40
1.4000
  0
INSERT
  8
51
  2
RECT
 10
24.7500
 20
5.9500
 30
0.0000
 41
0.5000
 42
0.7000
 43
1.0000
 50
0.0000
  0
INSERT
  8
51
  2
RECT
 10
24.7500
 20
1.4500
 30
0.0000
 41
0.5000
 42
0.7000
 43
1.0000
 50
0.0000
  0
INSERT
  8
51
  2
RECT
 10
31.2500
 20
1.4500
 30
0.0000
 41
0.5000
 42
0.7000
 43
1.0000
 50
0.0000
  0
INSERT
  8
51
  2
RECT
 10
31.2500
 20
5.9500
 30
0.0000
 41
0.5000
 42
0.7000
 43
1.0000
 50
0.0000
  0
ARC
  8
25
 10
27.2064
 20
7.0969
 30
0.0000
 40
0.2088
 50
270.0000
 51
0.0000
  0
ARC
  8
25
 10
27.2064
 20
7.3293
 30
0.0000
 40
0.4412
 50
224.7611
 51
269.9999
  0
ARC
  8
25
 10
27.1280
 20
7.6191
 30
0.0000
 40
0.2088
 50
89.9991
 51
180.0000
  0
ARC
  8
25
 10
27.1280
 20
7.4363
 30
0.0000
 40
0.3916
 50
53.1301
 51
89.9991
  0
ARC
  8
25
 10
27.1313
 20
7.6191
 30
0.0000
 40
0.2121
 50
179.9997
 51
239.4903
  0
ARC
  8
25
 10
27.2031
 20
7.0969
 30
0.0000
 40
0.2121
 50
0.0001
 51
59.4899
  0
LINE
  8
25
 10
27.3108
 20
7.2797
 30
0.0000
 11
27.0236
 21
7.4363
 31
0.0000
  0
LINE
  8
25
 10
27.7423
 20
7.8279
 30
0.0000
 11
27.9511
 21
6.8881
 31
0.0000
  0
LINE
  8
25
 10
27.9511
 20
6.8881
 30
0.0000
 11
28.1600
 21
7.5146
 31
0.0000
  0
LINE
  8
25
 10
28.1600
 20
7.5146
 30
0.0000
 11
28.3688
 21
6.8881
 31
0.0000
  0
LINE
  8
25
 10
28.3688
 20
6.8881
 30
0.0000
 11
28.5777
 21
7.8279
 31
0.0000
  0
LINE
  8
25
 10
28.9353
 20
6.8881
 30
0.0000
 11
29.1963
 21
6.8881
 31
0.0000
  0
ARC
  8
25
 10
29.1963
 20
7.1492
 30
0.0000
 40
0.2611
 50
270.0000
 51
90.0000
  0
LINE
  8
25
 10
28.9353
 20
7.8279
 30
0.0000
 11
29.2485
 21
7.8279
 31
0.0000
  0
ARC
  8
25
 10
29.2485
 20
7.6191
 30
0.0000
 40
0.2088
 50
270.0000
 51
90.0000
  0
LINE
  8
25
 10
29.2485
 20
7.4102
 30
0.0000
 11
29.0397
 21
7.4102
 31
0.0000
  0
LINE
  8
51
 10
33.6000
 20
5.1500
 30
0.0000
 11
33.6000
 21
6.5000
 31
0.0000
  0
ARC
  8
51
 10
33.8000
 20
6.5000
 30
0.0000
 40
0.2000
 50
90.0000
 51
180.0000
  0
LINE
  8
51
 10
33.8000
 20
6.7000
 30
0.0000
 11
33.8500
 21
6.7000
 31
0.0000
  0
LINE
  8
21
 10
33.8500
 20
6.7000
 30
0.0000
 11
39.3500
 21
6.7000
 31
0.0000
  0
LINE
  8
51
 10
39.3500
 20
6.7000
 30
0.0000
 11
39.4000
 21
6.7000
 31
0.0000
  0
ARC
  8
51
 10
39.4000
 20
6.5000
 30
0.0000
 40
0.2000
 50
0.0000
 51
90.0000
  0
LINE
  8
51
 10
39.6000
 20
6.5000
 30
0.0000
 11
39.6000
 21
5.1500
 31
0.0000
  0
LINE
  8
21
 10
39.6000
 20
5.1500
 30
0.0000
 11
39.6000
 21
2.3000
 31
0.0000
  0
LINE
  8
51
 10
39.6000
 20
2.3000
 30
0.0000
 11
39.6000
 21
0.9000
 31
0.0000
  0
ARC
  8
51
 10
39.4000
 20
0.9000
 30
0.0000
 40
0.2000
 50
270.0000
 51
0.0000
  0
LINE
  8
51
 10
39.4000
 20
0.7000
 30
0.0000
 11
39.0000
 21
0.7000
 31
0.0000
  0
LINE
  8
21
 10
39.0000
 20
0.7000
 30
0.0000
 11
33.8500
 21
0.7000
 31
0.0000
  0
LINE
  8
51
 10
33.8500
 20
0.7000
 30
0.0000
 11
33.8000
 21
0.7000
 31
0.0000
  0
ARC
  8
51
 10
33.8000
 20
0.9000
 30
0.0000
 40
0.2000
 50
180.0000
 51
270.0000
  0
LINE
  8
51
 10
33.6000
 20
0.9000
 30
0.0000
 11
33.6000
 21
2.2500
 31
0.0000
  0
LINE
  8
21
 10
33.6000
 20
2.2500
 30
0.0000
 11
33.6000
 21
5.1500
 31
0.0000
  0
ARC
  8
51
 10
34.4502
 20
1.5467
 30
0.0000
 40
0.4975
 50
134.7490
 51
232.8791
  0
ARC
  8
21
 10
34.4502
 20
1.5467
 30
0.0000
 40
0.4975
 50
232.8791
 51
134.7490
  0
ARC
  8
51
 10
34.4502
 20
5.8467
 30
0.0000
 40
0.4975
 50
134.7490
 51
232.8791
  0
ARC
  8
21
 10
34.4502
 20
5.8467
 30
0.0000
 40
0.4975
 50
232.8791
 51
134.7490
  0
ARC
  8
51
 10
38.7498
 20
5.8533
 30
0.0000
 40
0.4975
 50
314.7490
 51
52.8791
  0
ARC
  8
21
 10
38.7498
 20
5.8533
 30
0.0000
 40
0.4975
 50
52.8791
 51
314.7490
  0
ARC
  8
51
 10
38.7500
 20
1.5500
 30
0.0000
 40
0.5000
 50
306.8699
 51
53.1301
  0
ARC
  8
21
 10
38.7500
 20
1.5500
 30
0.0000
 40
0.5000
 50
53.1301
 51
306.8699
  0
CIRCLE
  8
21
 10
36.6000
 20
3.7000
 30
0.0000
 40
1.7500
  0
CIRCLE
  8
21
 10
36.6000
 20
3.7000
 30
0.0000
 40
1.4000
  0
INSERT
  8
51
  2
RECT
 10
33.3500
 20
5.9500
 30
0.0000
 41
0.5000
 42
0.7000
 43
1.0000
 50
0.0000
  0
INSERT
  8
51
  2
RECT
 10
33.3500
 20
1.4500
 30
0.0000
 41
0.5000
 42
0.7000
 43
1.0000
 50
0.0000
  0
INSERT
  8
51
  2
RECT
 10
39.8500
 20
1.4500
 30
0.0000
 41
0.5000
 42
0.7000
 43
1.0000
 50
0.0000
  0
INSERT
  8
51
  2
RECT
 10
39.8500
 20
5.9500
 30
0.0000
 41
0.5000
 42
0.7000
 43
1.0000
 50
0.0000
  0
ARC
  8
25
 10
35.8953
 20
7.1604
 30
0.0000
 40
0.2596
 50
270.0000
 51
0.0000
  0
ARC
  8
25
 10
35.8953
 20
7.4493
 30
0.0000
 40
0.5485
 50
224.7610
 51
269.9999
  0
ARC
  8
25
 10
35.7979
 20
7.8096
 30
0.0000
 40
0.2596
 50
89.9993
 51
180.0000
  0
ARC
  8
25
 10
35.7979
 20
7.5824
 30
0.0000
 40
0.4868
 50
53.1301
 51
89.9993
  0
ARC
  8
25
 10
35.8020
 20
7.8096
 30
0.0000
 40
0.2637
 50
179.9998
 51
239.4902
  0
ARC
  8
25
 10
35.8912
 20
7.1604
 30
0.0000
 40
0.2637
 50
0.0001
 51
59.4899
  0
LINE
  8
25
 10
36.0251
 20
7.3876
 30
0.0000
 11
35.6681
 21
7.5824
 31
0.0000
  0
LINE
  8
25
 10
36.5684
 20
8.0692
 30
0.0000
 11
36.8280
 21
6.9008
 31
0.0000
  0
LINE
  8
25
 10
36.8280
 20
6.9008
 30
0.0000
 11
37.0877
 21
7.6797
 31
0.0000
  0
LINE
  8
25
 10
37.0877
 20
7.6797
 30
0.0000
 11
37.3473
 21
6.9008
 31
0.0000
  0
LINE
  8
25
 10
37.3473
 20
6.9008
 30
0.0000
 11
37.6069
 21
8.0692
 31
0.0000
  0
LINE
  8
25
 10
38.3181
 20
8.0692
 30
0.0000
 11
38.0585
 21
7.1604
 31
0.0000
  0
LINE
  8
25
 10
38.0585
 20
7.1604
 30
0.0000
 11
38.7076
 21
7.1604
 31
0.0000
  0
LINE
  8
25
 10
38.5129
 20
7.4201
 30
0.0000
 11
38.5129
 21
6.9008
 31
0.0000
  0
LINE
  8
51
 10
42.2000
 20
5.1500
 30
0.0000
 11
42.2000
 21
6.5000
 31
0.0000
  0
ARC
  8
51
 10
42.4000
 20
6.5000
 30
0.0000
 40
0.2000
 50
90.0000
 51
180.0000
  0
LINE
  8
51
 10
42.4000
 20
6.7000
 30
0.0000
 11
42.4500
 21
6.7000
 31
0.0000
  0
LINE
  8
21
 10
42.4500
 20
6.7000
 30
0.0000
 11
47.9500
 21
6.7000
 31
0.0000
  0
LINE
  8
51
 10
47.9500
 20
6.7000
 30
0.0000
 11
48.0000
 21
6.7000
 31
0.0000
  0
ARC
  8
51
 10
48.0000
 20
6.5000
 30
0.0000
 40
0.2000
 50
0.0000
 51
90.0000
  0
LINE
  8
51
 10
48.2000
 20
6.5000
 30
0.0000
 11
48.2000
 21
5.1500
 31
0.0000
  0
LINE
  8
21
 10
48.2000
 20
5.1500
 30
0.0000
 11
48.2000
 21
2.3000
 31
0.0000
  0
LINE
  8
51
 10
48.2000
 20
2.3000
 30
0.0000
 11
48.2000
 21
0.9000
 31
0.0000
  0
ARC
  8
51
 10
48.0000
 20
0.9000
 30
0.0000
 40
0.2000
 50
270.0000
 51
0.0000
  0
LINE
  8
51
 10
48.0000
 20
0.7000
 30
0.0000
 11
47.6000
 21
0.7000
 31
0.0000
  0
LINE
  8
21
 10
47.6000
 20
0.7000
 30
0.0000
 11
42.4500
 21
0.7000
 31
0.0000
  0
LINE
  8
51
 10
42.4500
 20
0.7000
 30
0.0000
 11
42.4000
 21
0.7000
 31
0.0000
  0
ARC
  8
51
 10
42.4000
 20
0.9000
 30
0.0000
 40
0.2000
 50
180.0000
 51
270.0000
  0
LINE
  8
51
 10
42.2000
 20
0.9000
 30
0.0000
 11
42.2000
 21
2.2500
 31
0.0000
  0
LINE
  8
21
 10
42.2000
 20
2.2500
 30
0.0000
 11
42.2000
 21
5.1500
 31
0.0000
  0
ARC
  8
51
 10
43.0502
 20
1.5467
 30
0.0000
 40
0.4975
 50
134.7490
 51
232.8791
  0
ARC
  8
21
 10
43.0502
 20
1.5467
 30
0.0000
 40
0.4975
 50
232.8791
 51
134.7490
  0
ARC
  8
51
 10
43.0502
 20
5.8467
 30
0.0000
 40
0.4975
 50
134.7490
 51
232.8791
  0
ARC
  8
21
 10
43.0502
 20
5.8467
 30
0.0000
 40
0.4975
 50
232.8791
 51
134.7490
  0
ARC
  8
51
 10
47.3498
 20
5.8533
 30
0.0000
 40
0.4975
 50
314.7490
 51
52.8791
  0
ARC
  8
21
 10
47.3498
 20
5.8533
 30
0.0000
 40
0.4975
 50
52.8791
 51
314.7490
  0
ARC
  8
51
 10
47.3500
 20
1.5500
 30
0.0000
 40
0.5000
 50
306.8699
 51
53.1301
  0
ARC
  8
21
 10
47.3500
 20
1.5500
 30
0.0000
 40
0.5000
 50
53.1301
 51
306.8699
  0
CIRCLE
  8
21
 10
45.2000
 20
3.7000
 30
0.0000
 40
1.7500
  0
CIRCLE
  8
21
 10
45.2000
 20
3.7000
 30
0.0000
 40
1.4000
  0
INSERT
  8
51
  2
RECT
 10
41.9500
 20
5.9500
 30
0.0000
 41
0.5000
 42
0.7000
 43
1.0000
 50
0.0000
  0
INSERT
  8
51
  2
RECT
 10
41.9500
 20
1.4500
 30
0.0000
 41
0.5000
 42
0.7000
 43
1.0000
 50
0.0000
  0
INSERT
  8
51
  2
RECT
 10
48.4500
 20
1.4500
 30
0.0000
 41
0.5000
 42
0.7000
 43
1.0000
 50
0.0000
  0
INSERT
  8
51
  2
RECT
 10
48.4500
 20
5.9500
 30
0.0000
 41
0.5000
 42
0.7000
 43
1.0000
 50
0.0000
  0
ARC
  8
25
 10
42.5903
 20
7.1604
 30
0.0000
 40
0.2596
 50
270.0000
 51
0.0000
  0
ARC
  8
25
 10
42.5903
 20
7.4493
 30
0.0000
 40
0.5485
 50
224.7610
 51
269.9999
  0
ARC
  8
25
 10
42.4929
 20
7.8096
 30
0.0000
 40
0.2596
 50
89.9993
 51
180.0000
  0
ARC
  8
25
 10
42.4929
 20
7.5824
 30
0.0000
 40
0.4868
 50
53.1301
 51
89.9993
  0
ARC
  8
25
 10
42.4970
 20
7.8096
 30
0.0000
 40
0.2637
 50
179.9998
 51
239.4902
  0
ARC
  8
25
 10
42.5862
 20
7.1604
 30
0.0000
 40
0.2637
 50
0.0001
 51
59.4899
  0
LINE
  8
25
 10
42.7201
 20
7.3876
 30
0.0000
 11
42.3631
 21
7.5824
 31
0.0000
  0
LINE
  8
25
 10
43.2634
 20
8.0692
 30
0.0000
 11
43.5230
 21
6.9008
 31
0.0000
  0
LINE
  8
25
 10
43.5230
 20
6.9008
 30
0.0000
 11
43.7827
 21
7.6797
 31
0.0000
  0
LINE
  8
25
 10
43.7827
 20
7.6797
 30
0.0000
 11
44.0423
 21
6.9008
 31
0.0000
  0
LINE
  8
25
 10
44.0423
 20
6.9008
 30
0.0000
 11
44.3019
 21
8.0692
 31
0.0000
  0
LINE
  8
25
 10
44.7535
 20
6.9008
 30
0.0000
 11
45.1430
 21
6.9008
 31
0.0000
  0
ARC
  8
25
 10
45.1430
 20
7.1604
 30
0.0000
 40
0.2596
 50
270.0000
 51
0.0000
  0
LINE
  8
25
 10
45.4026
 20
7.1604
 30
0.0000
 11
45.4026
 21
7.2903
 31
0.0000
  0
ARC
  8
25
 10
45.1430
 20
7.2903
 30
0.0000
 40
0.2596
 50
0.0000
 51
90.0000
  0
LINE
  8
25
 10
45.1430
 20
7.5499
 30
0.0000
 11
44.7535
 21
7.5499
 31
0.0000
  0
LINE
  8
25
 10
44.7535
 20
7.5499
 30
0.0000
 11
44.7535
 21
8.0692
 31
0.0000
  0
LINE
  8
25
 10
44.7535
 20
8.0692
 30
0.0000
 11
45.4026
 21
8.0692
 31
0.0000
  0
LINE
  8
48
 10
54.7688
 20
27.9313
 30
0.0000
 11
54.7688
 21
31.1063
 31
0.0000
  0
LINE
  8
48
 10
54.7688
 20
31.1063
 30
0.0000
 11
54.7688
 21
34.2813
 31
0.0000
  0
LINE
  8
48
 10
54.7688
 20
34.2813
 30
0.0000
 11
54.7688
 21
37.4563
 31
0.0000
  0
LINE
  8
48
 10
54.7688
 20
37.4563
 30
0.0000
 11
54.7688
 21
40.6313
 31
0.0000
  0
LINE
  8
48
 10
54.7688
 20
40.6313
 30
0.0000
 11
54.7688
 21
43.8062
 31
0.0000
  0
LINE
  8
48
 10
54.7688
 20
43.8062
 30
0.0000
 11
23.0188
 21
43.8062
 31
0.0000
  0
LINE
  8
48
 10
23.0188
 20
43.8062
 30
0.0000
 11
0.1588
 21
43.8062
 31
0.0000
  0
LINE
  8
48
 10
0.1588
 20
43.8062
 30
0.0000
 11
0.1588
 21
37.4563
 31
0.0000
  0
LINE
  8
48
 10
0.1588
 20
37.4563
 30
0.0000
 11
0.1588
 21
34.2813
 31
0.0000
  0
LINE
  8
48
 10
0.1588
 20
34.2813
 30
0.0000
 11
0.1588
 21
31.1063
 31
0.0000
  0
LINE
  8
48
 10
0.1588
 20
31.1063
 30
0.0000
 11
0.1588
 21
27.9313
 31
0.0000
  0
LINE
  8
48
 10
0.1588
 20
27.9313
 30
0.0000
 11
54.7688
 21
27.9313
 31
0.0000
  0
LINE
  8
48
 10
0.1588
 20
31.1063
 30
0.0000
 11
36.9888
 21
31.1063
 31
0.0000
  0
LINE
  8
48
 10
36.9888
 20
31.1063
 30
0.0000
 11
54.7688
 21
31.1063
 31
0.0000
  0
LINE
  8
48
 10
0.1588
 20
34.2813
 30
0.0000
 11
36.9888
 21
34.2813
 31
0.0000
  0
LINE
  8
48
 10
36.9888
 20
34.2813
 30
0.0000
 11
54.7688
 21
34.2813
 31
0.0000
  0
LINE
  8
48
 10
0.1588
 20
37.4563
 30
0.0000
 11
23.0188
 21
37.4563
 31
0.0000
  0
LINE
  8
48
 10
23.0188
 20
37.4563
 30
0.0000
 11
36.9888
 21
37.4563
 31
0.0000
  0
LINE
  8
48
 10
36.9888
 20
37.4563
 30
0.0000
 11
54.7688
 21
37.4563
 31
0.0000
  0
LINE
  8
48
 10
23.0188
 20
43.8062
 30
0.0000
 11
23.0188
 21
40.6313
 31
0.0000
  0
LINE
  8
48
 10
23.0188
 20
40.6313
 30
0.0000
 11
23.0188
 21
37.4563
 31
0.0000
  0
LINE
  8
48
 10
23.0188
 20
40.6313
 30
0.0000
 11
36.9888
 21
40.6313
 31
0.0000
  0
LINE
  8
48
 10
36.9888
 20
40.6313
 30
0.0000
 11
54.7688
 21
40.6313
 31
0.0000
  0
LINE
  8
48
 10
36.9888
 20
40.6313
 30
0.0000
 11
36.9888
 21
37.4563
 31
0.0000
  0
LINE
  8
48
 10
36.9888
 20
34.2813
 30
0.0000
 11
36.9888
 21
31.1063
 31
0.0000
  0
LINE
  8
21
 10
1.5177
 20
28.8414
 30
0.0000
 11
1.5177
 21
30.1876
 31
0.0000
  0
LINE
  8
21
 10
1.5177
 20
30.1876
 30
0.0000
 11
1.8916
 21
30.1876
 31
0.0000
  0
ARC
  8
21
 10
1.8916
 20
29.9633
 30
0.0000
 40
0.2244
 50
0.0000
 51
90.0000
  0
LINE
  8
21
 10
2.1160
 20
29.9633
 30
0.0000
 11
2.1160
 21
29.5145
 31
0.0000
  0
ARC
  8
21
 10
1.8916
 20
29.5145
 30
0.0000
 40
0.2244
 50
270.0008
 51
0.0000
  0
LINE
  8
21
 10
1.8916
 20
29.2902
 30
0.0000
 11
1.5177
 21
29.2902
 31
0.0000
  0
LINE
  8
21
 10
2.7073
 20
30.6364
 30
0.0000
 11
2.7073
 21
29.5145
 31
0.0000
  0
ARC
  8
21
 10
2.9316
 20
29.5145
 30
0.0000
 40
0.2244
 50
180.0000
 51
270.0000
  0
LINE
  8
21
 10
4.0152
 20
29.8137
 30
0.0000
 11
3.6786
 21
29.8137
 31
0.0000
  0
ARC
  8
21
 10
3.6786
 20
29.5519
 30
0.0000
 40
0.2618
 50
90.0000
 51
270.0000
  0
LINE
  8
21
 10
3.6786
 20
29.2902
 30
0.0000
 11
4.0152
 21
29.2902
 31
0.0000
  0
LINE
  8
21
 10
4.0152
 20
29.2902
 30
0.0000
 11
4.0152
 21
29.9633
 31
0.0000
  0
ARC
  8
21
 10
3.7908
 20
29.9633
 30
0.0000
 40
0.2244
 50
0.0000
 51
90.0000
  0
LINE
  8
21
 10
3.7908
 20
30.1876
 30
0.0000
 11
3.4916
 21
30.1876
 31
0.0000
  0
LINE
  8
21
 10
5.1829
 20
29.2902
 30
0.0000
 11
4.8837
 21
29.2902
 31
0.0000
  0
ARC
  8
21
 10
4.8837
 20
29.5145
 30
0.0000
 40
0.2244
 50
180.0000
 51
270.0000
  0
LINE
  8
21
 10
4.6594
 20
29.5145
 30
0.0000
 11
4.6594
 21
29.9633
 31
0.0000
  0
ARC
  8
21
 10
4.8837
 20
29.9633
 30
0.0000
 40
0.2244
 50
89.9992
 51
180.0000
  0
LINE
  8
21
 10
4.8837
 20
30.1876
 30
0.0000
 11
5.1829
 21
30.1876
 31
0.0000
  0
LINE
  8
21
 10
6.3052
 20
29.2902
 30
0.0000
 11
5.9312
 21
29.2902
 31
0.0000
  0
ARC
  8
21
 10
5.9312
 20
29.5145
 30
0.0000
 40
0.2244
 50
180.0000
 51
270.0000
  0
LINE
  8
21
 10
5.7069
 20
29.5145
 30
0.0000
 11
5.7069
 21
29.8885
 31
0.0000
  0
ARC
  8
21
 10
6.0060
 20
29.8885
 30
0.0000
 40
0.2992
 50
0.0000
 51
180.0000
  0
LINE
  8
21
 10
6.3052
 20
29.8885
 30
0.0000
 11
6.3052
 21
29.7389
 31
0.0000
  0
LINE
  8
21
 10
6.3052
 20
29.7389
 30
0.0000
 11
5.7069
 21
29.7389
 31
0.0000
  0
LINE
  8
21
 10
6.9718
 20
29.2902
 30
0.0000
 11
6.9718
 21
30.1876
 31
0.0000
  0
LINE
  8
21
 10
6.9718
 20
30.1876
 30
0.0000
 11
7.6449
 21
30.1876
 31
0.0000
  0
ARC
  8
21
 10
7.6449
 20
29.9633
 30
0.0000
 40
0.2244
 50
0.0000
 51
90.0000
  0
LINE
  8
21
 10
7.8692
 20
29.9633
 30
0.0000
 11
7.8692
 21
29.2902
 31
0.0000
  0
LINE
  8
21
 10
7.4205
 20
29.2902
 30
0.0000
 11
7.4205
 21
30.1876
 31
0.0000
  0
LINE
  8
21
 10
9.1341
 20
29.2902
 30
0.0000
 11
8.7602
 21
29.2902
 31
0.0000
  0
ARC
  8
21
 10
8.7602
 20
29.5145
 30
0.0000
 40
0.2244
 50
180.0000
 51
270.0000
  0
LINE
  8
21
 10
8.5358
 20
29.5145
 30
0.0000
 11
8.5358
 21
29.8885
 31
0.0000
  0
ARC
  8
21
 10
8.8350
 20
29.8885
 30
0.0000
 40
0.2992
 50
0.0000
 51
180.0000
  0
LINE
  8
21
 10
9.1341
 20
29.8885
 30
0.0000
 11
9.1341
 21
29.7389
 31
0.0000
  0
LINE
  8
21
 10
9.1341
 20
29.7389
 30
0.0000
 11
8.5358
 21
29.7389
 31
0.0000
  0
LINE
  8
21
 10
9.7678
 20
29.2902
 30
0.0000
 11
9.7678
 21
30.1876
 31
0.0000
  0
LINE
  8
21
 10
9.7678
 20
30.1876
 30
0.0000
 11
10.1417
 21
30.1876
 31
0.0000
  0
ARC
  8
21
 10
10.1417
 20
29.9633
 30
0.0000
 40
0.2244
 50
0.0000
 51
90.0000
  0
LINE
  8
21
 10
10.3661
 20
29.9633
 30
0.0000
 11
10.3661
 21
29.2902
 31
0.0000
  0
LINE
  8
21
 10
10.8785
 20
30.1876
 30
0.0000
 11
11.3273
 21
30.1876
 31
0.0000
  0
LINE
  8
21
 10
11.0281
 20
30.6364
 30
0.0000
 11
11.0281
 21
29.5145
 31
0.0000
  0
ARC
  8
21
 10
11.2525
 20
29.5145
 30
0.0000
 40
0.2244
 50
180.0000
 51
270.0000
  0
LINE
  8
21
 10
11.2525
 20
29.2902
 30
0.0000
 11
11.3273
 21
29.2902
 31
0.0000
  0
LINE
  8
21
 10
13.1222
 20
29.2902
 30
0.0000
 11
12.8231
 21
29.2902
 31
0.0000
  0
ARC
  8
21
 10
12.8231
 20
29.5145
 30
0.0000
 40
0.2244
 50
180.0000
 51
270.0000
  0
LINE
  8
21
 10
12.5987
 20
29.5145
 30
0.0000
 11
12.5987
 21
29.9633
 31
0.0000
  0
ARC
  8
21
 10
12.8231
 20
29.9633
 30
0.0000
 40
0.2244
 50
89.9992
 51
180.0000
  0
LINE
  8
21
 10
12.8231
 20
30.1876
 30
0.0000
 11
13.1222
 21
30.1876
 31
0.0000
  0
LINE
  8
21
 10
13.6462
 20
29.5893
 30
0.0000
 11
13.6462
 21
29.8885
 31
0.0000
  0
ARC
  8
21
 10
13.9454
 20
29.8885
 30
0.0000
 40
0.2992
 50
0.0000
 51
180.0000
  0
LINE
  8
21
 10
14.2445
 20
29.8885
 30
0.0000
 11
14.2445
 21
29.5893
 31
0.0000
  0
ARC
  8
21
 10
13.9454
 20
29.5893
 30
0.0000
 40
0.2992
 50
180.0000
 51
0.0000
  0
LINE
  8
21
 10
14.9111
 20
29.2902
 30
0.0000
 11
14.9111
 21
30.1876
 31
0.0000
  0
LINE
  8
21
 10
14.9111
 20
30.1876
 30
0.0000
 11
15.5842
 21
30.1876
 31
0.0000
  0
ARC
  8
21
 10
15.5842
 20
29.9633
 30
0.0000
 40
0.2244
 50
0.0000
 51
90.0000
  0
LINE
  8
21
 10
15.8086
 20
29.9633
 30
0.0000
 11
15.8086
 21
29.2902
 31
0.0000
  0
LINE
  8
21
 10
15.3598
 20
29.2902
 30
0.0000
 11
15.3598
 21
30.1876
 31
0.0000
  0
LINE
  8
21
 10
16.5294
 20
28.8414
 30
0.0000
 11
16.5294
 21
30.1876
 31
0.0000
  0
LINE
  8
21
 10
16.5294
 20
30.1876
 30
0.0000
 11
16.9033
 21
30.1876
 31
0.0000
  0
ARC
  8
21
 10
16.9033
 20
29.9633
 30
0.0000
 40
0.2244
 50
0.0000
 51
90.0000
  0
LINE
  8
21
 10
17.1277
 20
29.9633
 30
0.0000
 11
17.1277
 21
29.5145
 31
0.0000
  0
ARC
  8
21
 10
16.9033
 20
29.5145
 30
0.0000
 40
0.2244
 50
270.0008
 51
0.0000
  0
LINE
  8
21
 10
16.9033
 20
29.2902
 30
0.0000
 11
16.5294
 21
29.2902
 31
0.0000
  0
LINE
  8
21
 10
17.7071
 20
29.5893
 30
0.0000
 11
17.7071
 21
29.8885
 31
0.0000
  0
ARC
  8
21
 10
18.0063
 20
29.8885
 30
0.0000
 40
0.2992
 50
0.0000
 51
180.0000
  0
LINE
  8
21
 10
18.3054
 20
29.8885
 30
0.0000
 11
18.3054
 21
29.5893
 31
0.0000
  0
ARC
  8
21
 10
18.0063
 20
29.5893
 30
0.0000
 40
0.2992
 50
180.0000
 51
0.0000
  0
LINE
  8
21
 10
18.9391
 20
29.2902
 30
0.0000
 11
18.9391
 21
30.1876
 31
0.0000
  0
LINE
  8
21
 10
18.9391
 20
30.1876
 30
0.0000
 11
19.3130
 21
30.1876
 31
0.0000
  0
ARC
  8
21
 10
19.3130
 20
29.9633
 30
0.0000
 40
0.2244
 50
0.0000
 51
90.0000
  0
LINE
  8
21
 10
19.5374
 20
29.9633
 30
0.0000
 11
19.5374
 21
29.2902
 31
0.0000
  0
LINE
  8
21
 10
20.7694
 20
29.2902
 30
0.0000
 11
20.3954
 21
29.2902
 31
0.0000
  0
ARC
  8
21
 10
20.3954
 20
29.5145
 30
0.0000
 40
0.2244
 50
180.0000
 51
270.0000
  0
LINE
  8
21
 10
20.1711
 20
29.5145
 30
0.0000
 11
20.1711
 21
29.8885
 31
0.0000
  0
ARC
  8
21
 10
20.4702
 20
29.8885
 30
0.0000
 40
0.2992
 50
0.0000
 51
180.0000
  0
LINE
  8
21
 10
20.7694
 20
29.8885
 30
0.0000
 11
20.7694
 21
29.7389
 31
0.0000
  0
LINE
  8
21
 10
20.7694
 20
29.7389
 30
0.0000
 11
20.1711
 21
29.7389
 31
0.0000
  0
LINE
  8
21
 10
21.4030
 20
29.2902
 30
0.0000
 11
21.4030
 21
30.1876
 31
0.0000
  0
LINE
  8
21
 10
21.4030
 20
30.1876
 30
0.0000
 11
21.7770
 21
30.1876
 31
0.0000
  0
ARC
  8
21
 10
21.7770
 20
29.9633
 30
0.0000
 40
0.2244
 50
0.0000
 51
90.0000
  0
LINE
  8
21
 10
22.0014
 20
29.9633
 30
0.0000
 11
22.0014
 21
29.2902
 31
0.0000
  0
LINE
  8
21
 10
22.5138
 20
30.1876
 30
0.0000
 11
22.9625
 21
30.1876
 31
0.0000
  0
LINE
  8
21
 10
22.6634
 20
30.6364
 30
0.0000
 11
22.6634
 21
29.5145
 31
0.0000
  0
ARC
  8
21
 10
22.8877
 20
29.5145
 30
0.0000
 40
0.2244
 50
180.0000
 51
270.0000
  0
LINE
  8
21
 10
22.8877
 20
29.2902
 30
0.0000
 11
22.9625
 21
29.2902
 31
0.0000
  0
LINE
  8
21
 10
24.7181
 20
29.6641
 30
0.0000
 11
24.3442
 21
29.8137
 31
0.0000
  0
ARC
  8
21
 10
24.4162
 20
29.9937
 30
0.0000
 40
0.1939
 50
89.1810
 51
248.1986
  0
ARC
  8
21
 10
24.4068
 20
29.3384
 30
0.0000
 40
0.8493
 50
65.7609
 51
89.1810
  0
ARC
  8
21
 10
24.6461
 20
29.4840
 30
0.0000
 40
0.1939
 50
269.1810
 51
68.1986
  0
ARC
  8
21
 10
24.6615
 20
30.5585
 30
0.0000
 40
1.2684
 50
250.2096
 51
269.1810
  0
LINE
  8
21
 10
25.3981
 20
29.2902
 30
0.0000
 11
25.3981
 21
30.1876
 31
0.0000
  0
LINE
  8
21
 10
25.3607
 20
30.5616
 30
0.0000
 11
25.3607
 21
30.6364
 31
0.0000
  0
LINE
  8
21
 10
25.3607
 20
30.6364
 30
0.0000
 11
25.4355
 21
30.6364
 31
0.0000
  0
LINE
  8
21
 10
25.4355
 20
30.6364
 30
0.0000
 11
25.4355
 21
30.5616
 31
0.0000
  0
LINE
  8
21
 10
25.4355
 20
30.5616
 30
0.0000
 11
25.3607
 21
30.5616
 31
0.0000
  0
LINE
  8
21
 10
26.5556
 20
30.6364
 30
0.0000
 11
26.5556
 21
29.2902
 31
0.0000
  0
LINE
  8
21
 10
26.5556
 20
29.2902
 30
0.0000
 11
26.1816
 21
29.2902
 31
0.0000
  0
ARC
  8
21
 10
26.1816
 20
29.5145
 30
0.0000
 40
0.2244
 50
180.0000
 51
270.0000
  0
LINE
  8
21
 10
25.9573
 20
29.5145
 30
0.0000
 11
25.9573
 21
29.9633
 31
0.0000
  0
ARC
  8
21
 10
26.1816
 20
29.9633
 30
0.0000
 40
0.2244
 50
89.9992
 51
180.0000
  0
LINE
  8
21
 10
26.1816
 20
30.1876
 30
0.0000
 11
26.5556
 21
30.1876
 31
0.0000
  0
LINE
  8
21
 10
27.7962
 20
29.2902
 30
0.0000
 11
27.4222
 21
29.2902
 31
0.0000
  0
ARC
  8
21
 10
27.4222
 20
29.5145
 30
0.0000
 40
0.2244
 50
180.0000
 51
270.0000
  0
LINE
  8
21
 10
27.1978
 20
29.5145
 30
0.0000
 11
27.1978
 21
29.8885
 31
0.0000
  0
ARC
  8
21
 10
27.4970
 20
29.8885
 30
0.0000
 40
0.2992
 50
0.0000
 51
180.0000
  0
LINE
  8
21
 10
27.7962
 20
29.8885
 30
0.0000
 11
27.7962
 21
29.7389
 31
0.0000
  0
LINE
  8
21
 10
27.7962
 20
29.7389
 30
0.0000
 11
27.1978
 21
29.7389
 31
0.0000
  0
LINE
  8
48
 10
24.3904
 20
41.3679
 30
0.0000
 11
24.3904
 21
42.8411
 31
0.0000
  0
LINE
  8
48
 10
24.3904
 20
42.8411
 30
0.0000
 11
24.7996
 21
42.8411
 31
0.0000
  0
ARC
  8
48
 10
24.7996
 20
42.4318
 30
0.0000
 40
0.4092
 50
359.9996
 51
90.0000
  0
LINE
  8
48
 10
25.2088
 20
42.4318
 30
0.0000
 11
25.2088
 21
41.7771
 31
0.0000
  0
ARC
  8
48
 10
24.7996
 20
41.7771
 30
0.0000
 40
0.4092
 50
270.0004
 51
360.0000
  0
LINE
  8
48
 10
24.7996
 20
41.3679
 30
0.0000
 11
24.3904
 21
41.3679
 31
0.0000
  0
LINE
  8
48
 10
25.9092
 20
41.6952
 30
0.0000
 11
25.9092
 21
42.0226
 31
0.0000
  0
ARC
  8
48
 10
26.2366
 20
42.0226
 30
0.0000
 40
0.3274
 50
0.0000
 51
180.0000
  0
LINE
  8
48
 10
26.5640
 20
42.0226
 30
0.0000
 11
26.5640
 21
41.6952
 31
0.0000
  0
ARC
  8
48
 10
26.2366
 20
41.6952
 30
0.0000
 40
0.3274
 50
180.0000
 51
0.0000
  0
LINE
  8
48
 10
27.7726
 20
41.3679
 30
0.0000
 11
27.4452
 21
41.3679
 31
0.0000
  0
ARC
  8
48
 10
27.4452
 20
41.6134
 30
0.0000
 40
0.2455
 50
180.0000
 51
270.0000
  0
LINE
  8
48
 10
27.1997
 20
41.6134
 30
0.0000
 11
27.1997
 21
42.1044
 31
0.0000
  0
ARC
  8
48
 10
27.4452
 20
42.1044
 30
0.0000
 40
0.2455
 50
90.0000
 51
180.0000
  0
LINE
  8
48
 10
27.4452
 20
42.3500
 30
0.0000
 11
27.7726
 21
42.3500
 31
0.0000
  0
LINE
  8
48
 10
28.2769
 20
41.3679
 30
0.0000
 11
28.2769
 21
41.4497
 31
0.0000
  0
LINE
  8
48
 10
28.2769
 20
41.4497
 30
0.0000
 11
28.3587
 21
41.4497
 31
0.0000
  0
LINE
  8
48
 10
28.3587
 20
41.4497
 30
0.0000
 11
28.3587
 21
41.3679
 31
0.0000
  0
LINE
  8
48
 10
28.3587
 20
41.3679
 30
0.0000
 11
28.2769
 21
41.3679
 31
0.0000
  0
LINE
  8
48
 10
28.9664
 20
41.9408
 30
0.0000
 11
29.9486
 21
41.9408
 31
0.0000
  0
LINE
  8
48
 10
30.6835
 20
41.3679
 30
0.0000
 11
30.6835
 21
42.8411
 31
0.0000
  0
LINE
  8
48
 10
30.6835
 20
42.8411
 30
0.0000
 11
31.5020
 21
41.3679
 31
0.0000
  0
LINE
  8
48
 10
31.5020
 20
41.3679
 30
0.0000
 11
31.5020
 21
42.8411
 31
0.0000
  0
LINE
  8
48
 10
32.2024
 20
41.6952
 30
0.0000
 11
32.2024
 21
42.0226
 31
0.0000
  0
ARC
  8
48
 10
32.5298
 20
42.0226
 30
0.0000
 40
0.3274
 50
0.0000
 51
180.0000
  0
LINE
  8
48
 10
32.8571
 20
42.0226
 30
0.0000
 11
32.8571
 21
41.6952
 31
0.0000
  0
ARC
  8
48
 10
32.5298
 20
41.6952
 30
0.0000
 40
0.3274
 50
180.0000
 51
0.0000
  0
LINE
  8
48
 10
33.4303
 20
41.3679
 30
0.0000
 11
33.4303
 21
41.4497
 31
0.0000
  0
LINE
  8
48
 10
33.4303
 20
41.4497
 30
0.0000
 11
33.5122
 21
41.4497
 31
0.0000
  0
LINE
  8
48
 10
33.5122
 20
41.4497
 30
0.0000
 11
33.5122
 21
41.3679
 31
0.0000
  0
LINE
  8
48
 10
33.5122
 20
41.3679
 30
0.0000
 11
33.4303
 21
41.3679
 31
0.0000
  0
LINE
  8
48
 10
34.0745
 20
41.4906
 30
0.0000
 11
34.0745
 21
41.5725
 31
0.0000
  0
LINE
  8
48
 10
34.0745
 20
41.5725
 30
0.0000
 11
34.1564
 21
41.5725
 31
0.0000
  0
LINE
  8
48
 10
34.1564
 20
41.5725
 30
0.0000
 11
34.1564
 21
41.4906
 31
0.0000
  0
LINE
  8
48
 10
34.1564
 20
41.4906
 30
0.0000
 11
34.0745
 21
41.4906
 31
0.0000
  0
LINE
  8
48
 10
34.0745
 20
42.1454
 30
0.0000
 11
34.0745
 21
42.2272
 31
0.0000
  0
LINE
  8
48
 10
34.0745
 20
42.2272
 30
0.0000
 11
34.1564
 21
42.2272
 31
0.0000
  0
LINE
  8
48
 10
34.1564
 20
42.2272
 30
0.0000
 11
34.1564
 21
42.1454
 31
0.0000
  0
LINE
  8
48
 10
34.1564
 20
42.1454
 30
0.0000
 11
34.0745
 21
42.1454
 31
0.0000
  0
LINE
  8
48
 10
38.3604
 20
31.8429
 30
0.0000
 11
38.3604
 21
33.3161
 31
0.0000
  0
LINE
  8
48
 10
38.3604
 20
33.3161
 30
0.0000
 11
38.7696
 21
33.3161
 31
0.0000
  0
ARC
  8
48
 10
38.7696
 20
32.9068
 30
0.0000
 40
0.4092
 50
270.0000
 51
90.0000
  0
LINE
  8
48
 10
38.7696
 20
32.4976
 30
0.0000
 11
38.3604
 21
32.4976
 31
0.0000
  0
LINE
  8
48
 10
39.1788
 20
31.8429
 30
0.0000
 11
38.8514
 21
32.4976
 31
0.0000
  0
LINE
  8
48
 10
40.4731
 20
31.8429
 30
0.0000
 11
40.0639
 21
31.8429
 31
0.0000
  0
ARC
  8
48
 10
40.0639
 20
32.0884
 30
0.0000
 40
0.2455
 50
180.0000
 51
270.0000
  0
LINE
  8
48
 10
39.8183
 20
32.0884
 30
0.0000
 11
39.8183
 21
32.4976
 31
0.0000
  0
ARC
  8
48
 10
40.1457
 20
32.4976
 30
0.0000
 40
0.3274
 50
0.0000
 51
180.0000
  0
LINE
  8
48
 10
40.4731
 20
32.4976
 30
0.0000
 11
40.4731
 21
32.3339
 31
0.0000
  0
LINE
  8
48
 10
40.4731
 20
32.3339
 30
0.0000
 11
39.8183
 21
32.3339
 31
0.0000
  0
LINE
  8
48
 10
41.0572
 20
32.8250
 30
0.0000
 11
41.3845
 21
31.8429
 31
0.0000
  0
LINE
  8
48
 10
41.3845
 20
31.8429
 30
0.0000
 11
41.7119
 21
32.8250
 31
0.0000
  0
LINE
  8
48
 10
42.2356
 20
31.8429
 30
0.0000
 11
42.2356
 21
31.9247
 31
0.0000
  0
LINE
  8
48
 10
42.2356
 20
31.9247
 30
0.0000
 11
42.3174
 21
31.9247
 31
0.0000
  0
LINE
  8
48
 10
42.3174
 20
31.9247
 30
0.0000
 11
42.3174
 21
31.8429
 31
0.0000
  0
LINE
  8
48
 10
42.3174
 20
31.8429
 30
0.0000
 11
42.2356
 21
31.8429
 31
0.0000
  0
LINE
  8
48
 10
42.8797
 20
31.9656
 30
0.0000
 11
42.8797
 21
32.0475
 31
0.0000
  0
LINE
  8
48
 10
42.8797
 20
32.0475
 30
0.0000
 11
42.9616
 21
32.0475
 31
0.0000
  0
LINE
  8
48
 10
42.9616
 20
32.0475
 30
0.0000
 11
42.9616
 21
31.9656
 31
0.0000
  0
LINE
  8
48
 10
42.9616
 20
31.9656
 30
0.0000
 11
42.8797
 21
31.9656
 31
0.0000
  0
LINE
  8
48
 10
42.8797
 20
32.6204
 30
0.0000
 11
42.8797
 21
32.7022
 31
0.0000
  0
LINE
  8
48
 10
42.8797
 20
32.7022
 30
0.0000
 11
42.9616
 21
32.7022
 31
0.0000
  0
LINE
  8
48
 10
42.9616
 20
32.7022
 30
0.0000
 11
42.9616
 21
32.6204
 31
0.0000
  0
LINE
  8
48
 10
42.9616
 20
32.6204
 30
0.0000
 11
42.8797
 21
32.6204
 31
0.0000
  0
LINE
  8
48
 10
39.0151
 20
38.1928
 30
0.0000
 11
38.6877
 21
38.1928
 31
0.0000
  0
ARC
  8
48
 10
38.6877
 20
38.5202
 30
0.0000
 40
0.3274
 50
180.0000
 51
270.0000
  0
LINE
  8
48
 10
38.3604
 20
38.5202
 30
0.0000
 11
38.3604
 21
39.3387
 31
0.0000
  0
ARC
  8
48
 10
38.6877
 20
39.3387
 30
0.0000
 40
0.3274
 50
90.0005
 51
180.0000
  0
LINE
  8
48
 10
38.6877
 20
39.6660
 30
0.0000
 11
39.0151
 21
39.6660
 31
0.0000
  0
LINE
  8
48
 10
39.6364
 20
39.1750
 30
0.0000
 11
39.6364
 21
38.4384
 31
0.0000
  0
ARC
  8
48
 10
39.8820
 20
38.4384
 30
0.0000
 40
0.2455
 50
180.0000
 51
270.0000
  0
LINE
  8
48
 10
39.8820
 20
38.1928
 30
0.0000
 11
40.2912
 21
38.1928
 31
0.0000
  0
LINE
  8
48
 10
40.2912
 20
38.1928
 30
0.0000
 11
40.2912
 21
39.1750
 31
0.0000
  0
LINE
  8
48
 10
41.0089
 20
38.7658
 30
0.0000
 11
41.9910
 21
38.7658
 31
0.0000
  0
LINE
  8
48
 10
42.7296
 20
39.6660
 30
0.0000
 11
42.7296
 21
38.1928
 31
0.0000
  0
LINE
  8
48
 10
42.7296
 20
38.1928
 30
0.0000
 11
43.3843
 21
38.1928
 31
0.0000
  0
LINE
  8
48
 10
44.5932
 20
38.7658
 30
0.0000
 11
44.2249
 21
38.7658
 31
0.0000
  0
ARC
  8
48
 10
44.2249
 20
38.4793
 30
0.0000
 40
0.2865
 50
90.0000
 51
270.0000
  0
LINE
  8
48
 10
44.2249
 20
38.1928
 30
0.0000
 11
44.5932
 21
38.1928
 31
0.0000
  0
LINE
  8
48
 10
44.5932
 20
38.1928
 30
0.0000
 11
44.5932
 21
38.9295
 31
0.0000
  0
ARC
  8
48
 10
44.3477
 20
38.9295
 30
0.0000
 40
0.2455
 50
0.0000
 51
90.0000
  0
LINE
  8
48
 10
44.3477
 20
39.1750
 30
0.0000
 11
44.0203
 21
39.1750
 31
0.0000
  0
LINE
  8
48
 10
45.2359
 20
37.7018
 30
0.0000
 11
45.3996
 21
37.7018
 31
0.0000
  0
LINE
  8
48
 10
45.3996
 20
37.7018
 30
0.0000
 11
45.8906
 21
39.1750
 31
0.0000
  0
LINE
  8
48
 10
45.2359
 20
39.1750
 30
0.0000
 11
45.5632
 21
38.1928
 31
0.0000
  0
LINE
  8
48
 10
47.1294
 20
38.1928
 30
0.0000
 11
46.7202
 21
38.1928
 31
0.0000
  0
ARC
  8
48
 10
46.7202
 20
38.4384
 30
0.0000
 40
0.2455
 50
180.0000
 51
270.0000
  0
LINE
  8
48
 10
46.4747
 20
38.4384
 30
0.0000
 11
46.4747
 21
38.8476
 31
0.0000
  0
ARC
  8
48
 10
46.8021
 20
38.8476
 30
0.0000
 40
0.3274
 50
0.0000
 51
180.0000
  0
LINE
  8
48
 10
47.1294
 20
38.8476
 30
0.0000
 11
47.1294
 21
38.6839
 31
0.0000
  0
LINE
  8
48
 10
47.1294
 20
38.6839
 30
0.0000
 11
46.4747
 21
38.6839
 31
0.0000
  0
LINE
  8
48
 10
47.8230
 20
38.1928
 30
0.0000
 11
47.8230
 21
39.1750
 31
0.0000
  0
LINE
  8
48
 10
47.8230
 20
39.1750
 30
0.0000
 11
48.3141
 21
39.1750
 31
0.0000
  0
LINE
  8
48
 10
48.3141
 20
39.1750
 30
0.0000
 11
48.3141
 21
39.0113
 31
0.0000
  0
LINE
  8
48
 10
49.3356
 20
38.6021
 30
0.0000
 11
48.9264
 21
38.7658
 31
0.0000
  0
ARC
  8
48
 10
49.0052
 20
38.9628
 30
0.0000
 40
0.2122
 50
89.1816
 51
248.1986
  0
ARC
  8
48
 10
48.9950
 20
38.2456
 30
0.0000
 40
0.9294
 50
65.7610
 51
89.1816
  0
ARC
  8
48
 10
49.2568
 20
38.4050
 30
0.0000
 40
0.2122
 50
269.1816
 51
68.1989
  0
ARC
  8
48
 10
49.2736
 20
39.5807
 30
0.0000
 40
1.3880
 50
250.2089
 51
269.1815
  0
LINE
  8
48
 10
50.0812
 20
38.3156
 30
0.0000
 11
50.0812
 21
38.3975
 31
0.0000
  0
LINE
  8
48
 10
50.0812
 20
38.3975
 30
0.0000
 11
50.1630
 21
38.3975
 31
0.0000
  0
LINE
  8
48
 10
50.1630
 20
38.3975
 30
0.0000
 11
50.1630
 21
38.3156
 31
0.0000
  0
LINE
  8
48
 10
50.1630
 20
38.3156
 30
0.0000
 11
50.0812
 21
38.3156
 31
0.0000
  0
LINE
  8
48
 10
50.0812
 20
38.9704
 30
0.0000
 11
50.0812
 21
39.0522
 31
0.0000
  0
LINE
  8
48
 10
50.0812
 20
39.0522
 30
0.0000
 11
50.1630
 21
39.0522
 31
0.0000
  0
LINE
  8
48
 10
50.1630
 20
39.0522
 30
0.0000
 11
50.1630
 21
38.9704
 31
0.0000
  0
LINE
  8
48
 10
50.1630
 20
38.9704
 30
0.0000
 11
50.0812
 21
38.9704
 31
0.0000
  0
LINE
  8
48
 10
25.0451
 20
38.1928
 30
0.0000
 11
24.7177
 21
38.1928
 31
0.0000
  0
ARC
  8
48
 10
24.7177
 20
38.5202
 30
0.0000
 40
0.3274
 50
180.0000
 51
270.0000
  0
LINE
  8
48
 10
24.3904
 20
38.5202
 30
0.0000
 11
24.3904
 21
39.3387
 31
0.0000
  0
ARC
  8
48
 10
24.7177
 20
39.3387
 30
0.0000
 40
0.3274
 50
90.0005
 51
180.0000
  0
LINE
  8
48
 10
24.7177
 20
39.6660
 30
0.0000
 11
25.0451
 21
39.6660
 31
0.0000
  0
LINE
  8
48
 10
25.6664
 20
39.1750
 30
0.0000
 11
25.6664
 21
38.4384
 31
0.0000
  0
ARC
  8
48
 10
25.9120
 20
38.4384
 30
0.0000
 40
0.2455
 50
180.0000
 51
270.0000
  0
LINE
  8
48
 10
25.9120
 20
38.1928
 30
0.0000
 11
26.3212
 21
38.1928
 31
0.0000
  0
LINE
  8
48
 10
26.3212
 20
38.1928
 30
0.0000
 11
26.3212
 21
39.1750
 31
0.0000
  0
LINE
  8
48
 10
26.9935
 20
38.3156
 30
0.0000
 11
26.9935
 21
38.3975
 31
0.0000
  0
LINE
  8
48
 10
26.9935
 20
38.3975
 30
0.0000
 11
27.0753
 21
38.3975
 31
0.0000
  0
LINE
  8
48
 10
27.0753
 20
38.3975
 30
0.0000
 11
27.0753
 21
38.3156
 31
0.0000
  0
LINE
  8
48
 10
27.0753
 20
38.3156
 30
0.0000
 11
26.9935
 21
38.3156
 31
0.0000
  0
LINE
  8
48
 10
26.9935
 20
38.9704
 30
0.0000
 11
26.9935
 21
39.0522
 31
0.0000
  0
LINE
  8
48
 10
26.9935
 20
39.0522
 30
0.0000
 11
27.0753
 21
39.0522
 31
0.0000
  0
LINE
  8
48
 10
27.0753
 20
39.0522
 30
0.0000
 11
27.0753
 21
38.9704
 31
0.0000
  0
LINE
  8
48
 10
27.0753
 20
38.9704
 30
0.0000
 11
26.9935
 21
38.9704
 31
0.0000
  0
LINE
  8
48
 10
1.5304
 20
35.0179
 30
0.0000
 11
1.5304
 21
36.4911
 31
0.0000
  0
LINE
  8
48
 10
1.5304
 20
36.4911
 30
0.0000
 11
1.9396
 21
36.4911
 31
0.0000
  0
ARC
  8
48
 10
1.9396
 20
36.0818
 30
0.0000
 40
0.4092
 50
270.0000
 51
90.0000
  0
LINE
  8
48
 10
1.9396
 20
35.6726
 30
0.0000
 11
1.5304
 21
35.6726
 31
0.0000
  0
LINE
  8
48
 10
2.9045
 20
35.0179
 30
0.0000
 11
2.9045
 21
36.0000
 31
0.0000
  0
LINE
  8
48
 10
2.8636
 20
36.4092
 30
0.0000
 11
2.8636
 21
36.4911
 31
0.0000
  0
LINE
  8
48
 10
2.8636
 20
36.4911
 30
0.0000
 11
2.9455
 21
36.4911
 31
0.0000
  0
LINE
  8
48
 10
2.9455
 20
36.4911
 30
0.0000
 11
2.9455
 21
36.4092
 31
0.0000
  0
LINE
  8
48
 10
2.9455
 20
36.4092
 30
0.0000
 11
2.8636
 21
36.4092
 31
0.0000
  0
LINE
  8
48
 10
3.5359
 20
36.1637
 30
0.0000
 11
3.9451
 21
36.4911
 31
0.0000
  0
LINE
  8
48
 10
3.9451
 20
36.4911
 30
0.0000
 11
3.9451
 21
35.0179
 31
0.0000
  0
LINE
  8
48
 10
3.5359
 20
35.0179
 30
0.0000
 11
4.3544
 21
35.0179
 31
0.0000
  0
LINE
  8
48
 10
5.0225
 20
35.0179
 30
0.0000
 11
5.5136
 21
35.0179
 31
0.0000
  0
ARC
  8
48
 10
5.5136
 20
35.3452
 30
0.0000
 40
0.3274
 50
270.0000
 51
359.9995
  0
LINE
  8
48
 10
5.8409
 20
35.3452
 30
0.0000
 11
5.8409
 21
35.5089
 31
0.0000
  0
ARC
  8
48
 10
5.5136
 20
35.5089
 30
0.0000
 40
0.3274
 50
0.0000
 51
90.0000
  0
LINE
  8
48
 10
5.5136
 20
35.8363
 30
0.0000
 11
5.0225
 21
35.8363
 31
0.0000
  0
LINE
  8
48
 10
5.0225
 20
35.8363
 30
0.0000
 11
5.0225
 21
36.4911
 31
0.0000
  0
LINE
  8
48
 10
5.0225
 20
36.4911
 30
0.0000
 11
5.8409
 21
36.4911
 31
0.0000
  0
LINE
  8
48
 10
6.8364
 20
36.4911
 30
0.0000
 11
6.5091
 21
35.3452
 31
0.0000
  0
LINE
  8
48
 10
6.5091
 20
35.3452
 30
0.0000
 11
7.3275
 21
35.3452
 31
0.0000
  0
LINE
  8
48
 10
7.0820
 20
35.6726
 30
0.0000
 11
7.0820
 21
35.0179
 31
0.0000
  0
LINE
  8
48
 10
7.9956
 20
36.1637
 30
0.0000
 11
8.4049
 21
36.4911
 31
0.0000
  0
LINE
  8
48
 10
8.4049
 20
36.4911
 30
0.0000
 11
8.4049
 21
35.0179
 31
0.0000
  0
LINE
  8
48
 10
7.9956
 20
35.0179
 30
0.0000
 11
8.8141
 21
35.0179
 31
0.0000
  0
LINE
  8
48
 10
9.4154
 20
34.8542
 30
0.0000
 11
10.0702
 21
34.8542
 31
0.0000
  0
ARC
  8
48
 10
11.1130
 20
35.3452
 30
0.0000
 40
0.3274
 50
270.0000
 51
0.0000
  0
ARC
  8
48
 10
11.1130
 20
35.7094
 30
0.0000
 40
0.6916
 50
224.7606
 51
269.9999
  0
ARC
  8
48
 10
10.9902
 20
36.1637
 30
0.0000
 40
0.3274
 50
89.9995
 51
180.0000
  0
ARC
  8
48
 10
10.9902
 20
35.8772
 30
0.0000
 40
0.6138
 50
53.1301
 51
89.9994
  0
ARC
  8
48
 10
10.9953
 20
36.1637
 30
0.0000
 40
0.3325
 50
180.0001
 51
239.4891
  0
ARC
  8
48
 10
11.1079
 20
35.3452
 30
0.0000
 40
0.3325
 50
0.0001
 51
59.4901
  0
LINE
  8
48
 10
11.2767
 20
35.6317
 30
0.0000
 11
10.8265
 21
35.8772
 31
0.0000
  0
LINE
  8
48
 10
12.0267
 20
36.0000
 30
0.0000
 11
12.2722
 21
35.0179
 31
0.0000
  0
LINE
  8
48
 10
12.2722
 20
35.0179
 30
0.0000
 11
12.5177
 21
35.6726
 31
0.0000
  0
LINE
  8
48
 10
12.5177
 20
35.6726
 30
0.0000
 11
12.7633
 21
35.0179
 31
0.0000
  0
LINE
  8
48
 10
12.7633
 20
35.0179
 30
0.0000
 11
13.0088
 21
36.0000
 31
0.0000
  0
LINE
  8
48
 10
13.6079
 20
35.0179
 30
0.0000
 11
13.6079
 21
36.0000
 31
0.0000
  0
LINE
  8
48
 10
13.5670
 20
36.4092
 30
0.0000
 11
13.5670
 21
36.4911
 31
0.0000
  0
LINE
  8
48
 10
13.5670
 20
36.4911
 30
0.0000
 11
13.6488
 21
36.4911
 31
0.0000
  0
LINE
  8
48
 10
13.6488
 20
36.4911
 30
0.0000
 11
13.6488
 21
36.4092
 31
0.0000
  0
LINE
  8
48
 10
13.6488
 20
36.4092
 30
0.0000
 11
13.5670
 21
36.4092
 31
0.0000
  0
LINE
  8
48
 10
14.0913
 20
36.0000
 30
0.0000
 11
14.5824
 21
36.0000
 31
0.0000
  0
LINE
  8
48
 10
14.2550
 20
36.4911
 30
0.0000
 11
14.2550
 21
35.2634
 31
0.0000
  0
ARC
  8
48
 10
14.5005
 20
35.2634
 30
0.0000
 40
0.2455
 50
180.0000
 51
270.0007
  0
LINE
  8
48
 10
14.5005
 20
35.0179
 30
0.0000
 11
14.5824
 21
35.0179
 31
0.0000
  0
LINE
  8
48
 10
15.7385
 20
35.0179
 30
0.0000
 11
15.4112
 21
35.0179
 31
0.0000
  0
ARC
  8
48
 10
15.4112
 20
35.2634
 30
0.0000
 40
0.2455
 50
180.0000
 51
270.0000
  0
LINE
  8
48
 10
15.1656
 20
35.2634
 30
0.0000
 11
15.1656
 21
35.7544
 31
0.0000
  0
ARC
  8
48
 10
15.4112
 20
35.7544
 30
0.0000
 40
0.2455
 50
90.0000
 51
180.0000
  0
LINE
  8
48
 10
15.4112
 20
36.0000
 30
0.0000
 11
15.7385
 21
36.0000
 31
0.0000
  0
LINE
  8
48
 10
16.3528
 20
35.0179
 30
0.0000
 11
16.3528
 21
36.4911
 31
0.0000
  0
LINE
  8
48
 10
16.3528
 20
36.0000
 30
0.0000
 11
16.7620
 21
36.0000
 31
0.0000
  0
ARC
  8
48
 10
16.7620
 20
35.7544
 30
0.0000
 40
0.2455
 50
0.0000
 51
90.0000
  0
LINE
  8
48
 10
17.0075
 20
35.7544
 30
0.0000
 11
17.0075
 21
35.0179
 31
0.0000
  0
LINE
  8
48
 10
1.5304
 20
31.8429
 30
0.0000
 11
1.9396
 21
31.8429
 31
0.0000
  0
ARC
  8
48
 10
1.9396
 20
32.2521
 30
0.0000
 40
0.4092
 50
270.0000
 51
90.0000
  0
LINE
  8
48
 10
1.5304
 20
33.3161
 30
0.0000
 11
2.0214
 21
33.3161
 31
0.0000
  0
ARC
  8
48
 10
2.0214
 20
32.9887
 30
0.0000
 40
0.3274
 50
270.0000
 51
90.0000
  0
LINE
  8
48
 10
2.0214
 20
32.6613
 30
0.0000
 11
1.6940
 21
32.6613
 31
0.0000
  0
ARC
  8
48
 10
4.2310
 20
32.5795
 30
0.0000
 40
1.2140
 50
154.0109
 51
180.0000
  0
ARC
  8
48
 10
3.4261
 20
33.0132
 30
0.0000
 40
0.3028
 50
90.0000
 51
161.0756
  0
ARC
  8
48
 10
3.4261
 20
33.0132
 30
0.0000
 40
0.3028
 50
18.9237
 51
90.0001
  0
ARC
  8
48
 10
2.6214
 20
32.5795
 30
0.0000
 40
1.2140
 50
360.0000
 51
25.9897
  0
ARC
  8
48
 10
4.2310
 20
32.5795
 30
0.0000
 40
1.2140
 50
180.0000
 51
205.9889
  0
ARC
  8
48
 10
3.4261
 20
32.1457
 30
0.0000
 40
0.3028
 50
198.9251
 51
270.0001
  0
ARC
  8
48
 10
2.6213
 20
32.5795
 30
0.0000
 40
1.2140
 50
334.0105
 51
359.9999
  0
ARC
  8
48
 10
3.4261
 20
32.1457
 30
0.0000
 40
0.3028
 50
270.0000
 51
341.0759
  0
LINE
  8
48
 10
3.0988
 20
32.1702
 30
0.0000
 11
3.7535
 21
32.9887
 31
0.0000
  0
LINE
  8
48
 10
4.4258
 20
31.8429
 30
0.0000
 11
4.4258
 21
31.9247
 31
0.0000
  0
LINE
  8
48
 10
4.4258
 20
31.9247
 30
0.0000
 11
4.5077
 21
31.9247
 31
0.0000
  0
LINE
  8
48
 10
4.5077
 20
31.9247
 30
0.0000
 11
4.5077
 21
31.8429
 31
0.0000
  0
LINE
  8
48
 10
4.5077
 20
31.8429
 30
0.0000
 11
4.4258
 21
31.8429
 31
0.0000
  0
LINE
  8
48
 10
5.0981
 20
32.9887
 30
0.0000
 11
5.5073
 21
33.3161
 31
0.0000
  0
LINE
  8
48
 10
5.5073
 20
33.3161
 30
0.0000
 11
5.5073
 21
31.8429
 31
0.0000
  0
LINE
  8
48
 10
5.0981
 20
31.8429
 30
0.0000
 11
5.9166
 21
31.8429
 31
0.0000
  0
LINE
  8
48
 10
6.5847
 20
32.9887
 30
0.0000
 11
6.9939
 21
33.3161
 31
0.0000
  0
LINE
  8
48
 10
6.9939
 20
33.3161
 30
0.0000
 11
6.9939
 21
31.8429
 31
0.0000
  0
LINE
  8
48
 10
6.5847
 20
31.8429
 30
0.0000
 11
7.4031
 21
31.8429
 31
0.0000
  0
LINE
  8
48
 10
7.9936
 20
31.8429
 30
0.0000
 11
7.9936
 21
31.9247
 31
0.0000
  0
LINE
  8
48
 10
7.9936
 20
31.9247
 30
0.0000
 11
8.0754
 21
31.9247
 31
0.0000
  0
LINE
  8
48
 10
8.0754
 20
31.9247
 30
0.0000
 11
8.0754
 21
31.8429
 31
0.0000
  0
LINE
  8
48
 10
8.0754
 20
31.8429
 30
0.0000
 11
7.9936
 21
31.8429
 31
0.0000
  0
ARC
  8
48
 10
9.1160
 20
32.9477
 30
0.0000
 40
0.3683
 50
0.0000
 51
90.0000
  0
ARC
  8
48
 10
9.1160
 20
32.8429
 30
0.0000
 40
0.4732
 50
90.0000
 51
162.0549
  0
ARC
  8
48
 10
9.0888
 20
32.9477
 30
0.0000
 40
0.3956
 50
313.6022
 51
0.0000
  0
LINE
  8
48
 10
9.3616
 20
32.6613
 30
0.0000
 11
8.6659
 21
31.8429
 31
0.0000
  0
LINE
  8
48
 10
8.6659
 20
31.8429
 30
0.0000
 11
9.4843
 21
31.8429
 31
0.0000
  0
ARC
  8
48
 10
11.3665
 20
32.5795
 30
0.0000
 40
1.2140
 50
154.0109
 51
180.0000
  0
ARC
  8
48
 10
10.5617
 20
33.0132
 30
0.0000
 40
0.3028
 50
90.0000
 51
161.0756
  0
ARC
  8
48
 10
10.5617
 20
33.0132
 30
0.0000
 40
0.3028
 50
18.9237
 51
90.0001
  0
ARC
  8
48
 10
9.7569
 20
32.5795
 30
0.0000
 40
1.2140
 50
360.0000
 51
25.9897
  0
ARC
  8
48
 10
11.3665
 20
32.5795
 30
0.0000
 40
1.2140
 50
180.0000
 51
205.9889
  0
ARC
  8
48
 10
10.5617
 20
32.1457
 30
0.0000
 40
0.3028
 50
198.9251
 51
270.0001
  0
ARC
  8
48
 10
9.7569
 20
32.5795
 30
0.0000
 40
1.2140
 50
334.0105
 51
359.9999
  0
ARC
  8
48
 10
10.5617
 20
32.1457
 30
0.0000
 40
0.3028
 50
270.0000
 51
341.0759
  0
LINE
  8
48
 10
10.2343
 20
32.1702
 30
0.0000
 11
10.8891
 21
32.9887
 31
0.0000
  0
LINE
  8
48
 10
11.6391
 20
32.9887
 30
0.0000
 11
12.0483
 21
33.3161
 31
0.0000
  0
LINE
  8
48
 10
12.0483
 20
33.3161
 30
0.0000
 11
12.0483
 21
31.8429
 31
0.0000
  0
LINE
  8
48
 10
11.6391
 20
31.8429
 30
0.0000
 11
12.4575
 21
31.8429
 31
0.0000
  0
LINE
  8
48
 10
13.9441
 20
32.4976
 30
0.0000
 11
13.4530
 21
32.4976
 31
0.0000
  0
ARC
  8
48
 10
13.4530
 20
32.8250
 30
0.0000
 40
0.3274
 50
179.9995
 51
270.0000
  0
LINE
  8
48
 10
13.1256
 20
32.8250
 30
0.0000
 11
13.1256
 21
32.9068
 31
0.0000
  0
ARC
  8
48
 10
13.5348
 20
32.9068
 30
0.0000
 40
0.4092
 50
0.0000
 51
180.0000
  0
LINE
  8
48
 10
13.9441
 20
32.9068
 30
0.0000
 11
13.9441
 21
32.4976
 31
0.0000
  0
ARC
  8
48
 10
13.2893
 20
32.4976
 30
0.0000
 40
0.6548
 50
269.9997
 51
360.0000
  0
LINE
  8
48
 10
15.4050
 20
32.9887
 30
0.0000
 11
15.8143
 21
33.3161
 31
0.0000
  0
LINE
  8
48
 10
15.8143
 20
33.3161
 30
0.0000
 11
15.8143
 21
31.8429
 31
0.0000
  0
LINE
  8
48
 10
15.4050
 20
31.8429
 30
0.0000
 11
16.2235
 21
31.8429
 31
0.0000
  0
LINE
  8
48
 10
16.8916
 20
33.1524
 30
0.0000
 11
16.8916
 21
33.3161
 31
0.0000
  0
LINE
  8
48
 10
16.8916
 20
33.3161
 30
0.0000
 11
17.7101
 21
33.3161
 31
0.0000
  0
LINE
  8
48
 10
17.7101
 20
33.3161
 30
0.0000
 11
17.3008
 21
31.8429
 31
0.0000
  0
LINE
  8
48
 10
18.3501
 20
31.9656
 30
0.0000
 11
18.3501
 21
32.0475
 31
0.0000
  0
LINE
  8
48
 10
18.3501
 20
32.0475
 30
0.0000
 11
18.4319
 21
32.0475
 31
0.0000
  0
LINE
  8
48
 10
18.4319
 20
32.0475
 30
0.0000
 11
18.4319
 21
31.9656
 31
0.0000
  0
LINE
  8
48
 10
18.4319
 20
31.9656
 30
0.0000
 11
18.3501
 21
31.9656
 31
0.0000
  0
LINE
  8
48
 10
18.3501
 20
32.6204
 30
0.0000
 11
18.3501
 21
32.7022
 31
0.0000
  0
LINE
  8
48
 10
18.3501
 20
32.7022
 30
0.0000
 11
18.4319
 21
32.7022
 31
0.0000
  0
LINE
  8
48
 10
18.4319
 20
32.7022
 30
0.0000
 11
18.4319
 21
32.6204
 31
0.0000
  0
LINE
  8
48
 10
18.4319
 20
32.6204
 30
0.0000
 11
18.3501
 21
32.6204
 31
0.0000
  0
ARC
  8
48
 10
20.2859
 20
32.5795
 30
0.0000
 40
1.2140
 50
154.0109
 51
180.0000
  0
ARC
  8
48
 10
19.4811
 20
33.0132
 30
0.0000
 40
0.3028
 50
90.0000
 51
161.0756
  0
ARC
  8
48
 10
19.4811
 20
33.0132
 30
0.0000
 40
0.3028
 50
18.9237
 51
90.0001
  0
ARC
  8
48
 10
18.6764
 20
32.5795
 30
0.0000
 40
1.2140
 50
360.0000
 51
25.9897
  0
ARC
  8
48
 10
20.2860
 20
32.5795
 30
0.0000
 40
1.2140
 50
180.0000
 51
205.9889
  0
ARC
  8
48
 10
19.4811
 20
32.1457
 30
0.0000
 40
0.3028
 50
198.9251
 51
270.0001
  0
ARC
  8
48
 10
18.6763
 20
32.5795
 30
0.0000
 40
1.2140
 50
334.0105
 51
359.9999
  0
ARC
  8
48
 10
19.4811
 20
32.1457
 30
0.0000
 40
0.3028
 50
270.0000
 51
341.0759
  0
LINE
  8
48
 10
19.1538
 20
32.1702
 30
0.0000
 11
19.8085
 21
32.9887
 31
0.0000
  0
ARC
  8
48
 10
21.0086
 20
32.9477
 30
0.0000
 40
0.3683
 50
0.0000
 51
90.0000
  0
ARC
  8
48
 10
21.0086
 20
32.8429
 30
0.0000
 40
0.4732
 50
90.0000
 51
162.0549
  0
ARC
  8
48
 10
20.9814
 20
32.9477
 30
0.0000
 40
0.3956
 50
313.6022
 51
0.0000
  0
LINE
  8
48
 10
21.2542
 20
32.6613
 30
0.0000
 11
20.5585
 21
31.8429
 31
0.0000
  0
LINE
  8
48
 10
20.5585
 20
31.8429
 30
0.0000
 11
21.3769
 21
31.8429
 31
0.0000
  0
CIRCLE
  8
20
 10
21.9275
 20
9.5525
 30
0.0000
 40
0.7500
  0
ENDSEC
  0
EOF
