  0
SECTION
  2
HEADER
  9
$ACADVER
  1
AC1009
  9
$FILLMODE
 70
0
  9
$EXTMIN
 10
-5.2845
 20
-6.1620
 30
0.0000
  9
$EXTMAX
 10
80.4570
 20
66.9699
 30
0.0000
  0
ENDSEC
  0
SECTION
  2
TABLES
  0
TABLE
  2
LTYPE
 70
1
  0
LTYPE
  2
CONTINUOUS
 70
64
  3
Solid line
 72
65
 73
0
 40
0
  0
ENDTAB
  0
TABLE
  2
LAYER
 70
255
  0
LAYER
  2
19
 70
64
 62
53
  6
CONTINUOUS
  0
LAYER
  2
20
 70
64
 62
30
  6
CONTINUOUS
  0
LAYER
  2
21
 70
64
 62
253
  6
CONTINUOUS
  0
LAYER
  2
25
 70
64
 62
253
  6
CONTINUOUS
  0
LAYER
  2
48
 70
64
 62
253
  6
CONTINUOUS
  0
LAYER
  2
49
 70
64
 62
253
  6
CONTINUOUS
  0
LAYER
  2
51
 70
64
 62
253
  6
CONTINUOUS
  0
LAYER
  2
117
 70
64
 62
253
  6
CONTINUOUS
  0
LAYER
  2
119
 70
64
 62
253
  6
CONTINUOUS
  0
LAYER
  2
120
 70
64
 62
253
  6
CONTINUOUS
  0
LAYER
  2
127
 70
64
 62
253
  6
CONTINUOUS
  0
LAYER
  2
128
 70
64
 62
253
  6
CONTINUOUS
  0
LAYER
  2
130
 70
64
 62
253
  6
CONTINUOUS
  0
LAYER
  2
133
 70
64
 62
253
  6
CONTINUOUS
  0
LAYER
  2
134
 70
64
 62
253
  6
CONTINUOUS
  0
LAYER
  2
135
 70
64
 62
253
  6
CONTINUOUS
  0
LAYER
  2
136
 70
64
 62
253
  6
CONTINUOUS
  0
LAYER
  2
137
 70
64
 62
253
  6
CONTINUOUS
  0
LAYER
  2
138
 70
64
 62
253
  6
CONTINUOUS
  0
LAYER
  2
139
 70
64
 62
253
  6
CONTINUOUS
  0
LAYER
  2
140
 70
64
 62
253
  6
CONTINUOUS
  0
LAYER
  2
141
 70
64
 62
253
  6
CONTINUOUS
  0
LAYER
  2
142
 70
64
 62
253
  6
CONTINUOUS
  0
LAYER
  2
143
 70
64
 62
253
  6
CONTINUOUS
  0
LAYER
  2
144
 70
64
 62
253
  6
CONTINUOUS
  0
LAYER
  2
145
 70
64
 62
253
  6
CONTINUOUS
  0
LAYER
  2
146
 70
64
 62
253
  6
CONTINUOUS
  0
LAYER
  2
147
 70
64
 62
253
  6
CONTINUOUS
  0
LAYER
  2
148
 70
64
 62
253
  6
CONTINUOUS
  0
LAYER
  2
149
 70
64
 62
253
  6
CONTINUOUS
  0
LAYER
  2
150
 70
64
 62
253
  6
CONTINUOUS
  0
LAYER
  2
152
 70
64
 62
253
  6
CONTINUOUS
  0
LAYER
  2
153
 70
64
 62
253
  6
CONTINUOUS
  0
LAYER
  2
154
 70
64
 62
253
  6
CONTINUOUS
  0
LAYER
  2
155
 70
64
 62
253
  6
CONTINUOUS
  0
LAYER
  2
191
 70
64
 62
253
  6
CONTINUOUS
  0
LAYER
  2
192
 70
64
 62
253
  6
CONTINUOUS
  0
LAYER
  2
193
 70
64
 62
253
  6
CONTINUOUS
  0
LAYER
  2
194
 70
64
 62
253
  6
CONTINUOUS
  0
LAYER
  2
195
 70
64
 62
253
  6
CONTINUOUS
  0
LAYER
  2
196
 70
64
 62
253
  6
CONTINUOUS
  0
LAYER
  2
199
 70
64
 62
253
  6
CONTINUOUS
  0
LAYER
  2
228
 70
64
 62
253
  6
CONTINUOUS
  0
LAYER
  2
229
 70
64
 62
253
  6
CONTINUOUS
  0
LAYER
  2
230
 70
64
 62
253
  6
CONTINUOUS
  0
LAYER
  2
231
 70
64
 62
253
  6
CONTINUOUS
  0
LAYER
  2
232
 70
64
 62
253
  6
CONTINUOUS
  0
LAYER
  2
233
 70
64
 62
253
  6
CONTINUOUS
  0
LAYER
  2
248
 70
64
 62
253
  6
CONTINUOUS
  0
LAYER
  2
249
 70
64
 62
253
  6
CONTINUOUS
  0
LAYER
  2
255
 70
64
 62
253
  6
CONTINUOUS
  0
ENDTAB
  0
ENDSEC
  0
SECTION
  2
BLOCKS
  0
BLOCK
  8
0
  2
RECT
 70
64
 10
0.0000
 20
0.0000
 30
0.0000
  3
RECT
  0
SOLID
  8
0
 10
-0.5000
 20
-0.5000
 30
0.0000
 11
0.5000
 21
-0.5000
 31
0.0000
 12
-0.5000
 22
0.5000
 32
0.0000
 13
0.5000
 23
0.5000
 33
0.0000
  0
ENDBLK
  8
0
  0
BLOCK
  8
0
  2
PIE
 70
64
 10
0.0000
 20
0.0000
 30
0.0000
  3
PIE
  0
CIRCLE
  8
0
 10
0.0000
 20
0.0000
 30
0.0000
 40
0.5000
  0
ENDBLK
  8
0
  0
BLOCK
  8
0
  2
OCTAGONP
 70
64
 10
0.0000
 20
0.0000
 30
0.0000
  3
OCTAGONP
  0
POLYLINE
  8
0
 66
1
 10
0.0000
 20
0.0000
 30
0.0000
 40
0.0000
 41
0.0000
 70
1
  0
VERTEX
  8
0
 10
-0.5000
 20
-0.2071
 30
0.0000
  0
VERTEX
  8
0
 10
-0.5000
 20
0.2071
 30
0.0000
  0
VERTEX
  8
0
 10
-0.2071
 20
0.5000
 30
0.0000
  0
VERTEX
  8
0
 10
0.2071
 20
0.5000
 30
0.0000
  0
VERTEX
  8
0
 10
0.5000
 20
0.2071
 30
0.0000
  0
VERTEX
  8
0
 10
0.5000
 20
-0.2071
 30
0.0000
  0
VERTEX
  8
0
 10
0.2071
 20
-0.5000
 30
0.0000
  0
VERTEX
  8
0
 10
-0.2071
 20
-0.5000
 30
0.0000
  0
SEQEND
  8
0
  0
ENDBLK
  8
0
  0
BLOCK
  8
0
  2
SQUAREP
 70
64
 10
0.0000
 20
0.0000
 30
0.0000
  3
SQUAREP
  0
SOLID
  8
0
 10
-0.5000
 20
-0.5000
 30
0.0000
 11
0.5000
 21
-0.5000
 31
0.0000
 12
-0.5000
 22
0.5000
 32
0.0000
 13
0.5000
 23
0.5000
 33
0.0000
  0
ENDBLK
  8
0
  0
BLOCK
  8
0
  2
ROUNDP
 70
64
 10
0.0000
 20
0.0000
 30
0.0000
  3
ROUNDP
  0
CIRCLE
  8
0
 10
0.0000
 20
0.0000
 30
0.0000
 40
0.5000
  0
ENDBLK
  8
0
  0
BLOCK
  8
0
  2
ANNULUSP
 70
64
 10
0.0000
 20
0.0000
 30
0.0000
  3
ANNULUSP
  0
CIRCLE
  8
0
 10
0.0000
 20
0.0000
 30
0.0000
 40
0.5000
  0
ENDBLK
  8
0
  0
BLOCK
  8
0
  2
THERMALP
 70
64
 10
0.0000
 20
0.0000
 30
0.0000
  3
THERMALP
  0
LINE
  8
0
 10
-0.2379
 20
0.4500
 30
0.0000
 11
0.2379
 21
0.4500
 31
0.0000
  0
LINE
  8
0
 10
0.4500
 20
0.2379
 30
0.0000
 11
0.4500
 21
-0.2379
 31
0.0000
  0
LINE
  8
0
 10
0.2379
 20
-0.4500
 30
0.0000
 11
-0.2379
 21
-0.4500
 31
0.0000
  0
LINE
  8
0
 10
-0.4500
 20
-0.2379
 30
0.0000
 11
-0.4500
 21
0.2379
 31
0.0000
  0
ENDBLK
  8
0
  0
BLOCK
  8
0
  2
OCTAGONV
 70
64
 10
0.0000
 20
0.0000
 30
0.0000
  3
OCTAGONV
  0
POLYLINE
  8
0
 66
1
 10
0.0000
 20
0.0000
 30
0.0000
 40
0.0000
 41
0.0000
 70
1
  0
VERTEX
  8
0
 10
-0.5000
 20
-0.2071
 30
0.0000
  0
VERTEX
  8
0
 10
-0.5000
 20
0.2071
 30
0.0000
  0
VERTEX
  8
0
 10
-0.2071
 20
0.5000
 30
0.0000
  0
VERTEX
  8
0
 10
0.2071
 20
0.5000
 30
0.0000
  0
VERTEX
  8
0
 10
0.5000
 20
0.2071
 30
0.0000
  0
VERTEX
  8
0
 10
0.5000
 20
-0.2071
 30
0.0000
  0
VERTEX
  8
0
 10
0.2071
 20
-0.5000
 30
0.0000
  0
VERTEX
  8
0
 10
-0.2071
 20
-0.5000
 30
0.0000
  0
SEQEND
  8
0
  0
ENDBLK
  8
0
  0
BLOCK
  8
0
  2
SQUAREV
 70
64
 10
0.0000
 20
0.0000
 30
0.0000
  3
SQUAREV
  0
SOLID
  8
0
 10
-0.5000
 20
-0.5000
 30
0.0000
 11
0.5000
 21
-0.5000
 31
0.0000
 12
-0.5000
 22
0.5000
 32
0.0000
 13
0.5000
 23
0.5000
 33
0.0000
  0
ENDBLK
  8
0
  0
BLOCK
  8
0
  2
ROUNDV
 70
64
 10
0.0000
 20
0.0000
 30
0.0000
  3
ROUNDV
  0
CIRCLE
  8
0
 10
0.0000
 20
0.0000
 30
0.0000
 40
0.5000
  0
ENDBLK
  8
0
  0
BLOCK
  8
0
  2
ANNULUSV
 70
64
 10
0.0000
 20
0.0000
 30
0.0000
  3
ANNULUSV
  0
CIRCLE
  8
0
 10
0.0000
 20
0.0000
 30
0.0000
 40
0.5000
  0
ENDBLK
  8
0
  0
BLOCK
  8
0
  2
THERMALV
 70
64
 10
0.0000
 20
0.0000
 30
0.0000
  3
THERMALV
  0
LINE
  8
0
 10
-0.2379
 20
0.4500
 30
0.0000
 11
0.2379
 21
0.4500
 31
0.0000
  0
LINE
  8
0
 10
0.4500
 20
0.2379
 30
0.0000
 11
0.4500
 21
-0.2379
 31
0.0000
  0
LINE
  8
0
 10
0.2379
 20
-0.4500
 30
0.0000
 11
-0.2379
 21
-0.4500
 31
0.0000
  0
LINE
  8
0
 10
-0.4500
 20
-0.2379
 30
0.0000
 11
-0.4500
 21
0.2379
 31
0.0000
  0
ENDBLK
  8
0
  0
ENDSEC
  0
SECTION
  2
ENTITIES
  0
LINE
  8
20
 10
0.0000
 20
0.0000
 30
0.0000
 11
74.0000
 21
0.0000
 31
0.0000
  0
LINE
  8
20
 10
0.0000
 20
25.5000
 30
0.0000
 11
0.0000
 21
0.0000
 31
0.0000
  0
LINE
  8
20
 10
0.0000
 20
25.5000
 30
0.0000
 11
74.0000
 21
25.5000
 31
0.0000
  0
LINE
  8
20
 10
74.0000
 20
25.5000
 30
0.0000
 11
74.0000
 21
0.0000
 31
0.0000
  0
LINE
  8
48
 10
28.3337
 20
61.4137
 30
0.0000
 11
28.7853
 21
61.4137
 31
0.0000
  0
ARC
  8
48
 10
28.7853
 20
61.8653
 30
0.0000
 40
0.4516
 50
270.0000
 51
90.0000
  0
LINE
  8
48
 10
28.3337
 20
63.0393
 30
0.0000
 11
28.8756
 21
63.0393
 31
0.0000
  0
ARC
  8
48
 10
28.8756
 20
62.6781
 30
0.0000
 40
0.3612
 50
270.0000
 51
90.0000
  0
LINE
  8
48
 10
28.8756
 20
62.3168
 30
0.0000
 11
28.5143
 21
62.3168
 31
0.0000
  0
LINE
  8
48
 10
29.8968
 20
61.4137
 30
0.0000
 11
30.4387
 21
61.4137
 31
0.0000
  0
ARC
  8
48
 10
30.4387
 20
61.7749
 30
0.0000
 40
0.3612
 50
270.0000
 51
0.0000
  0
LINE
  8
48
 10
30.7999
 20
61.7749
 30
0.0000
 11
30.7999
 21
61.9556
 31
0.0000
  0
ARC
  8
48
 10
30.4387
 20
61.9556
 30
0.0000
 40
0.3612
 50
0.0000
 51
90.0000
  0
LINE
  8
48
 10
30.4387
 20
62.3168
 30
0.0000
 11
29.8968
 21
62.3168
 31
0.0000
  0
LINE
  8
48
 10
29.8968
 20
62.3168
 30
0.0000
 11
29.8968
 21
63.0393
 31
0.0000
  0
LINE
  8
48
 10
29.8968
 20
63.0393
 30
0.0000
 11
30.7999
 21
63.0393
 31
0.0000
  0
LINE
  8
48
 10
31.5494
 20
60.8718
 30
0.0000
 11
31.5494
 21
62.4974
 31
0.0000
  0
LINE
  8
48
 10
32.2718
 20
62.4974
 30
0.0000
 11
32.2718
 21
61.7749
 31
0.0000
  0
ARC
  8
48
 10
31.9106
 20
61.7749
 30
0.0000
 40
0.3612
 50
180.0000
 51
0.0000
  0
LINE
  8
48
 10
32.2718
 20
61.7749
 30
0.0000
 11
32.2718
 21
61.5943
 31
0.0000
  0
ARC
  8
48
 10
32.4525
 20
61.5943
 30
0.0000
 40
0.1806
 50
180.0000
 51
270.0000
  0
LINE
  8
48
 10
33.0370
 20
61.4137
 30
0.0000
 11
33.0370
 21
62.4974
 31
0.0000
  0
LINE
  8
48
 10
33.0370
 20
62.4974
 30
0.0000
 11
33.8498
 21
62.4974
 31
0.0000
  0
ARC
  8
48
 10
33.8498
 20
62.2265
 30
0.0000
 40
0.2709
 50
0.0000
 51
90.0000
  0
LINE
  8
48
 10
34.1207
 20
62.2265
 30
0.0000
 11
34.1207
 21
61.4137
 31
0.0000
  0
LINE
  8
48
 10
33.5788
 20
61.4137
 30
0.0000
 11
33.5788
 21
62.4974
 31
0.0000
  0
ARC
  8
48
 10
51.6904
 20
62.4742
 30
0.0000
 40
0.4064
 50
0.0000
 51
90.0000
  0
ARC
  8
48
 10
51.6904
 20
62.3584
 30
0.0000
 40
0.5221
 50
90.0001
 51
162.0549
  0
ARC
  8
48
 10
51.6603
 20
62.4742
 30
0.0000
 40
0.4365
 50
313.6036
 51
359.9997
  0
LINE
  8
48
 10
51.9613
 20
62.1581
 30
0.0000
 11
51.1937
 21
61.2550
 31
0.0000
  0
LINE
  8
48
 10
51.1937
 20
61.2550
 30
0.0000
 11
52.0968
 21
61.2550
 31
0.0000
  0
LINE
  8
48
 10
35.3187
 20
65.6943
 30
0.0000
 11
35.7703
 21
66.0555
 31
0.0000
  0
LINE
  8
48
 10
35.7703
 20
66.0555
 30
0.0000
 11
35.7703
 21
64.4300
 31
0.0000
  0
LINE
  8
48
 10
35.3187
 20
64.4300
 30
0.0000
 11
36.2218
 21
64.4300
 31
0.0000
  0
LINE
  8
48
 10
36.8818
 20
65.6943
 30
0.0000
 11
37.3334
 21
66.0555
 31
0.0000
  0
LINE
  8
48
 10
37.3334
 20
66.0555
 30
0.0000
 11
37.3334
 21
64.4300
 31
0.0000
  0
LINE
  8
48
 10
36.8818
 20
64.4300
 30
0.0000
 11
37.7849
 21
64.4300
 31
0.0000
  0
LINE
  8
48
 10
38.4449
 20
64.4300
 30
0.0000
 11
38.9868
 21
64.4300
 31
0.0000
  0
ARC
  8
48
 10
38.9868
 20
64.7912
 30
0.0000
 40
0.3612
 50
270.0000
 51
0.0000
  0
LINE
  8
48
 10
39.3481
 20
64.7912
 30
0.0000
 11
39.3481
 21
64.9718
 31
0.0000
  0
ARC
  8
48
 10
38.9868
 20
64.9718
 30
0.0000
 40
0.3612
 50
0.0000
 51
90.0000
  0
LINE
  8
48
 10
38.9868
 20
65.3331
 30
0.0000
 11
38.4449
 21
65.3331
 31
0.0000
  0
LINE
  8
48
 10
38.4449
 20
65.3331
 30
0.0000
 11
38.4449
 21
66.0555
 31
0.0000
  0
LINE
  8
48
 10
38.4449
 20
66.0555
 30
0.0000
 11
39.3481
 21
66.0555
 31
0.0000
  0
LINE
  8
48
 10
40.0220
 20
65.0621
 30
0.0000
 11
41.1057
 21
65.0621
 31
0.0000
  0
ARC
  8
48
 10
42.2763
 20
65.6492
 30
0.0000
 40
0.4064
 50
0.0000
 51
90.0000
  0
ARC
  8
48
 10
42.2763
 20
65.5334
 30
0.0000
 40
0.5221
 50
90.0001
 51
162.0549
  0
ARC
  8
48
 10
42.2462
 20
65.6492
 30
0.0000
 40
0.4365
 50
313.6036
 51
359.9997
  0
LINE
  8
48
 10
42.5472
 20
65.3331
 30
0.0000
 11
41.7796
 21
64.4300
 31
0.0000
  0
LINE
  8
48
 10
41.7796
 20
64.4300
 30
0.0000
 11
42.6827
 21
64.4300
 31
0.0000
  0
LINE
  8
48
 10
43.3566
 20
65.0621
 30
0.0000
 11
44.4404
 21
65.0621
 31
0.0000
  0
ARC
  8
48
 10
46.4539
 20
65.2428
 30
0.0000
 40
1.3396
 50
154.0109
 51
180.0001
  0
ARC
  8
48
 10
45.5658
 20
65.7214
 30
0.0000
 40
0.3342
 50
90.0001
 51
161.0756
  0
ARC
  8
48
 10
45.5658
 20
65.7214
 30
0.0000
 40
0.3342
 50
18.9248
 51
90.0000
  0
ARC
  8
48
 10
44.6778
 20
65.2428
 30
0.0000
 40
1.3396
 50
360.0000
 51
25.9891
  0
ARC
  8
48
 10
46.4539
 20
65.2428
 30
0.0000
 40
1.3396
 50
180.0000
 51
205.9889
  0
ARC
  8
48
 10
45.5658
 20
64.7641
 30
0.0000
 40
0.3342
 50
198.9250
 51
270.0000
  0
ARC
  8
48
 10
44.6777
 20
65.2428
 30
0.0000
 40
1.3396
 50
334.0111
 51
360.0000
  0
ARC
  8
48
 10
45.5658
 20
64.7641
 30
0.0000
 40
0.3342
 50
269.9999
 51
341.0745
  0
LINE
  8
48
 10
45.2046
 20
64.7912
 30
0.0000
 11
45.9271
 21
65.6943
 31
0.0000
  0
LINE
  8
48
 10
46.6774
 20
65.6943
 30
0.0000
 11
47.1289
 21
66.0555
 31
0.0000
  0
LINE
  8
48
 10
47.1289
 20
66.0555
 30
0.0000
 11
47.1289
 21
64.4300
 31
0.0000
  0
LINE
  8
48
 10
46.6774
 20
64.4300
 30
0.0000
 11
47.5805
 21
64.4300
 31
0.0000
  0
LINE
  8
48
 10
48.2544
 20
65.0621
 30
0.0000
 11
49.3381
 21
65.0621
 31
0.0000
  0
ARC
  8
48
 10
51.3517
 20
65.2428
 30
0.0000
 40
1.3396
 50
154.0109
 51
180.0001
  0
ARC
  8
48
 10
50.4636
 20
65.7214
 30
0.0000
 40
0.3342
 50
90.0001
 51
161.0756
  0
ARC
  8
48
 10
50.4636
 20
65.7214
 30
0.0000
 40
0.3342
 50
18.9248
 51
90.0000
  0
ARC
  8
48
 10
49.5755
 20
65.2428
 30
0.0000
 40
1.3396
 50
360.0000
 51
25.9891
  0
ARC
  8
48
 10
51.3517
 20
65.2428
 30
0.0000
 40
1.3396
 50
180.0000
 51
205.9889
  0
ARC
  8
48
 10
50.4636
 20
64.7641
 30
0.0000
 40
0.3342
 50
198.9250
 51
270.0000
  0
ARC
  8
48
 10
49.5755
 20
65.2428
 30
0.0000
 40
1.3396
 50
334.0111
 51
360.0000
  0
ARC
  8
48
 10
50.4636
 20
64.7641
 30
0.0000
 40
0.3342
 50
269.9999
 51
341.0745
  0
LINE
  8
48
 10
50.1024
 20
64.7912
 30
0.0000
 11
50.8248
 21
65.6943
 31
0.0000
  0
LINE
  8
48
 10
51.5752
 20
65.6943
 30
0.0000
 11
52.0267
 21
66.0555
 31
0.0000
  0
LINE
  8
48
 10
52.0267
 20
66.0555
 30
0.0000
 11
52.0267
 21
64.4300
 31
0.0000
  0
LINE
  8
48
 10
51.5752
 20
64.4300
 30
0.0000
 11
52.4783
 21
64.4300
 31
0.0000
  0
LINE
  8
48
 10
45.6375
 20
56.1693
 30
0.0000
 11
46.0890
 21
56.5306
 31
0.0000
  0
LINE
  8
48
 10
46.0890
 20
56.5306
 30
0.0000
 11
46.0890
 21
54.9049
 31
0.0000
  0
LINE
  8
48
 10
45.6375
 20
54.9049
 30
0.0000
 11
46.5406
 21
54.9049
 31
0.0000
  0
ARC
  8
48
 10
1.9092
 20
64.7947
 30
0.0000
 40
0.3330
 50
270.0005
 51
360.0000
  0
ARC
  8
48
 10
1.9092
 20
65.1652
 30
0.0000
 40
0.7035
 50
224.7598
 51
270.0006
  0
ARC
  8
48
 10
1.7844
 20
65.6273
 30
0.0000
 40
0.3330
 50
90.0000
 51
180.0000
  0
ARC
  8
48
 10
1.7844
 20
65.3359
 30
0.0000
 40
0.6244
 50
53.1299
 51
89.9999
  0
ARC
  8
48
 10
1.7895
 20
65.6273
 30
0.0000
 40
0.3382
 50
179.9999
 51
239.4904
  0
ARC
  8
48
 10
1.9040
 20
64.7947
 30
0.0000
 40
0.3382
 50
0.0001
 51
59.4892
  0
LINE
  8
48
 10
2.0757
 20
65.0861
 30
0.0000
 11
1.6178
 21
65.3359
 31
0.0000
  0
LINE
  8
48
 10
2.8477
 20
65.4608
 30
0.0000
 11
3.1807
 21
64.4617
 31
0.0000
  0
LINE
  8
48
 10
3.1807
 20
64.4617
 30
0.0000
 11
3.5137
 21
65.4608
 31
0.0000
  0
LINE
  8
48
 10
4.8163
 20
64.4617
 30
0.0000
 11
4.4000
 21
64.4617
 31
0.0000
  0
ARC
  8
48
 10
4.4000
 20
64.7115
 30
0.0000
 40
0.2498
 50
180.0000
 51
270.0000
  0
LINE
  8
48
 10
4.1503
 20
64.7115
 30
0.0000
 11
4.1503
 21
65.1277
 31
0.0000
  0
ARC
  8
48
 10
4.4833
 20
65.1277
 30
0.0000
 40
0.3330
 50
0.0000
 51
180.0000
  0
LINE
  8
48
 10
4.8163
 20
65.1277
 30
0.0000
 11
4.8163
 21
64.9612
 31
0.0000
  0
LINE
  8
48
 10
4.8163
 20
64.9612
 30
0.0000
 11
4.1503
 21
64.9612
 31
0.0000
  0
LINE
  8
48
 10
5.5571
 20
64.4617
 30
0.0000
 11
5.5571
 21
65.4608
 31
0.0000
  0
LINE
  8
48
 10
5.5571
 20
65.4608
 30
0.0000
 11
5.9733
 21
65.4608
 31
0.0000
  0
ARC
  8
48
 10
5.9733
 20
65.2110
 30
0.0000
 40
0.2498
 50
0.0014
 51
90.0000
  0
LINE
  8
48
 10
6.2231
 20
65.2110
 30
0.0000
 11
6.2231
 21
64.4617
 31
0.0000
  0
LINE
  8
48
 10
7.9024
 20
64.4617
 30
0.0000
 11
7.9024
 21
65.9603
 31
0.0000
  0
LINE
  8
48
 10
7.9024
 20
65.9603
 30
0.0000
 11
8.3187
 21
65.9603
 31
0.0000
  0
ARC
  8
48
 10
8.3187
 20
65.5440
 30
0.0000
 40
0.4163
 50
270.0000
 51
90.0000
  0
LINE
  8
48
 10
8.3187
 20
65.1277
 30
0.0000
 11
7.9024
 21
65.1277
 31
0.0000
  0
LINE
  8
48
 10
10.0267
 20
64.4617
 30
0.0000
 11
9.6104
 21
64.4617
 31
0.0000
  0
ARC
  8
48
 10
9.6104
 20
64.7115
 30
0.0000
 40
0.2498
 50
180.0000
 51
270.0000
  0
LINE
  8
48
 10
9.3607
 20
64.7115
 30
0.0000
 11
9.3607
 21
65.1277
 31
0.0000
  0
ARC
  8
48
 10
9.6937
 20
65.1277
 30
0.0000
 40
0.3330
 50
0.0000
 51
180.0000
  0
LINE
  8
48
 10
10.0267
 20
65.1277
 30
0.0000
 11
10.0267
 21
64.9612
 31
0.0000
  0
LINE
  8
48
 10
10.0267
 20
64.9612
 30
0.0000
 11
9.3607
 21
64.9612
 31
0.0000
  0
LINE
  8
48
 10
10.5727
 20
65.4608
 30
0.0000
 11
11.0722
 21
65.4608
 31
0.0000
  0
LINE
  8
48
 10
10.7392
 20
65.9603
 30
0.0000
 11
10.7392
 21
64.7115
 31
0.0000
  0
ARC
  8
48
 10
10.9890
 20
64.7115
 30
0.0000
 40
0.2498
 50
180.0000
 51
270.0000
  0
LINE
  8
48
 10
10.9890
 20
64.4617
 30
0.0000
 11
11.0722
 21
64.4617
 31
0.0000
  0
LINE
  8
48
 10
12.3714
 20
64.4617
 30
0.0000
 11
11.9551
 21
64.4617
 31
0.0000
  0
ARC
  8
48
 10
11.9551
 20
64.7115
 30
0.0000
 40
0.2498
 50
180.0000
 51
270.0000
  0
LINE
  8
48
 10
11.7054
 20
64.7115
 30
0.0000
 11
11.7054
 21
65.1277
 31
0.0000
  0
ARC
  8
48
 10
12.0384
 20
65.1277
 30
0.0000
 40
0.3330
 50
0.0000
 51
180.0000
  0
LINE
  8
48
 10
12.3714
 20
65.1277
 30
0.0000
 11
12.3714
 21
64.9612
 31
0.0000
  0
LINE
  8
48
 10
12.3714
 20
64.9612
 30
0.0000
 11
11.7054
 21
64.9612
 31
0.0000
  0
LINE
  8
48
 10
13.1250
 20
64.4617
 30
0.0000
 11
13.1250
 21
65.4608
 31
0.0000
  0
LINE
  8
48
 10
13.1250
 20
65.4608
 30
0.0000
 11
13.6245
 21
65.4608
 31
0.0000
  0
LINE
  8
48
 10
13.6245
 20
65.4608
 30
0.0000
 11
13.6245
 21
65.2943
 31
0.0000
  0
LINE
  8
48
 10
14.6954
 20
64.8780
 30
0.0000
 11
14.2791
 21
65.0445
 31
0.0000
  0
ARC
  8
48
 10
14.3593
 20
65.2449
 30
0.0000
 40
0.2159
 50
89.1813
 51
248.1985
  0
ARC
  8
48
 10
14.3489
 20
64.5154
 30
0.0000
 40
0.9455
 50
65.7608
 51
89.1813
  0
ARC
  8
48
 10
14.6152
 20
64.6775
 30
0.0000
 40
0.2159
 50
269.1813
 51
68.1985
  0
ARC
  8
48
 10
14.6323
 20
65.8736
 30
0.0000
 40
1.4120
 50
250.2096
 51
269.1813
  0
LINE
  8
48
 10
16.1750
 20
64.4617
 30
0.0000
 11
15.7587
 21
64.4617
 31
0.0000
  0
ARC
  8
48
 10
15.7587
 20
64.7115
 30
0.0000
 40
0.2498
 50
180.0000
 51
270.0000
  0
LINE
  8
48
 10
15.5090
 20
64.7115
 30
0.0000
 11
15.5090
 21
65.1277
 31
0.0000
  0
ARC
  8
48
 10
15.8420
 20
65.1277
 30
0.0000
 40
0.3330
 50
0.0000
 51
180.0000
  0
LINE
  8
48
 10
16.1750
 20
65.1277
 30
0.0000
 11
16.1750
 21
64.9612
 31
0.0000
  0
LINE
  8
48
 10
16.1750
 20
64.9612
 30
0.0000
 11
15.5090
 21
64.9612
 31
0.0000
  0
LINE
  8
48
 10
16.9158
 20
64.4617
 30
0.0000
 11
16.9158
 21
65.4608
 31
0.0000
  0
LINE
  8
48
 10
16.9158
 20
65.4608
 30
0.0000
 11
17.3320
 21
65.4608
 31
0.0000
  0
ARC
  8
48
 10
17.3320
 20
65.2110
 30
0.0000
 40
0.2498
 50
0.0014
 51
90.0000
  0
LINE
  8
48
 10
17.5818
 20
65.2110
 30
0.0000
 11
17.5818
 21
64.4617
 31
0.0000
  0
ARC
  8
48
 10
1.8676
 20
62.9186
 30
0.0000
 40
0.3747
 50
0.0000
 51
90.0000
  0
ARC
  8
48
 10
1.8676
 20
62.8120
 30
0.0000
 40
0.4813
 50
90.0001
 51
162.0554
  0
ARC
  8
48
 10
1.8398
 20
62.9186
 30
0.0000
 40
0.4024
 50
313.6040
 51
359.9998
  0
LINE
  8
48
 10
2.1174
 20
62.6273
 30
0.0000
 11
1.4097
 21
61.7947
 31
0.0000
  0
LINE
  8
48
 10
1.4097
 20
61.7947
 30
0.0000
 11
2.2423
 21
61.7947
 31
0.0000
  0
ARC
  8
48
 10
4.2078
 20
62.5440
 30
0.0000
 40
1.2350
 50
154.0110
 51
180.0001
  0
ARC
  8
48
 10
3.3891
 20
62.9853
 30
0.0000
 40
0.3080
 50
90.0000
 51
161.0754
  0
ARC
  8
48
 10
3.3891
 20
62.9853
 30
0.0000
 40
0.3080
 50
18.9245
 51
90.0001
  0
ARC
  8
48
 10
2.5704
 20
62.5440
 30
0.0000
 40
1.2350
 50
359.9999
 51
25.9890
  0
ARC
  8
48
 10
4.2078
 20
62.5440
 30
0.0000
 40
1.2350
 50
180.0000
 51
205.9888
  0
ARC
  8
48
 10
3.3891
 20
62.1027
 30
0.0000
 40
0.3080
 50
198.9247
 51
270.0001
  0
ARC
  8
48
 10
2.5704
 20
62.5440
 30
0.0000
 40
1.2350
 50
334.0112
 51
0.0000
  0
ARC
  8
48
 10
3.3891
 20
62.1027
 30
0.0000
 40
0.3080
 50
270.0000
 51
341.0751
  0
LINE
  8
48
 10
3.0561
 20
62.1277
 30
0.0000
 11
3.7221
 21
62.9603
 31
0.0000
  0
LINE
  8
48
 10
4.5359
 20
62.9603
 30
0.0000
 11
4.9522
 21
63.2933
 31
0.0000
  0
LINE
  8
48
 10
4.9522
 20
63.2933
 30
0.0000
 11
4.9522
 21
61.7947
 31
0.0000
  0
LINE
  8
48
 10
4.5359
 20
61.7947
 30
0.0000
 11
5.3685
 21
61.7947
 31
0.0000
  0
LINE
  8
48
 10
6.9316
 20
62.4607
 30
0.0000
 11
6.4321
 21
62.4607
 31
0.0000
  0
ARC
  8
48
 10
6.4321
 20
62.7938
 30
0.0000
 40
0.3330
 50
180.0000
 51
270.0000
  0
LINE
  8
48
 10
6.0991
 20
62.7938
 30
0.0000
 11
6.0991
 21
62.8770
 31
0.0000
  0
ARC
  8
48
 10
6.5153
 20
62.8770
 30
0.0000
 40
0.4163
 50
0.0000
 51
180.0000
  0
LINE
  8
48
 10
6.9316
 20
62.8770
 30
0.0000
 11
6.9316
 21
62.4607
 31
0.0000
  0
ARC
  8
48
 10
6.2656
 20
62.4607
 30
0.0000
 40
0.6660
 50
270.0000
 51
0.0000
  0
LINE
  8
21
 10
28.5560
 20
1.8860
 30
0.0000
 11
28.5560
 21
3.3845
 31
0.0000
  0
LINE
  8
21
 10
28.5560
 20
3.3845
 30
0.0000
 11
28.9722
 21
3.3845
 31
0.0000
  0
ARC
  8
21
 10
28.9722
 20
2.9683
 30
0.0000
 40
0.4163
 50
270.0000
 51
90.0000
  0
LINE
  8
21
 10
28.9722
 20
2.5520
 30
0.0000
 11
28.5560
 21
2.5520
 31
0.0000
  0
LINE
  8
21
 10
29.9825
 20
1.8860
 30
0.0000
 11
29.9825
 21
2.8850
 31
0.0000
  0
LINE
  8
21
 10
29.9409
 20
3.3013
 30
0.0000
 11
29.9409
 21
3.3845
 31
0.0000
  0
LINE
  8
21
 10
29.9409
 20
3.3845
 30
0.0000
 11
30.0241
 21
3.3845
 31
0.0000
  0
LINE
  8
21
 10
30.0241
 20
3.3845
 30
0.0000
 11
30.0241
 21
3.3013
 31
0.0000
  0
LINE
  8
21
 10
30.0241
 20
3.3013
 30
0.0000
 11
29.9409
 21
3.3013
 31
0.0000
  0
LINE
  8
21
 10
30.6604
 20
3.0515
 30
0.0000
 11
31.0767
 21
3.3845
 31
0.0000
  0
LINE
  8
21
 10
31.0767
 20
3.3845
 30
0.0000
 11
31.0767
 21
1.8860
 31
0.0000
  0
LINE
  8
21
 10
30.6604
 20
1.8860
 30
0.0000
 11
31.4930
 21
1.8860
 31
0.0000
  0
LINE
  8
21
 10
32.2235
 20
1.8860
 30
0.0000
 11
32.7231
 21
1.8860
 31
0.0000
  0
ARC
  8
21
 10
32.7231
 20
2.2190
 30
0.0000
 40
0.3330
 50
270.0000
 51
0.0005
  0
LINE
  8
21
 10
33.0561
 20
2.2190
 30
0.0000
 11
33.0561
 21
2.3855
 31
0.0000
  0
ARC
  8
21
 10
32.7231
 20
2.3855
 30
0.0000
 40
0.3330
 50
0.0000
 51
90.0000
  0
LINE
  8
21
 10
32.7231
 20
2.7185
 30
0.0000
 11
32.2235
 21
2.7185
 31
0.0000
  0
LINE
  8
21
 10
32.2235
 20
2.7185
 30
0.0000
 11
32.2235
 21
3.3845
 31
0.0000
  0
LINE
  8
21
 10
32.2235
 20
3.3845
 30
0.0000
 11
33.0561
 21
3.3845
 31
0.0000
  0
LINE
  8
21
 10
34.1197
 20
3.3845
 30
0.0000
 11
33.7867
 21
2.2190
 31
0.0000
  0
LINE
  8
21
 10
33.7867
 20
2.2190
 30
0.0000
 11
34.6192
 21
2.2190
 31
0.0000
  0
LINE
  8
21
 10
34.3694
 20
2.5520
 30
0.0000
 11
34.3694
 21
1.8860
 31
0.0000
  0
LINE
  8
21
 10
35.3498
 20
3.0515
 30
0.0000
 11
35.7660
 21
3.3845
 31
0.0000
  0
LINE
  8
21
 10
35.7660
 20
3.3845
 30
0.0000
 11
35.7660
 21
1.8860
 31
0.0000
  0
LINE
  8
21
 10
35.3498
 20
1.8860
 30
0.0000
 11
36.1823
 21
1.8860
 31
0.0000
  0
LINE
  8
21
 10
36.9338
 20
2.4687
 30
0.0000
 11
37.9329
 21
2.4687
 31
0.0000
  0
LINE
  8
21
 10
38.7881
 20
3.3845
 30
0.0000
 11
38.7881
 21
1.8860
 31
0.0000
  0
LINE
  8
21
 10
38.6216
 20
1.8860
 30
0.0000
 11
38.9546
 21
1.8860
 31
0.0000
  0
LINE
  8
21
 10
38.6216
 20
3.3845
 30
0.0000
 11
38.9546
 21
3.3845
 31
0.0000
  0
LINE
  8
21
 10
40.3450
 20
1.8860
 30
0.0000
 11
39.6789
 21
1.8860
 31
0.0000
  0
LINE
  8
21
 10
39.6789
 20
1.8860
 30
0.0000
 11
39.6789
 21
3.3845
 31
0.0000
  0
LINE
  8
21
 10
39.6789
 20
3.3845
 30
0.0000
 11
40.3450
 21
3.3845
 31
0.0000
  0
LINE
  8
21
 10
39.6789
 20
2.7185
 30
0.0000
 11
40.1784
 21
2.7185
 31
0.0000
  0
LINE
  8
21
 10
41.6371
 20
1.8860
 30
0.0000
 11
41.3041
 21
1.8860
 31
0.0000
  0
ARC
  8
21
 10
41.3041
 20
2.2190
 30
0.0000
 40
0.3330
 50
180.0000
 51
270.0000
  0
LINE
  8
21
 10
40.9711
 20
2.2190
 30
0.0000
 11
40.9711
 21
3.0515
 31
0.0000
  0
ARC
  8
21
 10
41.3041
 20
3.0515
 30
0.0000
 40
0.3330
 50
90.0005
 51
180.0000
  0
LINE
  8
21
 10
41.3041
 20
3.3845
 30
0.0000
 11
41.6371
 21
3.3845
 31
0.0000
  0
LINE
  8
21
 10
43.1792
 20
1.8860
 30
0.0000
 11
43.1792
 21
3.3845
 31
0.0000
  0
LINE
  8
21
 10
43.1792
 20
3.3845
 30
0.0000
 11
43.5955
 21
3.3845
 31
0.0000
  0
ARC
  8
21
 10
43.5955
 20
2.9683
 30
0.0000
 40
0.4163
 50
270.0000
 51
90.0000
  0
LINE
  8
21
 10
43.5955
 20
2.5520
 30
0.0000
 11
43.1792
 21
2.5520
 31
0.0000
  0
LINE
  8
21
 10
44.0117
 20
1.8860
 30
0.0000
 11
43.6787
 21
2.5520
 31
0.0000
  0
LINE
  8
21
 10
45.3736
 20
1.8860
 30
0.0000
 11
44.9573
 21
1.8860
 31
0.0000
  0
ARC
  8
21
 10
44.9573
 20
2.1357
 30
0.0000
 40
0.2498
 50
180.0000
 51
270.0000
  0
LINE
  8
21
 10
44.7076
 20
2.1357
 30
0.0000
 11
44.7076
 21
2.5520
 31
0.0000
  0
ARC
  8
21
 10
45.0406
 20
2.5520
 30
0.0000
 40
0.3330
 50
0.0000
 51
180.0000
  0
LINE
  8
21
 10
45.3736
 20
2.5520
 30
0.0000
 11
45.3736
 21
2.3855
 31
0.0000
  0
LINE
  8
21
 10
45.3736
 20
2.3855
 30
0.0000
 11
44.7076
 21
2.3855
 31
0.0000
  0
LINE
  8
21
 10
46.0102
 20
2.8850
 30
0.0000
 11
46.3432
 21
1.8860
 31
0.0000
  0
LINE
  8
21
 10
46.3432
 20
1.8860
 30
0.0000
 11
46.6762
 21
2.8850
 31
0.0000
  0
LINE
  8
21
 10
47.2394
 20
1.8860
 30
0.0000
 11
47.2394
 21
1.9692
 31
0.0000
  0
LINE
  8
21
 10
47.2394
 20
1.9692
 30
0.0000
 11
47.3227
 21
1.9692
 31
0.0000
  0
LINE
  8
21
 10
47.3227
 20
1.9692
 30
0.0000
 11
47.3227
 21
1.8860
 31
0.0000
  0
LINE
  8
21
 10
47.3227
 20
1.8860
 30
0.0000
 11
47.2394
 21
1.8860
 31
0.0000
  0
LINE
  8
21
 10
48.7926
 20
3.0515
 30
0.0000
 11
49.2089
 21
3.3845
 31
0.0000
  0
LINE
  8
21
 10
49.2089
 20
3.3845
 30
0.0000
 11
49.2089
 21
1.8860
 31
0.0000
  0
LINE
  8
21
 10
48.7926
 20
1.8860
 30
0.0000
 11
49.6252
 21
1.8860
 31
0.0000
  0
LINE
  8
21
 10
46.4312
 20
8.0137
 30
0.0000
 11
46.4312
 21
9.6393
 31
0.0000
  0
LINE
  8
21
 10
46.4312
 20
9.6393
 30
0.0000
 11
46.8828
 21
9.6393
 31
0.0000
  0
ARC
  8
21
 10
46.8828
 20
9.1877
 30
0.0000
 40
0.4516
 50
270.0000
 51
90.0000
  0
LINE
  8
21
 10
46.8828
 20
8.7362
 30
0.0000
 11
46.4312
 21
8.7362
 31
0.0000
  0
LINE
  8
21
 10
47.8829
 20
9.0974
 30
0.0000
 11
48.1538
 21
8.0137
 31
0.0000
  0
LINE
  8
21
 10
48.1538
 20
8.0137
 30
0.0000
 11
48.4248
 21
8.7362
 31
0.0000
  0
LINE
  8
21
 10
48.4248
 20
8.7362
 30
0.0000
 11
48.6957
 21
8.0137
 31
0.0000
  0
LINE
  8
21
 10
48.6957
 20
8.0137
 30
0.0000
 11
48.9666
 21
9.0974
 31
0.0000
  0
LINE
  8
21
 10
49.6351
 20
8.0137
 30
0.0000
 11
49.6351
 21
9.0974
 31
0.0000
  0
LINE
  8
21
 10
49.6351
 20
9.0974
 30
0.0000
 11
50.1770
 21
9.0974
 31
0.0000
  0
LINE
  8
21
 10
50.1770
 20
9.0974
 30
0.0000
 11
50.1770
 21
8.9168
 31
0.0000
  0
LINE
  8
21
 10
50.6965
 20
8.6459
 30
0.0000
 11
51.7803
 21
8.6459
 31
0.0000
  0
ARC
  8
21
 10
52.9439
 20
8.3749
 30
0.0000
 40
0.3612
 50
270.0000
 51
0.0000
  0
ARC
  8
21
 10
52.9439
 20
8.7768
 30
0.0000
 40
0.7631
 50
224.7608
 51
269.9999
  0
ARC
  8
21
 10
52.8085
 20
9.2781
 30
0.0000
 40
0.3612
 50
89.9995
 51
180.0000
  0
ARC
  8
21
 10
52.8085
 20
8.9620
 30
0.0000
 40
0.6773
 50
53.1301
 51
89.9995
  0
ARC
  8
21
 10
52.8141
 20
9.2781
 30
0.0000
 40
0.3669
 50
179.9998
 51
239.4900
  0
ARC
  8
21
 10
52.9383
 20
8.3749
 30
0.0000
 40
0.3669
 50
0.0000
 51
59.4898
  0
LINE
  8
21
 10
53.1246
 20
8.6910
 30
0.0000
 11
52.6278
 21
8.9620
 31
0.0000
  0
LINE
  8
21
 10
53.8749
 20
9.0974
 30
0.0000
 11
54.1458
 21
8.0137
 31
0.0000
  0
LINE
  8
21
 10
54.1458
 20
8.0137
 30
0.0000
 11
54.4168
 21
8.7362
 31
0.0000
  0
LINE
  8
21
 10
54.4168
 20
8.7362
 30
0.0000
 11
54.6877
 21
8.0137
 31
0.0000
  0
LINE
  8
21
 10
54.6877
 20
8.0137
 30
0.0000
 11
54.9586
 21
9.0974
 31
0.0000
  0
LINE
  8
21
 10
55.5630
 20
8.0137
 30
0.0000
 11
55.5630
 21
9.0974
 31
0.0000
  0
LINE
  8
21
 10
55.5179
 20
9.5490
 30
0.0000
 11
55.5179
 21
9.6393
 31
0.0000
  0
LINE
  8
21
 10
55.5179
 20
9.6393
 30
0.0000
 11
55.6082
 21
9.6393
 31
0.0000
  0
LINE
  8
21
 10
55.6082
 20
9.6393
 30
0.0000
 11
55.6082
 21
9.5490
 31
0.0000
  0
LINE
  8
21
 10
55.6082
 20
9.5490
 30
0.0000
 11
55.5179
 21
9.5490
 31
0.0000
  0
LINE
  8
21
 10
56.0620
 20
9.0974
 30
0.0000
 11
56.6039
 21
9.0974
 31
0.0000
  0
LINE
  8
21
 10
56.2427
 20
9.6393
 30
0.0000
 11
56.2427
 21
8.2846
 31
0.0000
  0
ARC
  8
21
 10
56.5136
 20
8.2846
 30
0.0000
 40
0.2709
 50
180.0000
 51
270.0000
  0
LINE
  8
21
 10
56.5136
 20
8.0137
 30
0.0000
 11
56.6039
 21
8.0137
 31
0.0000
  0
LINE
  8
21
 10
57.8157
 20
8.0137
 30
0.0000
 11
57.4544
 21
8.0137
 31
0.0000
  0
ARC
  8
21
 10
57.4544
 20
8.2846
 30
0.0000
 40
0.2709
 50
180.0000
 51
270.0000
  0
LINE
  8
21
 10
57.1835
 20
8.2846
 30
0.0000
 11
57.1835
 21
8.8265
 31
0.0000
  0
ARC
  8
21
 10
57.4544
 20
8.8265
 30
0.0000
 40
0.2709
 50
90.0000
 51
180.0000
  0
LINE
  8
21
 10
57.4544
 20
9.0974
 30
0.0000
 11
57.8157
 21
9.0974
 31
0.0000
  0
LINE
  8
21
 10
58.4322
 20
8.0137
 30
0.0000
 11
58.4322
 21
9.6393
 31
0.0000
  0
LINE
  8
21
 10
58.4322
 20
9.0974
 30
0.0000
 11
58.8838
 21
9.0974
 31
0.0000
  0
ARC
  8
21
 10
58.8838
 20
8.8265
 30
0.0000
 40
0.2709
 50
0.0007
 51
90.0000
  0
LINE
  8
21
 10
59.1547
 20
8.8265
 30
0.0000
 11
59.1547
 21
8.0137
 31
0.0000
  0
LINE
  8
21
 10
67.7700
 20
12.5400
 30
0.0000
 11
67.7700
 21
7.4600
 31
0.0000
  0
LINE
  8
21
 10
65.2300
 20
7.4600
 30
0.0000
 11
67.7700
 21
7.4600
 31
0.0000
  0
LINE
  8
21
 10
65.2300
 20
7.4600
 30
0.0000
 11
65.2300
 21
12.5400
 31
0.0000
  0
LINE
  8
21
 10
67.7700
 20
12.5400
 30
0.0000
 11
65.2300
 21
12.5400
 31
0.0000
  0
LINE
  8
25
 10
67.0842
 20
10.7686
 30
0.0000
 11
67.0842
 21
10.5089
 31
0.0000
  0
ARC
  8
25
 10
66.8246
 20
10.5089
 30
0.0000
 40
0.2596
 50
270.0000
 51
0.0000
  0
LINE
  8
25
 10
66.8246
 20
10.2493
 30
0.0000
 11
66.1754
 21
10.2493
 31
0.0000
  0
ARC
  8
25
 10
66.1754
 20
10.5089
 30
0.0000
 40
0.2596
 50
180.0014
 51
270.0000
  0
LINE
  8
25
 10
65.9158
 20
10.5089
 30
0.0000
 11
65.9158
 21
10.7686
 31
0.0000
  0
LINE
  8
25
 10
66.1754
 20
11.2051
 30
0.0000
 11
65.9158
 21
11.5296
 31
0.0000
  0
LINE
  8
25
 10
65.9158
 20
11.5296
 30
0.0000
 11
67.0842
 21
11.5296
 31
0.0000
  0
LINE
  8
25
 10
67.0842
 20
11.2051
 30
0.0000
 11
67.0842
 21
11.8542
 31
0.0000
  0
LINE
  8
21
 10
64.7500
 20
15.4000
 30
0.0000
 11
64.7500
 21
5.6000
 31
0.0000
  0
LINE
  8
21
 10
64.7500
 20
5.6000
 30
0.0000
 11
59.7500
 21
5.6000
 31
0.0000
  0
LINE
  8
21
 10
59.7500
 20
5.6000
 30
0.0000
 11
59.7500
 21
15.4000
 31
0.0000
  0
LINE
  8
21
 10
59.7500
 20
15.4000
 30
0.0000
 11
64.7500
 21
15.4000
 31
0.0000
  0
CIRCLE
  8
51
 10
62.2500
 20
18.0000
 30
0.0000
 40
0.5000
  0
CIRCLE
  8
51
 10
62.2500
 20
3.0000
 30
0.0000
 40
0.5000
  0
INSERT
  8
21
  2
RECT
 10
62.2500
 20
7.0000
 30
0.0000
 41
1.0000
 42
5.0000
 43
1.0000
 50
270.0000
  0
INSERT
  8
21
  2
RECT
 10
62.2500
 20
16.2500
 30
0.0000
 41
1.7000
 42
1.0000
 43
1.0000
 50
270.0000
  0
INSERT
  8
21
  2
RECT
 10
62.2500
 20
4.7500
 30
0.0000
 41
1.7000
 42
1.0000
 43
1.0000
 50
270.0000
  0
INSERT
  8
51
  2
RECT
 10
62.2500
 20
3.4500
 30
0.0000
 41
0.9000
 42
1.0000
 43
1.0000
 50
270.0000
  0
INSERT
  8
51
  2
RECT
 10
62.2500
 20
17.5500
 30
0.0000
 41
0.9000
 42
1.0000
 43
1.0000
 50
270.0000
  0
LINE
  8
25
 10
62.6692
 20
12.8190
 30
0.0000
 11
61.5008
 21
12.8190
 31
0.0000
  0
LINE
  8
25
 10
61.5008
 20
12.8190
 30
0.0000
 11
61.5008
 21
13.1435
 31
0.0000
  0
ARC
  8
25
 10
61.8254
 20
13.1435
 30
0.0000
 40
0.3246
 50
90.0000
 51
180.0000
  0
LINE
  8
25
 10
61.8254
 20
13.4681
 30
0.0000
 11
62.3446
 21
13.4681
 31
0.0000
  0
ARC
  8
25
 10
62.3446
 20
13.1436
 30
0.0000
 40
0.3246
 50
359.9994
 51
90.0000
  0
LINE
  8
25
 10
62.6692
 20
13.1435
 30
0.0000
 11
62.6692
 21
12.8190
 31
0.0000
  0
LINE
  8
25
 10
61.7604
 20
14.0001
 30
0.0000
 11
61.5008
 21
14.3246
 31
0.0000
  0
LINE
  8
25
 10
61.5008
 20
14.3246
 30
0.0000
 11
62.6692
 21
14.3246
 31
0.0000
  0
LINE
  8
25
 10
62.6692
 20
14.0001
 30
0.0000
 11
62.6692
 21
14.6492
 31
0.0000
  0
LINE
  8
21
 10
25.5000
 20
22.9500
 30
0.0000
 11
24.5000
 21
22.9500
 31
0.0000
  0
LINE
  8
21
 10
24.5000
 20
22.9500
 30
0.0000
 11
22.7000
 21
22.9500
 31
0.0000
  0
LINE
  8
21
 10
20.3000
 20
22.9500
 30
0.0000
 11
18.1000
 21
22.9500
 31
0.0000
  0
LINE
  8
21
 10
18.1000
 20
22.9500
 30
0.0000
 11
14.9000
 21
22.9500
 31
0.0000
  0
LINE
  8
21
 10
14.9000
 20
22.9500
 30
0.0000
 11
12.7000
 21
22.9500
 31
0.0000
  0
LINE
  8
21
 10
10.3000
 20
22.9500
 30
0.0000
 11
8.5000
 21
22.9500
 31
0.0000
  0
LINE
  8
21
 10
8.5000
 20
22.9500
 30
0.0000
 11
7.5000
 21
22.9500
 31
0.0000
  0
LINE
  8
21
 10
7.5000
 20
22.9500
 30
0.0000
 11
7.5000
 21
11.4500
 31
0.0000
  0
LINE
  8
21
 10
7.5000
 20
11.4500
 30
0.0000
 11
7.5000
 21
7.1500
 31
0.0000
  0
ARC
  8
21
 10
8.2000
 20
7.1500
 30
0.0000
 40
0.7000
 50
180.0000
 51
270.0000
  0
LINE
  8
21
 10
8.2000
 20
6.4500
 30
0.0000
 11
10.3000
 21
6.4500
 31
0.0000
  0
ARC
  8
21
 10
10.3000
 20
7.1500
 30
0.0000
 40
0.7000
 50
270.0000
 51
0.0000
  0
LINE
  8
21
 10
11.0000
 20
7.1500
 30
0.0000
 11
11.0000
 21
8.9500
 31
0.0000
  0
LINE
  8
21
 10
18.5000
 20
8.9500
 30
0.0000
 11
18.5000
 21
7.1500
 31
0.0000
  0
ARC
  8
21
 10
17.8000
 20
7.1500
 30
0.0000
 40
0.7000
 50
270.0000
 51
0.0000
  0
LINE
  8
21
 10
14.5000
 20
8.9500
 30
0.0000
 11
14.5000
 21
7.1500
 31
0.0000
  0
ARC
  8
21
 10
15.2000
 20
7.1500
 30
0.0000
 40
0.7000
 50
180.0000
 51
270.0000
  0
LINE
  8
21
 10
15.2000
 20
6.4500
 30
0.0000
 11
17.8000
 21
6.4500
 31
0.0000
  0
LINE
  8
21
 10
24.8000
 20
6.4500
 30
0.0000
 11
22.7000
 21
6.4500
 31
0.0000
  0
ARC
  8
21
 10
22.7000
 20
7.1500
 30
0.0000
 40
0.7000
 50
180.0000
 51
270.0000
  0
LINE
  8
21
 10
22.0000
 20
7.1500
 30
0.0000
 11
22.0000
 21
8.9500
 31
0.0000
  0
ARC
  8
21
 10
24.8000
 20
7.1500
 30
0.0000
 40
0.7000
 50
270.0000
 51
0.0000
  0
LINE
  8
21
 10
25.5000
 20
7.1500
 30
0.0000
 11
25.5000
 21
11.4500
 31
0.0000
  0
LINE
  8
21
 10
25.5000
 20
11.4500
 30
0.0000
 11
25.5000
 21
22.9500
 31
0.0000
  0
LINE
  8
21
 10
22.0000
 20
8.9500
 30
0.0000
 11
18.5000
 21
8.9500
 31
0.0000
  0
LINE
  8
21
 10
14.5000
 20
8.9500
 30
0.0000
 11
11.0000
 21
8.9500
 31
0.0000
  0
LINE
  8
21
 10
25.5000
 20
11.4500
 30
0.0000
 11
24.5000
 21
11.4500
 31
0.0000
  0
LINE
  8
21
 10
24.5000
 20
11.4500
 30
0.0000
 11
22.1000
 21
11.4500
 31
0.0000
  0
LINE
  8
21
 10
20.9000
 20
11.4500
 30
0.0000
 11
18.1000
 21
11.4500
 31
0.0000
  0
LINE
  8
21
 10
18.1000
 20
11.4500
 30
0.0000
 11
14.9000
 21
11.4500
 31
0.0000
  0
LINE
  8
21
 10
14.9000
 20
11.4500
 30
0.0000
 11
12.1000
 21
11.4500
 31
0.0000
  0
LINE
  8
21
 10
10.9000
 20
11.4500
 30
0.0000
 11
8.5000
 21
11.4500
 31
0.0000
  0
LINE
  8
21
 10
8.5000
 20
11.4500
 30
0.0000
 11
7.5000
 21
11.4500
 31
0.0000
  0
LINE
  8
21
 10
18.1000
 20
22.9500
 30
0.0000
 11
18.1000
 21
11.4500
 31
0.0000
  0
LINE
  8
21
 10
14.9000
 20
22.9500
 30
0.0000
 11
14.9000
 21
11.4500
 31
0.0000
  0
LINE
  8
21
 10
8.5000
 20
22.9500
 30
0.0000
 11
8.5000
 21
14.0500
 31
0.0000
  0
LINE
  8
21
 10
8.5000
 20
11.8500
 30
0.0000
 11
8.5000
 21
11.4500
 31
0.0000
  0
LINE
  8
21
 10
24.5000
 20
22.9500
 30
0.0000
 11
24.5000
 21
14.0500
 31
0.0000
  0
LINE
  8
21
 10
24.5000
 20
11.8500
 30
0.0000
 11
24.5000
 21
11.4500
 31
0.0000
  0
LINE
  8
21
 10
27.1000
 20
25.4500
 30
0.0000
 11
7.5000
 21
25.4500
 31
0.0000
  0
LINE
  8
21
 10
5.9000
 20
24.7500
 30
0.0000
 11
5.9000
 21
23.9500
 31
0.0000
  0
LINE
  8
21
 10
27.1000
 20
25.4500
 30
0.0000
 11
27.1000
 21
24.6500
 31
0.0000
  0
LINE
  8
21
 10
27.1000
 20
24.6500
 30
0.0000
 11
25.5000
 21
24.6500
 31
0.0000
  0
LINE
  8
21
 10
25.5000
 20
24.6500
 30
0.0000
 11
25.5000
 21
23.9500
 31
0.0000
  0
LINE
  8
21
 10
5.9000
 20
24.7500
 30
0.0000
 11
7.5000
 21
24.7500
 31
0.0000
  0
LINE
  8
21
 10
7.5000
 20
24.7500
 30
0.0000
 11
7.5000
 21
25.4500
 31
0.0000
  0
LINE
  8
21
 10
23.6000
 20
9.4500
 30
0.0000
 11
23.6000
 21
7.4500
 31
0.0000
  0
LINE
  8
21
 10
23.6000
 20
7.4500
 30
0.0000
 11
24.4000
 21
7.4500
 31
0.0000
  0
LINE
  8
21
 10
24.4000
 20
7.4500
 30
0.0000
 11
24.4000
 21
9.4500
 31
0.0000
  0
LINE
  8
21
 10
24.4000
 20
9.4500
 30
0.0000
 11
23.6000
 21
9.4500
 31
0.0000
  0
LINE
  8
21
 10
8.6000
 20
9.4500
 30
0.0000
 11
8.6000
 21
7.4500
 31
0.0000
  0
LINE
  8
21
 10
8.6000
 20
7.4500
 30
0.0000
 11
9.4000
 21
7.4500
 31
0.0000
  0
LINE
  8
21
 10
9.4000
 20
7.4500
 30
0.0000
 11
9.4000
 21
9.4500
 31
0.0000
  0
LINE
  8
21
 10
9.4000
 20
9.4500
 30
0.0000
 11
8.6000
 21
9.4500
 31
0.0000
  0
LINE
  8
21
 10
8.5000
 20
22.9500
 30
0.0000
 11
8.5000
 21
23.9500
 31
0.0000
  0
LINE
  8
21
 10
8.5000
 20
23.9500
 30
0.0000
 11
5.9000
 21
23.9500
 31
0.0000
  0
LINE
  8
21
 10
25.5000
 20
23.9500
 30
0.0000
 11
24.5000
 21
23.9500
 31
0.0000
  0
LINE
  8
21
 10
24.5000
 20
23.9500
 30
0.0000
 11
24.5000
 21
22.9500
 31
0.0000
  0
LINE
  8
51
 10
22.7000
 20
22.9500
 30
0.0000
 11
20.3000
 21
22.9500
 31
0.0000
  0
LINE
  8
51
 10
12.7000
 20
22.9500
 30
0.0000
 11
10.3000
 21
22.9500
 31
0.0000
  0
LINE
  8
51
 10
24.5000
 20
14.0500
 30
0.0000
 11
24.5000
 21
11.8500
 31
0.0000
  0
LINE
  8
51
 10
22.1000
 20
11.4500
 30
0.0000
 11
20.9000
 21
11.4500
 31
0.0000
  0
LINE
  8
51
 10
12.1000
 20
11.4500
 30
0.0000
 11
10.9000
 21
11.4500
 31
0.0000
  0
LINE
  8
51
 10
8.5000
 20
14.0500
 30
0.0000
 11
8.5000
 21
11.8500
 31
0.0000
  0
LINE
  8
21
 10
8.4765
 20
6.2492
 30
0.0000
 11
8.4765
 21
5.3404
 31
0.0000
  0
ARC
  8
21
 10
8.2169
 20
5.3404
 30
0.0000
 40
0.2596
 50
270.0000
 51
0.0000
  0
LINE
  8
21
 10
8.2169
 20
5.0808
 30
0.0000
 11
8.0870
 21
5.0808
 31
0.0000
  0
LINE
  8
21
 10
9.0038
 20
5.9896
 30
0.0000
 11
9.3284
 21
6.2492
 31
0.0000
  0
LINE
  8
21
 10
9.3284
 20
6.2492
 30
0.0000
 11
9.3284
 21
5.0808
 31
0.0000
  0
LINE
  8
21
 10
9.0038
 20
5.0808
 30
0.0000
 11
9.6530
 21
5.0808
 31
0.0000
  0
LINE
  8
21
 10
45.5000
 20
22.9500
 30
0.0000
 11
44.5000
 21
22.9500
 31
0.0000
  0
LINE
  8
21
 10
44.5000
 20
22.9500
 30
0.0000
 11
42.7000
 21
22.9500
 31
0.0000
  0
LINE
  8
21
 10
40.3000
 20
22.9500
 30
0.0000
 11
38.1000
 21
22.9500
 31
0.0000
  0
LINE
  8
21
 10
38.1000
 20
22.9500
 30
0.0000
 11
34.9000
 21
22.9500
 31
0.0000
  0
LINE
  8
21
 10
34.9000
 20
22.9500
 30
0.0000
 11
32.7000
 21
22.9500
 31
0.0000
  0
LINE
  8
21
 10
30.3000
 20
22.9500
 30
0.0000
 11
28.5000
 21
22.9500
 31
0.0000
  0
LINE
  8
21
 10
28.5000
 20
22.9500
 30
0.0000
 11
27.5000
 21
22.9500
 31
0.0000
  0
LINE
  8
21
 10
27.5000
 20
22.9500
 30
0.0000
 11
27.5000
 21
11.4500
 31
0.0000
  0
LINE
  8
21
 10
27.5000
 20
11.4500
 30
0.0000
 11
27.5000
 21
7.1500
 31
0.0000
  0
ARC
  8
21
 10
28.2000
 20
7.1500
 30
0.0000
 40
0.7000
 50
180.0000
 51
270.0000
  0
LINE
  8
21
 10
28.2000
 20
6.4500
 30
0.0000
 11
30.3000
 21
6.4500
 31
0.0000
  0
ARC
  8
21
 10
30.3000
 20
7.1500
 30
0.0000
 40
0.7000
 50
270.0000
 51
0.0000
  0
LINE
  8
21
 10
31.0000
 20
7.1500
 30
0.0000
 11
31.0000
 21
8.9500
 31
0.0000
  0
LINE
  8
21
 10
38.5000
 20
8.9500
 30
0.0000
 11
38.5000
 21
7.1500
 31
0.0000
  0
ARC
  8
21
 10
37.8000
 20
7.1500
 30
0.0000
 40
0.7000
 50
270.0000
 51
0.0000
  0
LINE
  8
21
 10
34.5000
 20
8.9500
 30
0.0000
 11
34.5000
 21
7.1500
 31
0.0000
  0
ARC
  8
21
 10
35.2000
 20
7.1500
 30
0.0000
 40
0.7000
 50
180.0000
 51
270.0000
  0
LINE
  8
21
 10
35.2000
 20
6.4500
 30
0.0000
 11
37.8000
 21
6.4500
 31
0.0000
  0
LINE
  8
21
 10
44.8000
 20
6.4500
 30
0.0000
 11
42.7000
 21
6.4500
 31
0.0000
  0
ARC
  8
21
 10
42.7000
 20
7.1500
 30
0.0000
 40
0.7000
 50
180.0000
 51
270.0000
  0
LINE
  8
21
 10
42.0000
 20
7.1500
 30
0.0000
 11
42.0000
 21
8.9500
 31
0.0000
  0
ARC
  8
21
 10
44.8000
 20
7.1500
 30
0.0000
 40
0.7000
 50
270.0000
 51
0.0000
  0
LINE
  8
21
 10
45.5000
 20
7.1500
 30
0.0000
 11
45.5000
 21
11.4500
 31
0.0000
  0
LINE
  8
21
 10
45.5000
 20
11.4500
 30
0.0000
 11
45.5000
 21
22.9500
 31
0.0000
  0
LINE
  8
21
 10
42.0000
 20
8.9500
 30
0.0000
 11
38.5000
 21
8.9500
 31
0.0000
  0
LINE
  8
21
 10
34.5000
 20
8.9500
 30
0.0000
 11
31.0000
 21
8.9500
 31
0.0000
  0
LINE
  8
21
 10
45.5000
 20
11.4500
 30
0.0000
 11
44.5000
 21
11.4500
 31
0.0000
  0
LINE
  8
21
 10
44.5000
 20
11.4500
 30
0.0000
 11
42.1000
 21
11.4500
 31
0.0000
  0
LINE
  8
21
 10
40.9000
 20
11.4500
 30
0.0000
 11
38.1000
 21
11.4500
 31
0.0000
  0
LINE
  8
21
 10
38.1000
 20
11.4500
 30
0.0000
 11
34.9000
 21
11.4500
 31
0.0000
  0
LINE
  8
21
 10
34.9000
 20
11.4500
 30
0.0000
 11
32.1000
 21
11.4500
 31
0.0000
  0
LINE
  8
21
 10
30.9000
 20
11.4500
 30
0.0000
 11
28.5000
 21
11.4500
 31
0.0000
  0
LINE
  8
21
 10
28.5000
 20
11.4500
 30
0.0000
 11
27.5000
 21
11.4500
 31
0.0000
  0
LINE
  8
21
 10
38.1000
 20
22.9500
 30
0.0000
 11
38.1000
 21
11.4500
 31
0.0000
  0
LINE
  8
21
 10
34.9000
 20
22.9500
 30
0.0000
 11
34.9000
 21
11.4500
 31
0.0000
  0
LINE
  8
21
 10
28.5000
 20
22.9500
 30
0.0000
 11
28.5000
 21
14.0500
 31
0.0000
  0
LINE
  8
21
 10
28.5000
 20
11.8500
 30
0.0000
 11
28.5000
 21
11.4500
 31
0.0000
  0
LINE
  8
21
 10
44.5000
 20
22.9500
 30
0.0000
 11
44.5000
 21
14.0500
 31
0.0000
  0
LINE
  8
21
 10
44.5000
 20
11.8500
 30
0.0000
 11
44.5000
 21
11.4500
 31
0.0000
  0
LINE
  8
21
 10
47.1000
 20
25.4500
 30
0.0000
 11
27.5000
 21
25.4500
 31
0.0000
  0
LINE
  8
21
 10
25.9000
 20
24.7500
 30
0.0000
 11
25.9000
 21
23.9500
 31
0.0000
  0
LINE
  8
21
 10
47.1000
 20
25.4500
 30
0.0000
 11
47.1000
 21
24.6500
 31
0.0000
  0
LINE
  8
21
 10
47.1000
 20
24.6500
 30
0.0000
 11
45.5000
 21
24.6500
 31
0.0000
  0
LINE
  8
21
 10
45.5000
 20
24.6500
 30
0.0000
 11
45.5000
 21
23.9500
 31
0.0000
  0
LINE
  8
21
 10
25.9000
 20
24.7500
 30
0.0000
 11
27.5000
 21
24.7500
 31
0.0000
  0
LINE
  8
21
 10
27.5000
 20
24.7500
 30
0.0000
 11
27.5000
 21
25.4500
 31
0.0000
  0
LINE
  8
21
 10
43.6000
 20
9.4500
 30
0.0000
 11
43.6000
 21
7.4500
 31
0.0000
  0
LINE
  8
21
 10
43.6000
 20
7.4500
 30
0.0000
 11
44.4000
 21
7.4500
 31
0.0000
  0
LINE
  8
21
 10
44.4000
 20
7.4500
 30
0.0000
 11
44.4000
 21
9.4500
 31
0.0000
  0
LINE
  8
21
 10
44.4000
 20
9.4500
 30
0.0000
 11
43.6000
 21
9.4500
 31
0.0000
  0
LINE
  8
21
 10
28.6000
 20
9.4500
 30
0.0000
 11
28.6000
 21
7.4500
 31
0.0000
  0
LINE
  8
21
 10
28.6000
 20
7.4500
 30
0.0000
 11
29.4000
 21
7.4500
 31
0.0000
  0
LINE
  8
21
 10
29.4000
 20
7.4500
 30
0.0000
 11
29.4000
 21
9.4500
 31
0.0000
  0
LINE
  8
21
 10
29.4000
 20
9.4500
 30
0.0000
 11
28.6000
 21
9.4500
 31
0.0000
  0
LINE
  8
21
 10
28.5000
 20
22.9500
 30
0.0000
 11
28.5000
 21
23.9500
 31
0.0000
  0
LINE
  8
21
 10
28.5000
 20
23.9500
 30
0.0000
 11
25.9000
 21
23.9500
 31
0.0000
  0
LINE
  8
21
 10
45.5000
 20
23.9500
 30
0.0000
 11
44.5000
 21
23.9500
 31
0.0000
  0
LINE
  8
21
 10
44.5000
 20
23.9500
 30
0.0000
 11
44.5000
 21
22.9500
 31
0.0000
  0
LINE
  8
51
 10
42.7000
 20
22.9500
 30
0.0000
 11
40.3000
 21
22.9500
 31
0.0000
  0
LINE
  8
51
 10
32.7000
 20
22.9500
 30
0.0000
 11
30.3000
 21
22.9500
 31
0.0000
  0
LINE
  8
51
 10
44.5000
 20
14.0500
 30
0.0000
 11
44.5000
 21
11.8500
 31
0.0000
  0
LINE
  8
51
 10
42.1000
 20
11.4500
 30
0.0000
 11
40.9000
 21
11.4500
 31
0.0000
  0
LINE
  8
51
 10
32.1000
 20
11.4500
 30
0.0000
 11
30.9000
 21
11.4500
 31
0.0000
  0
LINE
  8
51
 10
28.5000
 20
14.0500
 30
0.0000
 11
28.5000
 21
11.8500
 31
0.0000
  0
LINE
  8
21
 10
42.9803
 20
6.3405
 30
0.0000
 11
42.9803
 21
5.4317
 31
0.0000
  0
ARC
  8
21
 10
42.7206
 20
5.4317
 30
0.0000
 40
0.2596
 50
270.0000
 51
0.0000
  0
LINE
  8
21
 10
42.7206
 20
5.1721
 30
0.0000
 11
42.5908
 21
5.1721
 31
0.0000
  0
ARC
  8
21
 10
43.8646
 20
6.0484
 30
0.0000
 40
0.2921
 50
0.0000
 51
90.0000
  0
ARC
  8
21
 10
43.8646
 20
5.9652
 30
0.0000
 40
0.3753
 50
90.0001
 51
162.0549
  0
ARC
  8
21
 10
43.8430
 20
6.0484
 30
0.0000
 40
0.3138
 50
313.6040
 51
359.9996
  0
LINE
  8
21
 10
44.0593
 20
5.8212
 30
0.0000
 11
43.5076
 21
5.1721
 31
0.0000
  0
LINE
  8
21
 10
43.5076
 20
5.1721
 30
0.0000
 11
44.1567
 21
5.1721
 31
0.0000
  0
LINE
  8
21
 10
57.5000
 20
25.5000
 30
0.0000
 11
48.5000
 21
25.5000
 31
0.0000
  0
LINE
  8
21
 10
48.5000
 20
25.5000
 30
0.0000
 11
48.5000
 21
22.0000
 31
0.0000
  0
LINE
  8
21
 10
48.5000
 20
22.0000
 30
0.0000
 11
48.8000
 21
22.0000
 31
0.0000
  0
LINE
  8
21
 10
48.8000
 20
22.0000
 30
0.0000
 11
57.2000
 21
22.0000
 31
0.0000
  0
LINE
  8
21
 10
57.2000
 20
22.0000
 30
0.0000
 11
57.5000
 21
22.0000
 31
0.0000
  0
LINE
  8
21
 10
57.5000
 20
22.0000
 30
0.0000
 11
57.5000
 21
25.5000
 31
0.0000
  0
LINE
  8
21
 10
57.5000
 20
22.0000
 30
0.0000
 11
57.5000
 21
11.5000
 31
0.0000
  0
LINE
  8
21
 10
57.5000
 20
11.5000
 30
0.0000
 11
57.2000
 21
11.5000
 31
0.0000
  0
LINE
  8
21
 10
57.2000
 20
11.5000
 30
0.0000
 11
54.5000
 21
11.5000
 31
0.0000
  0
LINE
  8
21
 10
54.5000
 20
11.5000
 30
0.0000
 11
54.2000
 21
11.5000
 31
0.0000
  0
LINE
  8
21
 10
51.8000
 20
11.5000
 30
0.0000
 11
51.5000
 21
11.5000
 31
0.0000
  0
LINE
  8
21
 10
51.5000
 20
11.5000
 30
0.0000
 11
48.8000
 21
11.5000
 31
0.0000
  0
LINE
  8
21
 10
48.8000
 20
11.5000
 30
0.0000
 11
48.5000
 21
11.5000
 31
0.0000
  0
LINE
  8
21
 10
48.5000
 20
11.5000
 30
0.0000
 11
48.5000
 21
13.8000
 31
0.0000
  0
LINE
  8
21
 10
48.5000
 20
16.0000
 30
0.0000
 11
48.5000
 21
22.0000
 31
0.0000
  0
LINE
  8
21
 10
57.2000
 20
22.0000
 30
0.0000
 11
57.2000
 21
11.5000
 31
0.0000
  0
LINE
  8
21
 10
48.8000
 20
22.0000
 30
0.0000
 11
48.8000
 21
15.8000
 31
0.0000
  0
LINE
  8
21
 10
48.8000
 20
14.0000
 30
0.0000
 11
48.8000
 21
11.5000
 31
0.0000
  0
LINE
  8
21
 10
54.5000
 20
11.0000
 30
0.0000
 11
54.5000
 21
11.5000
 31
0.0000
  0
LINE
  8
21
 10
51.5000
 20
11.5000
 30
0.0000
 11
51.5000
 21
11.0000
 31
0.0000
  0
LINE
  8
21
 10
51.5000
 20
11.0000
 30
0.0000
 11
51.8000
 21
11.0000
 31
0.0000
  0
LINE
  8
21
 10
54.5000
 20
11.0000
 30
0.0000
 11
54.2000
 21
11.0000
 31
0.0000
  0
LINE
  8
21
 10
53.0000
 20
28.4000
 30
0.0000
 11
53.0000
 21
26.5000
 31
0.0000
  0
LINE
  8
21
 10
53.0000
 20
26.5000
 30
0.0000
 11
52.6000
 21
26.9000
 31
0.0000
  0
LINE
  8
21
 10
53.0000
 20
26.5000
 30
0.0000
 11
53.4000
 21
26.9000
 31
0.0000
  0
LINE
  8
21
 10
54.5000
 20
11.0000
 30
0.0000
 11
57.5000
 21
11.0000
 31
0.0000
  0
LINE
  8
21
 10
57.5000
 20
11.0000
 30
0.0000
 11
57.5000
 21
11.5000
 31
0.0000
  0
LINE
  8
21
 10
51.5000
 20
11.0000
 30
0.0000
 11
48.5000
 21
11.0000
 31
0.0000
  0
LINE
  8
21
 10
48.5000
 20
11.0000
 30
0.0000
 11
48.5000
 21
11.5000
 31
0.0000
  0
LINE
  8
51
 10
54.2000
 20
11.5000
 30
0.0000
 11
51.8000
 21
11.5000
 31
0.0000
  0
LINE
  8
51
 10
51.8000
 20
11.0000
 30
0.0000
 11
54.2000
 21
11.0000
 31
0.0000
  0
LINE
  8
51
 10
48.8000
 20
15.8000
 30
0.0000
 11
48.8000
 21
14.0000
 31
0.0000
  0
LINE
  8
51
 10
48.5000
 20
16.0000
 30
0.0000
 11
48.5000
 21
15.5000
 31
0.0000
  0
LINE
  8
51
 10
48.5000
 20
15.5000
 30
0.0000
 11
48.5000
 21
14.3000
 31
0.0000
  0
LINE
  8
51
 10
48.5000
 20
14.3000
 30
0.0000
 11
48.5000
 21
13.8000
 31
0.0000
  0
LINE
  8
51
 10
48.5000
 20
14.3000
 30
0.0000
 11
48.0000
 21
14.3000
 31
0.0000
  0
LINE
  8
51
 10
48.0000
 20
14.3000
 30
0.0000
 11
48.0000
 21
15.5000
 31
0.0000
  0
LINE
  8
51
 10
48.0000
 20
15.5000
 30
0.0000
 11
48.5000
 21
15.5000
 31
0.0000
  0
LINE
  8
25
 10
46.5978
 20
11.4517
 30
0.0000
 11
46.5978
 21
10.5429
 31
0.0000
  0
ARC
  8
25
 10
46.3381
 20
10.5429
 30
0.0000
 40
0.2596
 50
270.0000
 51
0.0000
  0
LINE
  8
25
 10
46.3381
 20
10.2833
 30
0.0000
 11
46.2083
 21
10.2833
 31
0.0000
  0
LINE
  8
25
 10
47.1251
 20
10.2833
 30
0.0000
 11
47.4496
 21
10.2833
 31
0.0000
  0
ARC
  8
25
 10
47.4496
 20
10.6079
 30
0.0000
 40
0.3246
 50
270.0000
 51
90.0000
  0
LINE
  8
25
 10
47.1251
 20
11.4517
 30
0.0000
 11
47.5146
 21
11.4517
 31
0.0000
  0
ARC
  8
25
 10
47.5146
 20
11.1921
 30
0.0000
 40
0.2596
 50
270.0000
 51
90.0000
  0
LINE
  8
25
 10
47.5146
 20
10.9324
 30
0.0000
 11
47.2549
 21
10.9324
 31
0.0000
  0
LINE
  8
21
 10
52.3875
 20
7.1438
 30
0.0000
 11
53.6575
 21
7.1438
 31
0.0000
  0
LINE
  8
21
 10
53.6575
 20
7.1438
 30
0.0000
 11
53.9750
 21
6.8262
 31
0.0000
  0
LINE
  8
51
 10
53.9750
 20
6.8262
 30
0.0000
 11
54.2925
 21
6.5088
 31
0.0000
  0
LINE
  8
51
 10
54.2925
 20
6.5088
 30
0.0000
 11
54.2925
 21
5.2388
 31
0.0000
  0
LINE
  8
51
 10
54.2925
 20
5.2388
 30
0.0000
 11
53.9750
 21
4.9213
 31
0.0000
  0
LINE
  8
21
 10
53.9750
 20
4.9213
 30
0.0000
 11
53.6575
 21
4.6037
 31
0.0000
  0
LINE
  8
21
 10
51.7525
 20
6.5088
 30
0.0000
 11
51.7525
 21
5.2388
 31
0.0000
  0
LINE
  8
21
 10
52.3875
 20
7.1438
 30
0.0000
 11
51.7525
 21
6.5088
 31
0.0000
  0
LINE
  8
21
 10
51.7525
 20
5.2388
 30
0.0000
 11
51.7525
 21
4.6037
 31
0.0000
  0
LINE
  8
21
 10
53.6575
 20
4.6037
 30
0.0000
 11
51.7525
 21
4.6037
 31
0.0000
  0
LINE
  8
51
 10
54.2925
 20
6.5088
 30
0.0000
 11
54.6100
 21
6.8262
 31
0.0000
  0
LINE
  8
21
 10
54.6100
 20
6.8262
 30
0.0000
 11
54.9275
 21
7.1438
 31
0.0000
  0
LINE
  8
21
 10
54.9275
 20
7.1438
 30
0.0000
 11
56.1975
 21
7.1438
 31
0.0000
  0
LINE
  8
21
 10
56.1975
 20
7.1438
 30
0.0000
 11
56.8325
 21
6.5088
 31
0.0000
  0
LINE
  8
21
 10
56.8325
 20
6.5088
 30
0.0000
 11
56.8325
 21
5.2388
 31
0.0000
  0
LINE
  8
21
 10
56.8325
 20
5.2388
 30
0.0000
 11
56.1975
 21
4.6037
 31
0.0000
  0
LINE
  8
21
 10
56.1975
 20
4.6037
 30
0.0000
 11
54.9275
 21
4.6037
 31
0.0000
  0
LINE
  8
21
 10
54.9275
 20
4.6037
 30
0.0000
 11
54.6100
 21
4.9213
 31
0.0000
  0
LINE
  8
51
 10
54.6100
 20
4.9213
 30
0.0000
 11
54.2925
 21
5.2388
 31
0.0000
  0
INSERT
  8
51
  2
RECT
 10
53.0225
 20
5.8738
 30
0.0000
 41
0.5080
 42
0.5080
 43
1.0000
 50
0.0000
  0
INSERT
  8
51
  2
RECT
 10
55.5625
 20
5.8738
 30
0.0000
 41
0.5080
 42
0.5080
 43
1.0000
 50
0.0000
  0
LINE
  8
25
 10
57.2770
 20
4.8091
 30
0.0000
 11
58.1858
 21
4.8091
 31
0.0000
  0
ARC
  8
25
 10
58.1858
 20
4.5494
 30
0.0000
 40
0.2596
 50
0.0000
 51
90.0000
  0
LINE
  8
25
 10
58.4454
 20
4.5494
 30
0.0000
 11
58.4454
 21
4.4196
 31
0.0000
  0
LINE
  8
25
 10
58.4454
 20
5.3914
 30
0.0000
 11
57.2770
 21
5.3914
 31
0.0000
  0
LINE
  8
25
 10
57.2770
 20
5.3914
 30
0.0000
 11
57.2770
 21
5.7160
 31
0.0000
  0
ARC
  8
25
 10
57.6016
 20
5.7160
 30
0.0000
 40
0.3246
 50
0.0000
 51
180.0000
  0
LINE
  8
25
 10
57.9261
 20
5.7160
 30
0.0000
 11
57.9261
 21
5.3914
 31
0.0000
  0
LINE
  8
25
 10
57.5366
 20
6.4794
 30
0.0000
 11
57.2770
 21
6.8040
 31
0.0000
  0
LINE
  8
25
 10
57.2770
 20
6.8040
 30
0.0000
 11
58.4454
 21
6.8040
 31
0.0000
  0
LINE
  8
25
 10
58.4454
 20
6.4794
 30
0.0000
 11
58.4454
 21
7.1285
 31
0.0000
  0
LINE
  8
21
 10
0.5000
 20
25.5000
 30
0.0000
 11
5.5000
 21
25.5000
 31
0.0000
  0
LINE
  8
21
 10
5.5000
 20
25.5000
 30
0.0000
 11
5.5000
 21
21.6000
 31
0.0000
  0
LINE
  8
21
 10
5.5000
 20
18.0000
 30
0.0000
 11
5.5000
 21
16.5000
 31
0.0000
  0
LINE
  8
21
 10
5.5000
 20
16.5000
 30
0.0000
 11
0.5000
 21
16.5000
 31
0.0000
  0
LINE
  8
21
 10
0.5000
 20
16.5000
 30
0.0000
 11
0.5000
 21
18.0000
 31
0.0000
  0
LINE
  8
21
 10
0.5000
 20
21.6000
 30
0.0000
 11
0.5000
 21
25.5000
 31
0.0000
  0
LINE
  8
51
 10
3.0000
 20
28.5000
 30
0.0000
 11
3.0000
 21
25.6500
 31
0.0000
  0
LINE
  8
51
 10
3.0000
 20
24.9687
 30
0.0000
 11
3.0000
 21
24.8314
 31
0.0000
  0
LINE
  8
51
 10
3.0000
 20
24.1500
 30
0.0000
 11
3.0000
 21
21.3000
 31
0.0000
  0
LINE
  8
51
 10
3.0000
 20
21.3000
 30
0.0000
 11
3.0000
 21
19.1500
 31
0.0000
  0
LINE
  8
51
 10
3.0000
 20
18.4687
 30
0.0000
 11
3.0000
 21
18.3314
 31
0.0000
  0
LINE
  8
51
 10
3.0000
 20
17.6500
 30
0.0000
 11
3.0000
 21
15.5000
 31
0.0000
  0
ARC
  8
51
 10
3.0095
 20
19.8067
 30
0.0000
 40
1.4933
 50
160.7108
 51
90.3646
  0
LINE
  8
51
 10
0.5000
 20
21.6000
 30
0.0000
 11
0.5000
 21
18.0000
 31
0.0000
  0
LINE
  8
51
 10
5.5000
 20
21.6000
 30
0.0000
 11
5.5000
 21
18.0000
 31
0.0000
  0
CIRCLE
  8
51
 10
3.0000
 20
19.8000
 30
0.0000
 40
1.2500
  0
LINE
  8
25
 10
0.8896
 20
14.6683
 30
0.0000
 11
0.8896
 21
15.8367
 31
0.0000
  0
LINE
  8
25
 10
0.8896
 20
15.8367
 30
0.0000
 11
1.2790
 21
15.1876
 31
0.0000
  0
LINE
  8
25
 10
1.2790
 20
15.1876
 30
0.0000
 11
1.6685
 21
15.8367
 31
0.0000
  0
LINE
  8
25
 10
1.6685
 20
15.8367
 30
0.0000
 11
1.6685
 21
14.6683
 31
0.0000
  0
LINE
  8
25
 10
2.2668
 20
14.6683
 30
0.0000
 11
2.2668
 21
15.8367
 31
0.0000
  0
LINE
  8
25
 10
2.2668
 20
15.8367
 30
0.0000
 11
2.5913
 21
15.8367
 31
0.0000
  0
ARC
  8
25
 10
2.5913
 20
15.5121
 30
0.0000
 40
0.3246
 50
270.0000
 51
90.0000
  0
LINE
  8
25
 10
2.5913
 20
15.1876
 30
0.0000
 11
2.2668
 21
15.1876
 31
0.0000
  0
LINE
  8
25
 10
3.6031
 20
14.6683
 30
0.0000
 11
3.6031
 21
15.8367
 31
0.0000
  0
LINE
  8
25
 10
3.2786
 20
15.8367
 30
0.0000
 11
3.9277
 21
15.8367
 31
0.0000
  0
LINE
  8
25
 10
4.3454
 20
15.5771
 30
0.0000
 11
4.6699
 21
15.8367
 31
0.0000
  0
LINE
  8
25
 10
4.6699
 20
15.8367
 30
0.0000
 11
4.6699
 21
14.6683
 31
0.0000
  0
LINE
  8
25
 10
4.3454
 20
14.6683
 30
0.0000
 11
4.9945
 21
14.6683
 31
0.0000
  0
LINE
  8
21
 10
68.5000
 20
25.5000
 30
0.0000
 11
73.5000
 21
25.5000
 31
0.0000
  0
LINE
  8
21
 10
73.5000
 20
25.5000
 30
0.0000
 11
73.5000
 21
21.6000
 31
0.0000
  0
LINE
  8
21
 10
73.5000
 20
18.0000
 30
0.0000
 11
73.5000
 21
16.5000
 31
0.0000
  0
LINE
  8
21
 10
73.5000
 20
16.5000
 30
0.0000
 11
68.5000
 21
16.5000
 31
0.0000
  0
LINE
  8
21
 10
68.5000
 20
16.5000
 30
0.0000
 11
68.5000
 21
18.0000
 31
0.0000
  0
LINE
  8
21
 10
68.5000
 20
21.6000
 30
0.0000
 11
68.5000
 21
25.5000
 31
0.0000
  0
LINE
  8
51
 10
71.0000
 20
28.5000
 30
0.0000
 11
71.0000
 21
25.6500
 31
0.0000
  0
LINE
  8
51
 10
71.0000
 20
24.9687
 30
0.0000
 11
71.0000
 21
24.8314
 31
0.0000
  0
LINE
  8
51
 10
71.0000
 20
24.1500
 30
0.0000
 11
71.0000
 21
21.3000
 31
0.0000
  0
LINE
  8
51
 10
71.0000
 20
21.3000
 30
0.0000
 11
71.0000
 21
19.1500
 31
0.0000
  0
LINE
  8
51
 10
71.0000
 20
18.4687
 30
0.0000
 11
71.0000
 21
18.3314
 31
0.0000
  0
LINE
  8
51
 10
71.0000
 20
17.6500
 30
0.0000
 11
71.0000
 21
15.5000
 31
0.0000
  0
ARC
  8
51
 10
71.0095
 20
19.8067
 30
0.0000
 40
1.4933
 50
160.7108
 51
90.3646
  0
LINE
  8
51
 10
68.5000
 20
21.6000
 30
0.0000
 11
68.5000
 21
18.0000
 31
0.0000
  0
LINE
  8
51
 10
73.5000
 20
21.6000
 30
0.0000
 11
73.5000
 21
18.0000
 31
0.0000
  0
CIRCLE
  8
51
 10
71.0000
 20
19.8000
 30
0.0000
 40
1.2500
  0
LINE
  8
25
 10
69.1095
 20
14.5233
 30
0.0000
 11
69.1095
 21
15.6917
 31
0.0000
  0
LINE
  8
25
 10
69.1095
 20
15.6917
 30
0.0000
 11
69.4990
 21
15.0426
 31
0.0000
  0
LINE
  8
25
 10
69.4990
 20
15.0426
 30
0.0000
 11
69.8885
 21
15.6917
 31
0.0000
  0
LINE
  8
25
 10
69.8885
 20
15.6917
 30
0.0000
 11
69.8885
 21
14.5233
 31
0.0000
  0
LINE
  8
25
 10
70.4868
 20
14.5233
 30
0.0000
 11
70.4868
 21
15.6917
 31
0.0000
  0
LINE
  8
25
 10
70.4868
 20
15.6917
 30
0.0000
 11
70.8113
 21
15.6917
 31
0.0000
  0
ARC
  8
25
 10
70.8113
 20
15.3671
 30
0.0000
 40
0.3246
 50
270.0000
 51
90.0000
  0
LINE
  8
25
 10
70.8113
 20
15.0426
 30
0.0000
 11
70.4868
 21
15.0426
 31
0.0000
  0
LINE
  8
25
 10
71.8231
 20
14.5233
 30
0.0000
 11
71.8231
 21
15.6917
 31
0.0000
  0
LINE
  8
25
 10
71.4986
 20
15.6917
 30
0.0000
 11
72.1477
 21
15.6917
 31
0.0000
  0
ARC
  8
25
 10
72.9224
 20
15.3996
 30
0.0000
 40
0.2921
 50
0.0000
 51
90.0000
  0
ARC
  8
25
 10
72.9224
 20
15.3164
 30
0.0000
 40
0.3753
 50
90.0001
 51
162.0549
  0
ARC
  8
25
 10
72.9007
 20
15.3996
 30
0.0000
 40
0.3138
 50
313.6040
 51
359.9996
  0
LINE
  8
25
 10
73.1171
 20
15.1724
 30
0.0000
 11
72.5654
 21
14.5233
 31
0.0000
  0
LINE
  8
25
 10
72.5654
 20
14.5233
 30
0.0000
 11
73.2145
 21
14.5233
 31
0.0000
  0
LINE
  8
21
 10
4.8329
 20
9.8520
 30
0.0000
 11
4.8329
 21
13.4080
 31
0.0000
  0
LINE
  8
21
 10
6.6871
 20
13.4080
 30
0.0000
 11
6.6871
 21
9.8520
 31
0.0000
  0
LINE
  8
21
 10
4.8329
 20
13.4080
 30
0.0000
 11
6.6871
 21
13.4080
 31
0.0000
  0
LINE
  8
21
 10
4.8329
 20
9.8520
 30
0.0000
 11
6.6871
 21
9.8520
 31
0.0000
  0
LINE
  8
25
 10
5.1311
 20
8.6193
 30
0.0000
 11
5.1311
 21
9.5337
 31
0.0000
  0
LINE
  8
25
 10
5.1311
 20
9.5337
 30
0.0000
 11
5.3851
 21
9.5337
 31
0.0000
  0
ARC
  8
25
 10
5.3851
 20
9.2797
 30
0.0000
 40
0.2540
 50
270.0000
 51
90.0000
  0
LINE
  8
25
 10
5.3851
 20
9.0257
 30
0.0000
 11
5.1311
 21
9.0257
 31
0.0000
  0
LINE
  8
25
 10
5.6391
 20
8.6193
 30
0.0000
 11
5.4359
 21
9.0257
 31
0.0000
  0
LINE
  8
25
 10
6.0388
 20
9.3305
 30
0.0000
 11
6.2928
 21
9.5337
 31
0.0000
  0
LINE
  8
25
 10
6.2928
 20
9.5337
 30
0.0000
 11
6.2928
 21
8.6193
 31
0.0000
  0
LINE
  8
25
 10
6.0388
 20
8.6193
 30
0.0000
 11
6.5468
 21
8.6193
 31
0.0000
  0
LINE
  8
21
 10
45.9329
 20
20.0720
 30
0.0000
 11
45.9329
 21
23.6280
 31
0.0000
  0
LINE
  8
21
 10
47.7871
 20
23.6280
 30
0.0000
 11
47.7871
 21
20.0720
 31
0.0000
  0
LINE
  8
21
 10
45.9329
 20
23.6280
 30
0.0000
 11
47.7871
 21
23.6280
 31
0.0000
  0
LINE
  8
21
 10
45.9329
 20
20.0720
 30
0.0000
 11
47.7871
 21
20.0720
 31
0.0000
  0
LINE
  8
25
 10
47.2219
 20
18.3448
 30
0.0000
 11
46.3075
 21
18.3448
 31
0.0000
  0
LINE
  8
25
 10
46.3075
 20
18.3448
 30
0.0000
 11
46.3075
 21
18.5988
 31
0.0000
  0
ARC
  8
25
 10
46.5616
 20
18.5988
 30
0.0000
 40
0.2540
 50
0.0000
 51
180.0000
  0
LINE
  8
25
 10
46.8156
 20
18.5988
 30
0.0000
 11
46.8156
 21
18.3448
 31
0.0000
  0
LINE
  8
25
 10
47.2219
 20
18.8528
 30
0.0000
 11
46.8156
 21
18.6496
 31
0.0000
  0
ARC
  8
25
 10
46.5361
 20
19.5320
 30
0.0000
 40
0.2286
 50
90.0000
 51
180.0000
  0
ARC
  8
25
 10
46.6012
 20
19.5320
 30
0.0000
 40
0.2937
 50
180.0000
 51
252.0547
  0
ARC
  8
25
 10
46.5361
 20
19.5150
 30
0.0000
 40
0.2455
 50
43.6029
 51
89.9999
  0
LINE
  8
25
 10
46.7140
 20
19.6844
 30
0.0000
 11
47.2219
 21
19.2526
 31
0.0000
  0
LINE
  8
25
 10
47.2219
 20
19.2526
 30
0.0000
 11
47.2219
 21
19.7606
 31
0.0000
  0
LINE
  8
21
 10
66.5500
 20
25.4000
 30
0.0000
 11
64.7500
 21
25.4000
 31
0.0000
  0
LINE
  8
21
 10
64.7500
 20
25.4000
 30
0.0000
 11
61.2500
 21
25.4000
 31
0.0000
  0
LINE
  8
21
 10
61.2500
 20
25.4000
 30
0.0000
 11
59.4500
 21
25.4000
 31
0.0000
  0
LINE
  8
21
 10
59.4500
 20
25.4000
 30
0.0000
 11
59.4500
 21
21.5500
 31
0.0000
  0
LINE
  8
21
 10
59.4500
 20
19.3500
 30
0.0000
 11
59.4500
 21
18.9500
 31
0.0000
  0
LINE
  8
21
 10
59.4500
 20
18.9500
 30
0.0000
 11
59.8500
 21
18.9500
 31
0.0000
  0
LINE
  8
21
 10
59.8500
 20
18.9500
 30
0.0000
 11
59.8500
 21
19.4000
 31
0.0000
  0
LINE
  8
21
 10
59.8500
 20
21.5000
 30
0.0000
 11
59.8500
 21
21.7000
 31
0.0000
  0
LINE
  8
21
 10
59.8500
 20
21.7000
 30
0.0000
 11
59.8500
 21
25.0000
 31
0.0000
  0
LINE
  8
21
 10
59.8500
 20
25.0000
 30
0.0000
 11
66.1500
 21
25.0000
 31
0.0000
  0
LINE
  8
21
 10
66.1500
 20
25.0000
 30
0.0000
 11
66.1500
 21
21.7000
 31
0.0000
  0
LINE
  8
21
 10
66.1500
 20
21.7000
 30
0.0000
 11
66.1500
 21
21.5000
 31
0.0000
  0
LINE
  8
21
 10
66.1500
 20
19.4000
 30
0.0000
 11
66.1500
 21
18.9500
 31
0.0000
  0
LINE
  8
21
 10
66.1500
 20
18.9500
 30
0.0000
 11
66.5500
 21
18.9500
 31
0.0000
  0
LINE
  8
21
 10
66.5500
 20
18.9500
 30
0.0000
 11
66.5500
 21
19.3500
 31
0.0000
  0
LINE
  8
21
 10
66.5500
 20
21.5500
 30
0.0000
 11
66.5500
 21
25.4000
 31
0.0000
  0
LINE
  8
21
 10
66.1500
 20
21.7000
 30
0.0000
 11
59.8500
 21
21.7000
 31
0.0000
  0
LINE
  8
21
 10
64.5500
 20
31.3000
 30
0.0000
 11
61.4500
 21
31.3000
 31
0.0000
  0
LINE
  8
21
 10
61.4500
 20
31.3000
 30
0.0000
 11
61.2500
 21
25.4000
 31
0.0000
  0
LINE
  8
21
 10
64.5500
 20
31.3000
 30
0.0000
 11
64.7500
 21
25.4000
 31
0.0000
  0
LINE
  8
51
 10
66.5500
 20
19.3500
 30
0.0000
 11
66.5500
 21
21.5500
 31
0.0000
  0
LINE
  8
51
 10
66.1500
 20
21.5000
 30
0.0000
 11
66.1500
 21
19.4000
 31
0.0000
  0
LINE
  8
51
 10
59.8500
 20
19.4000
 30
0.0000
 11
59.8500
 21
21.5000
 31
0.0000
  0
LINE
  8
51
 10
59.4500
 20
21.5500
 30
0.0000
 11
59.4500
 21
19.3500
 31
0.0000
  0
ARC
  8
25
 10
62.0315
 20
19.8517
 30
0.0000
 40
0.2596
 50
270.0000
 51
0.0000
  0
ARC
  8
25
 10
62.0315
 20
20.1406
 30
0.0000
 40
0.5485
 50
224.7610
 51
269.9999
  0
ARC
  8
25
 10
61.9341
 20
20.5008
 30
0.0000
 40
0.2596
 50
89.9993
 51
180.0000
  0
ARC
  8
25
 10
61.9341
 20
20.2736
 30
0.0000
 40
0.4868
 50
53.1301
 51
89.9993
  0
ARC
  8
25
 10
61.9382
 20
20.5008
 30
0.0000
 40
0.2637
 50
179.9998
 51
239.4902
  0
ARC
  8
25
 10
62.0275
 20
19.8517
 30
0.0000
 40
0.2637
 50
0.0001
 51
59.4899
  0
LINE
  8
25
 10
62.1613
 20
20.0789
 30
0.0000
 11
61.8043
 21
20.2736
 31
0.0000
  0
LINE
  8
25
 10
62.7046
 20
20.7605
 30
0.0000
 11
62.9643
 21
19.5921
 31
0.0000
  0
LINE
  8
25
 10
62.9643
 20
19.5921
 30
0.0000
 11
63.2239
 21
20.3710
 31
0.0000
  0
LINE
  8
25
 10
63.2239
 20
20.3710
 30
0.0000
 11
63.4835
 21
19.5921
 31
0.0000
  0
LINE
  8
25
 10
63.4835
 20
19.5921
 30
0.0000
 11
63.7432
 21
20.7605
 31
0.0000
  0
LINE
  8
25
 10
64.1947
 20
20.2412
 30
0.0000
 11
64.5842
 21
20.2412
 31
0.0000
  0
ARC
  8
25
 10
64.5842
 20
19.9815
 30
0.0000
 40
0.2596
 50
0.0000
 51
90.0000
  0
LINE
  8
25
 10
64.8439
 20
19.9815
 30
0.0000
 11
64.8439
 21
19.9166
 31
0.0000
  0
ARC
  8
25
 10
64.5193
 20
19.9166
 30
0.0000
 40
0.3246
 50
180.0000
 51
0.0000
  0
LINE
  8
25
 10
64.1947
 20
19.9166
 30
0.0000
 11
64.1947
 21
20.2412
 31
0.0000
  0
ARC
  8
25
 10
64.7140
 20
20.2412
 30
0.0000
 40
0.5193
 50
90.0003
 51
180.0000
  0
LINE
  8
48
 10
54.6100
 20
51.0188
 30
0.0000
 11
54.6100
 21
54.1938
 31
0.0000
  0
LINE
  8
48
 10
54.6100
 20
54.1938
 30
0.0000
 11
54.6100
 21
57.3688
 31
0.0000
  0
LINE
  8
48
 10
54.6100
 20
57.3688
 30
0.0000
 11
54.6100
 21
60.5438
 31
0.0000
  0
LINE
  8
48
 10
54.6100
 20
60.5438
 30
0.0000
 11
54.6100
 21
63.7188
 31
0.0000
  0
LINE
  8
48
 10
54.6100
 20
63.7188
 30
0.0000
 11
54.6100
 21
66.8937
 31
0.0000
  0
LINE
  8
48
 10
54.6100
 20
66.8937
 30
0.0000
 11
22.8600
 21
66.8937
 31
0.0000
  0
LINE
  8
48
 10
22.8600
 20
66.8937
 30
0.0000
 11
0.0000
 21
66.8937
 31
0.0000
  0
LINE
  8
48
 10
0.0000
 20
66.8937
 30
0.0000
 11
0.0000
 21
60.5438
 31
0.0000
  0
LINE
  8
48
 10
0.0000
 20
60.5438
 30
0.0000
 11
0.0000
 21
57.3688
 31
0.0000
  0
LINE
  8
48
 10
0.0000
 20
57.3688
 30
0.0000
 11
0.0000
 21
54.1938
 31
0.0000
  0
LINE
  8
48
 10
0.0000
 20
54.1938
 30
0.0000
 11
0.0000
 21
51.0188
 31
0.0000
  0
LINE
  8
48
 10
0.0000
 20
51.0188
 30
0.0000
 11
54.6100
 21
51.0188
 31
0.0000
  0
LINE
  8
48
 10
0.0000
 20
54.1938
 30
0.0000
 11
36.8300
 21
54.1938
 31
0.0000
  0
LINE
  8
48
 10
36.8300
 20
54.1938
 30
0.0000
 11
54.6100
 21
54.1938
 31
0.0000
  0
LINE
  8
48
 10
0.0000
 20
57.3688
 30
0.0000
 11
36.8300
 21
57.3688
 31
0.0000
  0
LINE
  8
48
 10
36.8300
 20
57.3688
 30
0.0000
 11
54.6100
 21
57.3688
 31
0.0000
  0
LINE
  8
48
 10
0.0000
 20
60.5438
 30
0.0000
 11
22.8600
 21
60.5438
 31
0.0000
  0
LINE
  8
48
 10
22.8600
 20
60.5438
 30
0.0000
 11
36.8300
 21
60.5438
 31
0.0000
  0
LINE
  8
48
 10
36.8300
 20
60.5438
 30
0.0000
 11
54.6100
 21
60.5438
 31
0.0000
  0
LINE
  8
48
 10
22.8600
 20
66.8937
 30
0.0000
 11
22.8600
 21
63.7188
 31
0.0000
  0
LINE
  8
48
 10
22.8600
 20
63.7188
 30
0.0000
 11
22.8600
 21
60.5438
 31
0.0000
  0
LINE
  8
48
 10
22.8600
 20
63.7188
 30
0.0000
 11
36.8300
 21
63.7188
 31
0.0000
  0
LINE
  8
48
 10
36.8300
 20
63.7188
 30
0.0000
 11
54.6100
 21
63.7188
 31
0.0000
  0
LINE
  8
48
 10
36.8300
 20
63.7188
 30
0.0000
 11
36.8300
 21
60.5438
 31
0.0000
  0
LINE
  8
48
 10
36.8300
 20
57.3688
 30
0.0000
 11
36.8300
 21
54.1938
 31
0.0000
  0
LINE
  8
21
 10
1.3589
 20
51.9289
 30
0.0000
 11
1.3589
 21
53.2751
 31
0.0000
  0
LINE
  8
21
 10
1.3589
 20
53.2751
 30
0.0000
 11
1.7328
 21
53.2751
 31
0.0000
  0
ARC
  8
21
 10
1.7328
 20
53.0508
 30
0.0000
 40
0.2244
 50
0.0000
 51
90.0000
  0
LINE
  8
21
 10
1.9572
 20
53.0508
 30
0.0000
 11
1.9572
 21
52.6020
 31
0.0000
  0
ARC
  8
21
 10
1.7328
 20
52.6020
 30
0.0000
 40
0.2244
 50
270.0008
 51
0.0000
  0
LINE
  8
21
 10
1.7328
 20
52.3777
 30
0.0000
 11
1.3589
 21
52.3777
 31
0.0000
  0
LINE
  8
21
 10
2.5485
 20
53.7239
 30
0.0000
 11
2.5485
 21
52.6020
 31
0.0000
  0
ARC
  8
21
 10
2.7729
 20
52.6020
 30
0.0000
 40
0.2244
 50
180.0000
 51
270.0000
  0
LINE
  8
21
 10
3.8564
 20
52.9012
 30
0.0000
 11
3.5199
 21
52.9012
 31
0.0000
  0
ARC
  8
21
 10
3.5199
 20
52.6394
 30
0.0000
 40
0.2618
 50
90.0000
 51
270.0000
  0
LINE
  8
21
 10
3.5199
 20
52.3777
 30
0.0000
 11
3.8564
 21
52.3777
 31
0.0000
  0
LINE
  8
21
 10
3.8564
 20
52.3777
 30
0.0000
 11
3.8564
 21
53.0508
 31
0.0000
  0
ARC
  8
21
 10
3.6320
 20
53.0508
 30
0.0000
 40
0.2244
 50
0.0000
 51
90.0000
  0
LINE
  8
21
 10
3.6320
 20
53.2751
 30
0.0000
 11
3.3329
 21
53.2751
 31
0.0000
  0
LINE
  8
21
 10
5.0241
 20
52.3777
 30
0.0000
 11
4.7250
 21
52.3777
 31
0.0000
  0
ARC
  8
21
 10
4.7250
 20
52.6020
 30
0.0000
 40
0.2244
 50
180.0000
 51
270.0000
  0
LINE
  8
21
 10
4.5006
 20
52.6020
 30
0.0000
 11
4.5006
 21
53.0508
 31
0.0000
  0
ARC
  8
21
 10
4.7250
 20
53.0508
 30
0.0000
 40
0.2244
 50
89.9992
 51
180.0000
  0
LINE
  8
21
 10
4.7250
 20
53.2751
 30
0.0000
 11
5.0241
 21
53.2751
 31
0.0000
  0
LINE
  8
21
 10
6.1464
 20
52.3777
 30
0.0000
 11
5.7725
 21
52.3777
 31
0.0000
  0
ARC
  8
21
 10
5.7725
 20
52.6020
 30
0.0000
 40
0.2244
 50
180.0000
 51
270.0000
  0
LINE
  8
21
 10
5.5481
 20
52.6020
 30
0.0000
 11
5.5481
 21
52.9760
 31
0.0000
  0
ARC
  8
21
 10
5.8473
 20
52.9760
 30
0.0000
 40
0.2992
 50
0.0000
 51
180.0000
  0
LINE
  8
21
 10
6.1464
 20
52.9760
 30
0.0000
 11
6.1464
 21
52.8264
 31
0.0000
  0
LINE
  8
21
 10
6.1464
 20
52.8264
 30
0.0000
 11
5.5481
 21
52.8264
 31
0.0000
  0
LINE
  8
21
 10
6.8130
 20
52.3777
 30
0.0000
 11
6.8130
 21
53.2751
 31
0.0000
  0
LINE
  8
21
 10
6.8130
 20
53.2751
 30
0.0000
 11
7.4861
 21
53.2751
 31
0.0000
  0
ARC
  8
21
 10
7.4861
 20
53.0508
 30
0.0000
 40
0.2244
 50
0.0000
 51
90.0000
  0
LINE
  8
21
 10
7.7105
 20
53.0508
 30
0.0000
 11
7.7105
 21
52.3777
 31
0.0000
  0
LINE
  8
21
 10
7.2617
 20
52.3777
 30
0.0000
 11
7.2617
 21
53.2751
 31
0.0000
  0
LINE
  8
21
 10
8.9754
 20
52.3777
 30
0.0000
 11
8.6014
 21
52.3777
 31
0.0000
  0
ARC
  8
21
 10
8.6014
 20
52.6020
 30
0.0000
 40
0.2244
 50
180.0000
 51
270.0000
  0
LINE
  8
21
 10
8.3771
 20
52.6020
 30
0.0000
 11
8.3771
 21
52.9760
 31
0.0000
  0
ARC
  8
21
 10
8.6762
 20
52.9760
 30
0.0000
 40
0.2992
 50
0.0000
 51
180.0000
  0
LINE
  8
21
 10
8.9754
 20
52.9760
 30
0.0000
 11
8.9754
 21
52.8264
 31
0.0000
  0
LINE
  8
21
 10
8.9754
 20
52.8264
 30
0.0000
 11
8.3771
 21
52.8264
 31
0.0000
  0
LINE
  8
21
 10
9.6090
 20
52.3777
 30
0.0000
 11
9.6090
 21
53.2751
 31
0.0000
  0
LINE
  8
21
 10
9.6090
 20
53.2751
 30
0.0000
 11
9.9830
 21
53.2751
 31
0.0000
  0
ARC
  8
21
 10
9.9830
 20
53.0508
 30
0.0000
 40
0.2244
 50
0.0000
 51
90.0000
  0
LINE
  8
21
 10
10.2074
 20
53.0508
 30
0.0000
 11
10.2074
 21
52.3777
 31
0.0000
  0
LINE
  8
21
 10
10.7198
 20
53.2751
 30
0.0000
 11
11.1685
 21
53.2751
 31
0.0000
  0
LINE
  8
21
 10
10.8694
 20
53.7239
 30
0.0000
 11
10.8694
 21
52.6020
 31
0.0000
  0
ARC
  8
21
 10
11.0937
 20
52.6020
 30
0.0000
 40
0.2244
 50
180.0000
 51
270.0000
  0
LINE
  8
21
 10
11.0937
 20
52.3777
 30
0.0000
 11
11.1685
 21
52.3777
 31
0.0000
  0
LINE
  8
21
 10
12.9635
 20
52.3777
 30
0.0000
 11
12.6643
 21
52.3777
 31
0.0000
  0
ARC
  8
21
 10
12.6643
 20
52.6020
 30
0.0000
 40
0.2244
 50
180.0000
 51
270.0000
  0
LINE
  8
21
 10
12.4400
 20
52.6020
 30
0.0000
 11
12.4400
 21
53.0508
 31
0.0000
  0
ARC
  8
21
 10
12.6643
 20
53.0508
 30
0.0000
 40
0.2244
 50
89.9992
 51
180.0000
  0
LINE
  8
21
 10
12.6643
 20
53.2751
 30
0.0000
 11
12.9635
 21
53.2751
 31
0.0000
  0
LINE
  8
21
 10
13.4875
 20
52.6768
 30
0.0000
 11
13.4875
 21
52.9760
 31
0.0000
  0
ARC
  8
21
 10
13.7866
 20
52.9760
 30
0.0000
 40
0.2992
 50
0.0000
 51
180.0000
  0
LINE
  8
21
 10
14.0858
 20
52.9760
 30
0.0000
 11
14.0858
 21
52.6768
 31
0.0000
  0
ARC
  8
21
 10
13.7866
 20
52.6768
 30
0.0000
 40
0.2992
 50
180.0000
 51
0.0000
  0
LINE
  8
21
 10
14.7524
 20
52.3777
 30
0.0000
 11
14.7524
 21
53.2751
 31
0.0000
  0
LINE
  8
21
 10
14.7524
 20
53.2751
 30
0.0000
 11
15.4255
 21
53.2751
 31
0.0000
  0
ARC
  8
21
 10
15.4255
 20
53.0508
 30
0.0000
 40
0.2244
 50
0.0000
 51
90.0000
  0
LINE
  8
21
 10
15.6498
 20
53.0508
 30
0.0000
 11
15.6498
 21
52.3777
 31
0.0000
  0
LINE
  8
21
 10
15.2011
 20
52.3777
 30
0.0000
 11
15.2011
 21
53.2751
 31
0.0000
  0
LINE
  8
21
 10
16.3706
 20
51.9289
 30
0.0000
 11
16.3706
 21
53.2751
 31
0.0000
  0
LINE
  8
21
 10
16.3706
 20
53.2751
 30
0.0000
 11
16.7446
 21
53.2751
 31
0.0000
  0
ARC
  8
21
 10
16.7446
 20
53.0508
 30
0.0000
 40
0.2244
 50
0.0000
 51
90.0000
  0
LINE
  8
21
 10
16.9690
 20
53.0508
 30
0.0000
 11
16.9690
 21
52.6020
 31
0.0000
  0
ARC
  8
21
 10
16.7446
 20
52.6020
 30
0.0000
 40
0.2244
 50
270.0008
 51
0.0000
  0
LINE
  8
21
 10
16.7446
 20
52.3777
 30
0.0000
 11
16.3706
 21
52.3777
 31
0.0000
  0
LINE
  8
21
 10
17.5484
 20
52.6768
 30
0.0000
 11
17.5484
 21
52.9760
 31
0.0000
  0
ARC
  8
21
 10
17.8475
 20
52.9760
 30
0.0000
 40
0.2992
 50
0.0000
 51
180.0000
  0
LINE
  8
21
 10
18.1467
 20
52.9760
 30
0.0000
 11
18.1467
 21
52.6768
 31
0.0000
  0
ARC
  8
21
 10
17.8475
 20
52.6768
 30
0.0000
 40
0.2992
 50
180.0000
 51
0.0000
  0
LINE
  8
21
 10
18.7804
 20
52.3777
 30
0.0000
 11
18.7804
 21
53.2751
 31
0.0000
  0
LINE
  8
21
 10
18.7804
 20
53.2751
 30
0.0000
 11
19.1543
 21
53.2751
 31
0.0000
  0
ARC
  8
21
 10
19.1543
 20
53.0508
 30
0.0000
 40
0.2244
 50
0.0000
 51
90.0000
  0
LINE
  8
21
 10
19.3787
 20
53.0508
 30
0.0000
 11
19.3787
 21
52.3777
 31
0.0000
  0
LINE
  8
21
 10
20.6106
 20
52.3777
 30
0.0000
 11
20.2367
 21
52.3777
 31
0.0000
  0
ARC
  8
21
 10
20.2367
 20
52.6020
 30
0.0000
 40
0.2244
 50
180.0000
 51
270.0000
  0
LINE
  8
21
 10
20.0123
 20
52.6020
 30
0.0000
 11
20.0123
 21
52.9760
 31
0.0000
  0
ARC
  8
21
 10
20.3115
 20
52.9760
 30
0.0000
 40
0.2992
 50
0.0000
 51
180.0000
  0
LINE
  8
21
 10
20.6106
 20
52.9760
 30
0.0000
 11
20.6106
 21
52.8264
 31
0.0000
  0
LINE
  8
21
 10
20.6106
 20
52.8264
 30
0.0000
 11
20.0123
 21
52.8264
 31
0.0000
  0
LINE
  8
21
 10
21.2443
 20
52.3777
 30
0.0000
 11
21.2443
 21
53.2751
 31
0.0000
  0
LINE
  8
21
 10
21.2443
 20
53.2751
 30
0.0000
 11
21.6182
 21
53.2751
 31
0.0000
  0
ARC
  8
21
 10
21.6182
 20
53.0508
 30
0.0000
 40
0.2244
 50
0.0000
 51
90.0000
  0
LINE
  8
21
 10
21.8426
 20
53.0508
 30
0.0000
 11
21.8426
 21
52.3777
 31
0.0000
  0
LINE
  8
21
 10
22.3550
 20
53.2751
 30
0.0000
 11
22.8038
 21
53.2751
 31
0.0000
  0
LINE
  8
21
 10
22.5046
 20
53.7239
 30
0.0000
 11
22.5046
 21
52.6020
 31
0.0000
  0
ARC
  8
21
 10
22.7290
 20
52.6020
 30
0.0000
 40
0.2244
 50
180.0000
 51
270.0000
  0
LINE
  8
21
 10
22.7290
 20
52.3777
 30
0.0000
 11
22.8038
 21
52.3777
 31
0.0000
  0
LINE
  8
21
 10
24.5594
 20
52.7516
 30
0.0000
 11
24.1854
 21
52.9012
 31
0.0000
  0
ARC
  8
21
 10
24.2574
 20
53.0812
 30
0.0000
 40
0.1939
 50
89.1810
 51
248.1986
  0
ARC
  8
21
 10
24.2481
 20
52.4259
 30
0.0000
 40
0.8493
 50
65.7609
 51
89.1810
  0
ARC
  8
21
 10
24.4874
 20
52.5715
 30
0.0000
 40
0.1939
 50
269.1810
 51
68.1986
  0
ARC
  8
21
 10
24.5027
 20
53.6460
 30
0.0000
 40
1.2684
 50
250.2096
 51
269.1810
  0
LINE
  8
21
 10
25.2393
 20
52.3777
 30
0.0000
 11
25.2393
 21
53.2751
 31
0.0000
  0
LINE
  8
21
 10
25.2019
 20
53.6491
 30
0.0000
 11
25.2019
 21
53.7239
 31
0.0000
  0
LINE
  8
21
 10
25.2019
 20
53.7239
 30
0.0000
 11
25.2767
 21
53.7239
 31
0.0000
  0
LINE
  8
21
 10
25.2767
 20
53.7239
 30
0.0000
 11
25.2767
 21
53.6491
 31
0.0000
  0
LINE
  8
21
 10
25.2767
 20
53.6491
 30
0.0000
 11
25.2019
 21
53.6491
 31
0.0000
  0
LINE
  8
21
 10
26.3968
 20
53.7239
 30
0.0000
 11
26.3968
 21
52.3777
 31
0.0000
  0
LINE
  8
21
 10
26.3968
 20
52.3777
 30
0.0000
 11
26.0229
 21
52.3777
 31
0.0000
  0
ARC
  8
21
 10
26.0229
 20
52.6020
 30
0.0000
 40
0.2244
 50
180.0000
 51
270.0000
  0
LINE
  8
21
 10
25.7985
 20
52.6020
 30
0.0000
 11
25.7985
 21
53.0508
 31
0.0000
  0
ARC
  8
21
 10
26.0229
 20
53.0508
 30
0.0000
 40
0.2244
 50
89.9992
 51
180.0000
  0
LINE
  8
21
 10
26.0229
 20
53.2751
 30
0.0000
 11
26.3968
 21
53.2751
 31
0.0000
  0
LINE
  8
21
 10
27.6374
 20
52.3777
 30
0.0000
 11
27.2635
 21
52.3777
 31
0.0000
  0
ARC
  8
21
 10
27.2635
 20
52.6020
 30
0.0000
 40
0.2244
 50
180.0000
 51
270.0000
  0
LINE
  8
21
 10
27.0391
 20
52.6020
 30
0.0000
 11
27.0391
 21
52.9760
 31
0.0000
  0
ARC
  8
21
 10
27.3382
 20
52.9760
 30
0.0000
 40
0.2992
 50
0.0000
 51
180.0000
  0
LINE
  8
21
 10
27.6374
 20
52.9760
 30
0.0000
 11
27.6374
 21
52.8264
 31
0.0000
  0
LINE
  8
21
 10
27.6374
 20
52.8264
 30
0.0000
 11
27.0391
 21
52.8264
 31
0.0000
  0
LINE
  8
48
 10
24.2316
 20
64.4554
 30
0.0000
 11
24.2316
 21
65.9286
 31
0.0000
  0
LINE
  8
48
 10
24.2316
 20
65.9286
 30
0.0000
 11
24.6408
 21
65.9286
 31
0.0000
  0
ARC
  8
48
 10
24.6408
 20
65.5193
 30
0.0000
 40
0.4092
 50
359.9996
 51
90.0000
  0
LINE
  8
48
 10
25.0500
 20
65.5193
 30
0.0000
 11
25.0500
 21
64.8646
 31
0.0000
  0
ARC
  8
48
 10
24.6408
 20
64.8646
 30
0.0000
 40
0.4092
 50
270.0004
 51
360.0000
  0
LINE
  8
48
 10
24.6408
 20
64.4554
 30
0.0000
 11
24.2316
 21
64.4554
 31
0.0000
  0
LINE
  8
48
 10
25.7505
 20
64.7827
 30
0.0000
 11
25.7505
 21
65.1101
 31
0.0000
  0
ARC
  8
48
 10
26.0778
 20
65.1101
 30
0.0000
 40
0.3274
 50
0.0000
 51
180.0000
  0
LINE
  8
48
 10
26.4052
 20
65.1101
 30
0.0000
 11
26.4052
 21
64.7827
 31
0.0000
  0
ARC
  8
48
 10
26.0778
 20
64.7827
 30
0.0000
 40
0.3274
 50
180.0000
 51
0.0000
  0
LINE
  8
48
 10
27.6139
 20
64.4554
 30
0.0000
 11
27.2865
 21
64.4554
 31
0.0000
  0
ARC
  8
48
 10
27.2865
 20
64.7009
 30
0.0000
 40
0.2455
 50
180.0000
 51
270.0000
  0
LINE
  8
48
 10
27.0410
 20
64.7009
 30
0.0000
 11
27.0410
 21
65.1920
 31
0.0000
  0
ARC
  8
48
 10
27.2865
 20
65.1920
 30
0.0000
 40
0.2455
 50
90.0000
 51
180.0000
  0
LINE
  8
48
 10
27.2865
 20
65.4375
 30
0.0000
 11
27.6139
 21
65.4375
 31
0.0000
  0
LINE
  8
48
 10
28.1181
 20
64.4554
 30
0.0000
 11
28.1181
 21
64.5372
 31
0.0000
  0
LINE
  8
48
 10
28.1181
 20
64.5372
 30
0.0000
 11
28.2000
 21
64.5372
 31
0.0000
  0
LINE
  8
48
 10
28.2000
 20
64.5372
 30
0.0000
 11
28.2000
 21
64.4554
 31
0.0000
  0
LINE
  8
48
 10
28.2000
 20
64.4554
 30
0.0000
 11
28.1181
 21
64.4554
 31
0.0000
  0
LINE
  8
48
 10
28.8077
 20
65.0283
 30
0.0000
 11
29.7898
 21
65.0283
 31
0.0000
  0
LINE
  8
48
 10
30.5248
 20
64.4554
 30
0.0000
 11
30.5248
 21
65.9286
 31
0.0000
  0
LINE
  8
48
 10
30.5248
 20
65.9286
 30
0.0000
 11
31.3432
 21
64.4554
 31
0.0000
  0
LINE
  8
48
 10
31.3432
 20
64.4554
 30
0.0000
 11
31.3432
 21
65.9286
 31
0.0000
  0
LINE
  8
48
 10
32.0436
 20
64.7827
 30
0.0000
 11
32.0436
 21
65.1101
 31
0.0000
  0
ARC
  8
48
 10
32.3710
 20
65.1101
 30
0.0000
 40
0.3274
 50
0.0000
 51
180.0000
  0
LINE
  8
48
 10
32.6984
 20
65.1101
 30
0.0000
 11
32.6984
 21
64.7827
 31
0.0000
  0
ARC
  8
48
 10
32.3710
 20
64.7827
 30
0.0000
 40
0.3274
 50
180.0000
 51
0.0000
  0
LINE
  8
48
 10
33.2716
 20
64.4554
 30
0.0000
 11
33.2716
 21
64.5372
 31
0.0000
  0
LINE
  8
48
 10
33.2716
 20
64.5372
 30
0.0000
 11
33.3534
 21
64.5372
 31
0.0000
  0
LINE
  8
48
 10
33.3534
 20
64.5372
 30
0.0000
 11
33.3534
 21
64.4554
 31
0.0000
  0
LINE
  8
48
 10
33.3534
 20
64.4554
 30
0.0000
 11
33.2716
 21
64.4554
 31
0.0000
  0
LINE
  8
48
 10
33.9158
 20
64.5781
 30
0.0000
 11
33.9158
 21
64.6600
 31
0.0000
  0
LINE
  8
48
 10
33.9158
 20
64.6600
 30
0.0000
 11
33.9976
 21
64.6600
 31
0.0000
  0
LINE
  8
48
 10
33.9976
 20
64.6600
 30
0.0000
 11
33.9976
 21
64.5781
 31
0.0000
  0
LINE
  8
48
 10
33.9976
 20
64.5781
 30
0.0000
 11
33.9158
 21
64.5781
 31
0.0000
  0
LINE
  8
48
 10
33.9158
 20
65.2329
 30
0.0000
 11
33.9158
 21
65.3147
 31
0.0000
  0
LINE
  8
48
 10
33.9158
 20
65.3147
 30
0.0000
 11
33.9976
 21
65.3147
 31
0.0000
  0
LINE
  8
48
 10
33.9976
 20
65.3147
 30
0.0000
 11
33.9976
 21
65.2329
 31
0.0000
  0
LINE
  8
48
 10
33.9976
 20
65.2329
 30
0.0000
 11
33.9158
 21
65.2329
 31
0.0000
  0
LINE
  8
48
 10
38.2016
 20
54.9304
 30
0.0000
 11
38.2016
 21
56.4036
 31
0.0000
  0
LINE
  8
48
 10
38.2016
 20
56.4036
 30
0.0000
 11
38.6108
 21
56.4036
 31
0.0000
  0
ARC
  8
48
 10
38.6108
 20
55.9943
 30
0.0000
 40
0.4092
 50
270.0000
 51
90.0000
  0
LINE
  8
48
 10
38.6108
 20
55.5851
 30
0.0000
 11
38.2016
 21
55.5851
 31
0.0000
  0
LINE
  8
48
 10
39.0200
 20
54.9304
 30
0.0000
 11
38.6927
 21
55.5851
 31
0.0000
  0
LINE
  8
48
 10
40.3143
 20
54.9304
 30
0.0000
 11
39.9051
 21
54.9304
 31
0.0000
  0
ARC
  8
48
 10
39.9051
 20
55.1759
 30
0.0000
 40
0.2455
 50
180.0000
 51
270.0000
  0
LINE
  8
48
 10
39.6596
 20
55.1759
 30
0.0000
 11
39.6596
 21
55.5851
 31
0.0000
  0
ARC
  8
48
 10
39.9870
 20
55.5851
 30
0.0000
 40
0.3274
 50
0.0000
 51
180.0000
  0
LINE
  8
48
 10
40.3143
 20
55.5851
 30
0.0000
 11
40.3143
 21
55.4214
 31
0.0000
  0
LINE
  8
48
 10
40.3143
 20
55.4214
 30
0.0000
 11
39.6596
 21
55.4214
 31
0.0000
  0
LINE
  8
48
 10
40.8984
 20
55.9125
 30
0.0000
 11
41.2258
 21
54.9304
 31
0.0000
  0
LINE
  8
48
 10
41.2258
 20
54.9304
 30
0.0000
 11
41.5532
 21
55.9125
 31
0.0000
  0
LINE
  8
48
 10
42.0768
 20
54.9304
 30
0.0000
 11
42.0768
 21
55.0122
 31
0.0000
  0
LINE
  8
48
 10
42.0768
 20
55.0122
 30
0.0000
 11
42.1586
 21
55.0122
 31
0.0000
  0
LINE
  8
48
 10
42.1586
 20
55.0122
 30
0.0000
 11
42.1586
 21
54.9304
 31
0.0000
  0
LINE
  8
48
 10
42.1586
 20
54.9304
 30
0.0000
 11
42.0768
 21
54.9304
 31
0.0000
  0
LINE
  8
48
 10
42.7210
 20
55.0531
 30
0.0000
 11
42.7210
 21
55.1350
 31
0.0000
  0
LINE
  8
48
 10
42.7210
 20
55.1350
 30
0.0000
 11
42.8028
 21
55.1350
 31
0.0000
  0
LINE
  8
48
 10
42.8028
 20
55.1350
 30
0.0000
 11
42.8028
 21
55.0531
 31
0.0000
  0
LINE
  8
48
 10
42.8028
 20
55.0531
 30
0.0000
 11
42.7210
 21
55.0531
 31
0.0000
  0
LINE
  8
48
 10
42.7210
 20
55.7079
 30
0.0000
 11
42.7210
 21
55.7897
 31
0.0000
  0
LINE
  8
48
 10
42.7210
 20
55.7897
 30
0.0000
 11
42.8028
 21
55.7897
 31
0.0000
  0
LINE
  8
48
 10
42.8028
 20
55.7897
 30
0.0000
 11
42.8028
 21
55.7079
 31
0.0000
  0
LINE
  8
48
 10
42.8028
 20
55.7079
 30
0.0000
 11
42.7210
 21
55.7079
 31
0.0000
  0
LINE
  8
48
 10
38.8564
 20
61.2804
 30
0.0000
 11
38.5290
 21
61.2804
 31
0.0000
  0
ARC
  8
48
 10
38.5290
 20
61.6077
 30
0.0000
 40
0.3274
 50
180.0000
 51
270.0000
  0
LINE
  8
48
 10
38.2016
 20
61.6077
 30
0.0000
 11
38.2016
 21
62.4262
 31
0.0000
  0
ARC
  8
48
 10
38.5290
 20
62.4262
 30
0.0000
 40
0.3274
 50
90.0005
 51
180.0000
  0
LINE
  8
48
 10
38.5290
 20
62.7536
 30
0.0000
 11
38.8564
 21
62.7536
 31
0.0000
  0
LINE
  8
48
 10
39.4777
 20
62.2625
 30
0.0000
 11
39.4777
 21
61.5259
 31
0.0000
  0
ARC
  8
48
 10
39.7232
 20
61.5259
 30
0.0000
 40
0.2455
 50
180.0000
 51
270.0000
  0
LINE
  8
48
 10
39.7232
 20
61.2804
 30
0.0000
 11
40.1324
 21
61.2804
 31
0.0000
  0
LINE
  8
48
 10
40.1324
 20
61.2804
 30
0.0000
 11
40.1324
 21
62.2625
 31
0.0000
  0
LINE
  8
48
 10
40.8501
 20
61.8533
 30
0.0000
 11
41.8322
 21
61.8533
 31
0.0000
  0
LINE
  8
48
 10
42.5708
 20
62.7536
 30
0.0000
 11
42.5708
 21
61.2804
 31
0.0000
  0
LINE
  8
48
 10
42.5708
 20
61.2804
 30
0.0000
 11
43.2256
 21
61.2804
 31
0.0000
  0
LINE
  8
48
 10
44.4344
 20
61.8533
 30
0.0000
 11
44.0661
 21
61.8533
 31
0.0000
  0
ARC
  8
48
 10
44.0661
 20
61.5668
 30
0.0000
 40
0.2865
 50
90.0000
 51
270.0000
  0
LINE
  8
48
 10
44.0661
 20
61.2804
 30
0.0000
 11
44.4344
 21
61.2804
 31
0.0000
  0
LINE
  8
48
 10
44.4344
 20
61.2804
 30
0.0000
 11
44.4344
 21
62.0170
 31
0.0000
  0
ARC
  8
48
 10
44.1889
 20
62.0170
 30
0.0000
 40
0.2455
 50
0.0000
 51
90.0000
  0
LINE
  8
48
 10
44.1889
 20
62.2625
 30
0.0000
 11
43.8615
 21
62.2625
 31
0.0000
  0
LINE
  8
48
 10
45.0771
 20
60.7893
 30
0.0000
 11
45.2408
 21
60.7893
 31
0.0000
  0
LINE
  8
48
 10
45.2408
 20
60.7893
 30
0.0000
 11
45.7319
 21
62.2625
 31
0.0000
  0
LINE
  8
48
 10
45.0771
 20
62.2625
 30
0.0000
 11
45.4045
 21
61.2804
 31
0.0000
  0
LINE
  8
48
 10
46.9707
 20
61.2804
 30
0.0000
 11
46.5615
 21
61.2804
 31
0.0000
  0
ARC
  8
48
 10
46.5615
 20
61.5259
 30
0.0000
 40
0.2455
 50
180.0000
 51
270.0000
  0
LINE
  8
48
 10
46.3159
 20
61.5259
 30
0.0000
 11
46.3159
 21
61.9351
 31
0.0000
  0
ARC
  8
48
 10
46.6433
 20
61.9351
 30
0.0000
 40
0.3274
 50
0.0000
 51
180.0000
  0
LINE
  8
48
 10
46.9707
 20
61.9351
 30
0.0000
 11
46.9707
 21
61.7714
 31
0.0000
  0
LINE
  8
48
 10
46.9707
 20
61.7714
 30
0.0000
 11
46.3159
 21
61.7714
 31
0.0000
  0
LINE
  8
48
 10
47.6643
 20
61.2804
 30
0.0000
 11
47.6643
 21
62.2625
 31
0.0000
  0
LINE
  8
48
 10
47.6643
 20
62.2625
 30
0.0000
 11
48.1553
 21
62.2625
 31
0.0000
  0
LINE
  8
48
 10
48.1553
 20
62.2625
 30
0.0000
 11
48.1553
 21
62.0988
 31
0.0000
  0
LINE
  8
48
 10
49.1769
 20
61.6896
 30
0.0000
 11
48.7677
 21
61.8533
 31
0.0000
  0
ARC
  8
48
 10
48.8465
 20
62.0503
 30
0.0000
 40
0.2122
 50
89.1816
 51
248.1986
  0
ARC
  8
48
 10
48.8362
 20
61.3331
 30
0.0000
 40
0.9294
 50
65.7610
 51
89.1816
  0
ARC
  8
48
 10
49.0981
 20
61.4925
 30
0.0000
 40
0.2122
 50
269.1816
 51
68.1989
  0
ARC
  8
48
 10
49.1149
 20
62.6682
 30
0.0000
 40
1.3880
 50
250.2089
 51
269.1815
  0
LINE
  8
48
 10
49.9224
 20
61.4031
 30
0.0000
 11
49.9224
 21
61.4850
 31
0.0000
  0
LINE
  8
48
 10
49.9224
 20
61.4850
 30
0.0000
 11
50.0043
 21
61.4850
 31
0.0000
  0
LINE
  8
48
 10
50.0043
 20
61.4850
 30
0.0000
 11
50.0043
 21
61.4031
 31
0.0000
  0
LINE
  8
48
 10
50.0043
 20
61.4031
 30
0.0000
 11
49.9224
 21
61.4031
 31
0.0000
  0
LINE
  8
48
 10
49.9224
 20
62.0579
 30
0.0000
 11
49.9224
 21
62.1397
 31
0.0000
  0
LINE
  8
48
 10
49.9224
 20
62.1397
 30
0.0000
 11
50.0043
 21
62.1397
 31
0.0000
  0
LINE
  8
48
 10
50.0043
 20
62.1397
 30
0.0000
 11
50.0043
 21
62.0579
 31
0.0000
  0
LINE
  8
48
 10
50.0043
 20
62.0579
 30
0.0000
 11
49.9224
 21
62.0579
 31
0.0000
  0
LINE
  8
48
 10
24.8864
 20
61.2804
 30
0.0000
 11
24.5590
 21
61.2804
 31
0.0000
  0
ARC
  8
48
 10
24.5590
 20
61.6077
 30
0.0000
 40
0.3274
 50
180.0000
 51
270.0000
  0
LINE
  8
48
 10
24.2316
 20
61.6077
 30
0.0000
 11
24.2316
 21
62.4262
 31
0.0000
  0
ARC
  8
48
 10
24.5590
 20
62.4262
 30
0.0000
 40
0.3274
 50
90.0005
 51
180.0000
  0
LINE
  8
48
 10
24.5590
 20
62.7536
 30
0.0000
 11
24.8864
 21
62.7536
 31
0.0000
  0
LINE
  8
48
 10
25.5077
 20
62.2625
 30
0.0000
 11
25.5077
 21
61.5259
 31
0.0000
  0
ARC
  8
48
 10
25.7532
 20
61.5259
 30
0.0000
 40
0.2455
 50
180.0000
 51
270.0000
  0
LINE
  8
48
 10
25.7532
 20
61.2804
 30
0.0000
 11
26.1624
 21
61.2804
 31
0.0000
  0
LINE
  8
48
 10
26.1624
 20
61.2804
 30
0.0000
 11
26.1624
 21
62.2625
 31
0.0000
  0
LINE
  8
48
 10
26.8347
 20
61.4031
 30
0.0000
 11
26.8347
 21
61.4850
 31
0.0000
  0
LINE
  8
48
 10
26.8347
 20
61.4850
 30
0.0000
 11
26.9166
 21
61.4850
 31
0.0000
  0
LINE
  8
48
 10
26.9166
 20
61.4850
 30
0.0000
 11
26.9166
 21
61.4031
 31
0.0000
  0
LINE
  8
48
 10
26.9166
 20
61.4031
 30
0.0000
 11
26.8347
 21
61.4031
 31
0.0000
  0
LINE
  8
48
 10
26.8347
 20
62.0579
 30
0.0000
 11
26.8347
 21
62.1397
 31
0.0000
  0
LINE
  8
48
 10
26.8347
 20
62.1397
 30
0.0000
 11
26.9166
 21
62.1397
 31
0.0000
  0
LINE
  8
48
 10
26.9166
 20
62.1397
 30
0.0000
 11
26.9166
 21
62.0579
 31
0.0000
  0
LINE
  8
48
 10
26.9166
 20
62.0579
 30
0.0000
 11
26.8347
 21
62.0579
 31
0.0000
  0
LINE
  8
48
 10
1.3716
 20
58.1054
 30
0.0000
 11
1.3716
 21
59.5785
 31
0.0000
  0
LINE
  8
48
 10
1.3716
 20
59.5785
 30
0.0000
 11
1.7808
 21
59.5785
 31
0.0000
  0
ARC
  8
48
 10
1.7808
 20
59.1693
 30
0.0000
 40
0.4092
 50
270.0000
 51
90.0000
  0
LINE
  8
48
 10
1.7808
 20
58.7601
 30
0.0000
 11
1.3716
 21
58.7601
 31
0.0000
  0
LINE
  8
48
 10
2.7458
 20
58.1054
 30
0.0000
 11
2.7458
 21
59.0875
 31
0.0000
  0
LINE
  8
48
 10
2.7049
 20
59.4967
 30
0.0000
 11
2.7049
 21
59.5785
 31
0.0000
  0
LINE
  8
48
 10
2.7049
 20
59.5785
 30
0.0000
 11
2.7867
 21
59.5785
 31
0.0000
  0
LINE
  8
48
 10
2.7867
 20
59.5785
 30
0.0000
 11
2.7867
 21
59.4967
 31
0.0000
  0
LINE
  8
48
 10
2.7867
 20
59.4967
 30
0.0000
 11
2.7049
 21
59.4967
 31
0.0000
  0
LINE
  8
48
 10
3.3772
 20
59.2512
 30
0.0000
 11
3.7864
 21
59.5785
 31
0.0000
  0
LINE
  8
48
 10
3.7864
 20
59.5785
 30
0.0000
 11
3.7864
 21
58.1054
 31
0.0000
  0
LINE
  8
48
 10
3.3772
 20
58.1054
 30
0.0000
 11
4.1956
 21
58.1054
 31
0.0000
  0
LINE
  8
48
 10
4.8637
 20
58.1054
 30
0.0000
 11
5.3548
 21
58.1054
 31
0.0000
  0
ARC
  8
48
 10
5.3548
 20
58.4327
 30
0.0000
 40
0.3274
 50
270.0000
 51
359.9995
  0
LINE
  8
48
 10
5.6822
 20
58.4327
 30
0.0000
 11
5.6822
 21
58.5964
 31
0.0000
  0
ARC
  8
48
 10
5.3548
 20
58.5964
 30
0.0000
 40
0.3274
 50
0.0000
 51
90.0000
  0
LINE
  8
48
 10
5.3548
 20
58.9238
 30
0.0000
 11
4.8637
 21
58.9238
 31
0.0000
  0
LINE
  8
48
 10
4.8637
 20
58.9238
 30
0.0000
 11
4.8637
 21
59.5785
 31
0.0000
  0
LINE
  8
48
 10
4.8637
 20
59.5785
 30
0.0000
 11
5.6822
 21
59.5785
 31
0.0000
  0
LINE
  8
48
 10
6.6777
 20
59.5785
 30
0.0000
 11
6.3503
 21
58.4327
 31
0.0000
  0
LINE
  8
48
 10
6.3503
 20
58.4327
 30
0.0000
 11
7.1688
 21
58.4327
 31
0.0000
  0
LINE
  8
48
 10
6.9232
 20
58.7601
 30
0.0000
 11
6.9232
 21
58.1054
 31
0.0000
  0
LINE
  8
48
 10
7.8369
 20
59.2512
 30
0.0000
 11
8.2461
 21
59.5785
 31
0.0000
  0
LINE
  8
48
 10
8.2461
 20
59.5785
 30
0.0000
 11
8.2461
 21
58.1054
 31
0.0000
  0
LINE
  8
48
 10
7.8369
 20
58.1054
 30
0.0000
 11
8.6553
 21
58.1054
 31
0.0000
  0
LINE
  8
48
 10
9.2567
 20
57.9417
 30
0.0000
 11
9.9114
 21
57.9417
 31
0.0000
  0
LINE
  8
48
 10
10.6246
 20
59.5785
 30
0.0000
 11
10.6246
 21
58.1054
 31
0.0000
  0
LINE
  8
48
 10
10.4609
 20
58.1054
 30
0.0000
 11
10.7883
 21
58.1054
 31
0.0000
  0
LINE
  8
48
 10
10.4609
 20
59.5785
 30
0.0000
 11
10.7883
 21
59.5785
 31
0.0000
  0
LINE
  8
48
 10
12.1126
 20
58.1054
 30
0.0000
 11
11.4578
 21
58.1054
 31
0.0000
  0
LINE
  8
48
 10
11.4578
 20
58.1054
 30
0.0000
 11
11.4578
 21
59.5785
 31
0.0000
  0
LINE
  8
48
 10
11.4578
 20
59.5785
 30
0.0000
 11
12.1126
 21
59.5785
 31
0.0000
  0
LINE
  8
48
 10
11.4578
 20
58.9238
 30
0.0000
 11
11.9489
 21
58.9238
 31
0.0000
  0
LINE
  8
48
 10
13.3428
 20
58.1054
 30
0.0000
 11
13.0155
 21
58.1054
 31
0.0000
  0
ARC
  8
48
 10
13.0155
 20
58.4327
 30
0.0000
 40
0.3274
 50
180.0000
 51
270.0000
  0
LINE
  8
48
 10
12.6881
 20
58.4327
 30
0.0000
 11
12.6881
 21
59.2512
 31
0.0000
  0
ARC
  8
48
 10
13.0155
 20
59.2512
 30
0.0000
 40
0.3274
 50
90.0005
 51
180.0000
  0
LINE
  8
48
 10
13.0155
 20
59.5785
 30
0.0000
 11
13.3428
 21
59.5785
 31
0.0000
  0
ARC
  8
48
 10
2.5856
 20
55.6669
 30
0.0000
 40
1.2140
 50
154.0109
 51
180.0000
  0
ARC
  8
48
 10
1.7808
 20
56.1007
 30
0.0000
 40
0.3028
 50
90.0000
 51
161.0756
  0
ARC
  8
48
 10
1.7808
 20
56.1007
 30
0.0000
 40
0.3028
 50
18.9237
 51
90.0001
  0
ARC
  8
48
 10
0.9760
 20
55.6669
 30
0.0000
 40
1.2140
 50
360.0000
 51
25.9897
  0
ARC
  8
48
 10
2.5856
 20
55.6669
 30
0.0000
 40
1.2140
 50
180.0000
 51
205.9889
  0
ARC
  8
48
 10
1.7808
 20
55.2332
 30
0.0000
 40
0.3028
 50
198.9251
 51
270.0001
  0
ARC
  8
48
 10
0.9760
 20
55.6669
 30
0.0000
 40
1.2140
 50
334.0105
 51
359.9999
  0
ARC
  8
48
 10
1.7808
 20
55.2332
 30
0.0000
 40
0.3028
 50
270.0000
 51
341.0759
  0
LINE
  8
48
 10
1.4534
 20
55.2577
 30
0.0000
 11
2.1082
 21
56.0762
 31
0.0000
  0
LINE
  8
48
 10
2.8582
 20
54.9304
 30
0.0000
 11
3.2674
 21
54.9304
 31
0.0000
  0
ARC
  8
48
 10
3.2674
 20
55.3396
 30
0.0000
 40
0.4092
 50
270.0000
 51
90.0000
  0
LINE
  8
48
 10
2.8582
 20
56.4036
 30
0.0000
 11
3.3492
 21
56.4036
 31
0.0000
  0
ARC
  8
48
 10
3.3492
 20
56.0762
 30
0.0000
 40
0.3274
 50
270.0000
 51
90.0000
  0
LINE
  8
48
 10
3.3492
 20
55.7488
 30
0.0000
 11
3.0219
 21
55.7488
 31
0.0000
  0
LINE
  8
48
 10
4.2671
 20
54.9304
 30
0.0000
 11
4.2671
 21
55.0122
 31
0.0000
  0
LINE
  8
48
 10
4.2671
 20
55.0122
 30
0.0000
 11
4.3489
 21
55.0122
 31
0.0000
  0
LINE
  8
48
 10
4.3489
 20
55.0122
 30
0.0000
 11
4.3489
 21
54.9304
 31
0.0000
  0
LINE
  8
48
 10
4.3489
 20
54.9304
 30
0.0000
 11
4.2671
 21
54.9304
 31
0.0000
  0
LINE
  8
48
 10
4.9394
 20
56.0762
 30
0.0000
 11
5.3486
 21
56.4036
 31
0.0000
  0
LINE
  8
48
 10
5.3486
 20
56.4036
 30
0.0000
 11
5.3486
 21
54.9304
 31
0.0000
  0
LINE
  8
48
 10
4.9394
 20
54.9304
 30
0.0000
 11
5.7578
 21
54.9304
 31
0.0000
  0
LINE
  8
48
 10
6.4260
 20
56.0762
 30
0.0000
 11
6.8352
 21
56.4036
 31
0.0000
  0
LINE
  8
48
 10
6.8352
 20
56.4036
 30
0.0000
 11
6.8352
 21
54.9304
 31
0.0000
  0
LINE
  8
48
 10
6.4260
 20
54.9304
 30
0.0000
 11
7.2444
 21
54.9304
 31
0.0000
  0
LINE
  8
48
 10
7.8349
 20
54.9304
 30
0.0000
 11
7.8349
 21
55.0122
 31
0.0000
  0
LINE
  8
48
 10
7.8349
 20
55.0122
 30
0.0000
 11
7.9167
 21
55.0122
 31
0.0000
  0
LINE
  8
48
 10
7.9167
 20
55.0122
 30
0.0000
 11
7.9167
 21
54.9304
 31
0.0000
  0
LINE
  8
48
 10
7.9167
 20
54.9304
 30
0.0000
 11
7.8349
 21
54.9304
 31
0.0000
  0
ARC
  8
48
 10
8.9573
 20
56.0353
 30
0.0000
 40
0.3683
 50
0.0000
 51
90.0000
  0
ARC
  8
48
 10
8.9573
 20
55.9304
 30
0.0000
 40
0.4732
 50
90.0000
 51
162.0549
  0
ARC
  8
48
 10
8.9300
 20
56.0353
 30
0.0000
 40
0.3956
 50
313.6022
 51
0.0000
  0
LINE
  8
48
 10
9.2028
 20
55.7488
 30
0.0000
 11
8.5072
 21
54.9304
 31
0.0000
  0
LINE
  8
48
 10
8.5072
 20
54.9304
 30
0.0000
 11
9.3256
 21
54.9304
 31
0.0000
  0
ARC
  8
48
 10
11.2078
 20
55.6669
 30
0.0000
 40
1.2140
 50
154.0109
 51
180.0000
  0
ARC
  8
48
 10
10.4029
 20
56.1007
 30
0.0000
 40
0.3028
 50
90.0000
 51
161.0756
  0
ARC
  8
48
 10
10.4029
 20
56.1007
 30
0.0000
 40
0.3028
 50
18.9237
 51
90.0001
  0
ARC
  8
48
 10
9.5982
 20
55.6669
 30
0.0000
 40
1.2140
 50
360.0000
 51
25.9897
  0
ARC
  8
48
 10
11.2078
 20
55.6669
 30
0.0000
 40
1.2140
 50
180.0000
 51
205.9889
  0
ARC
  8
48
 10
10.4029
 20
55.2332
 30
0.0000
 40
0.3028
 50
198.9251
 51
270.0001
  0
ARC
  8
48
 10
9.5981
 20
55.6669
 30
0.0000
 40
1.2140
 50
334.0105
 51
359.9999
  0
ARC
  8
48
 10
10.4029
 20
55.2332
 30
0.0000
 40
0.3028
 50
270.0000
 51
341.0759
  0
LINE
  8
48
 10
10.0756
 20
55.2577
 30
0.0000
 11
10.7303
 21
56.0762
 31
0.0000
  0
LINE
  8
48
 10
11.4803
 20
56.0762
 30
0.0000
 11
11.8895
 21
56.4036
 31
0.0000
  0
LINE
  8
48
 10
11.8895
 20
56.4036
 30
0.0000
 11
11.8895
 21
54.9304
 31
0.0000
  0
LINE
  8
48
 10
11.4803
 20
54.9304
 30
0.0000
 11
12.2987
 21
54.9304
 31
0.0000
  0
LINE
  8
48
 10
13.7853
 20
55.5851
 30
0.0000
 11
13.2942
 21
55.5851
 31
0.0000
  0
ARC
  8
48
 10
13.2942
 20
55.9125
 30
0.0000
 40
0.3274
 50
179.9995
 51
270.0000
  0
LINE
  8
48
 10
12.9669
 20
55.9125
 30
0.0000
 11
12.9669
 21
55.9943
 31
0.0000
  0
ARC
  8
48
 10
13.3761
 20
55.9943
 30
0.0000
 40
0.4092
 50
0.0000
 51
180.0000
  0
LINE
  8
48
 10
13.7853
 20
55.9943
 30
0.0000
 11
13.7853
 21
55.5851
 31
0.0000
  0
ARC
  8
48
 10
13.1306
 20
55.5851
 30
0.0000
 40
0.6548
 50
269.9997
 51
360.0000
  0
LINE
  8
48
 10
15.2463
 20
56.0762
 30
0.0000
 11
15.6555
 21
56.4036
 31
0.0000
  0
LINE
  8
48
 10
15.6555
 20
56.4036
 30
0.0000
 11
15.6555
 21
54.9304
 31
0.0000
  0
LINE
  8
48
 10
15.2463
 20
54.9304
 30
0.0000
 11
16.0647
 21
54.9304
 31
0.0000
  0
LINE
  8
48
 10
16.7329
 20
56.0762
 30
0.0000
 11
17.1421
 21
56.4036
 31
0.0000
  0
LINE
  8
48
 10
17.1421
 20
56.4036
 30
0.0000
 11
17.1421
 21
54.9304
 31
0.0000
  0
LINE
  8
48
 10
16.7329
 20
54.9304
 30
0.0000
 11
17.5513
 21
54.9304
 31
0.0000
  0
LINE
  8
48
 10
18.1913
 20
55.0531
 30
0.0000
 11
18.1913
 21
55.1350
 31
0.0000
  0
LINE
  8
48
 10
18.1913
 20
55.1350
 30
0.0000
 11
18.2732
 21
55.1350
 31
0.0000
  0
LINE
  8
48
 10
18.2732
 20
55.1350
 30
0.0000
 11
18.2732
 21
55.0531
 31
0.0000
  0
LINE
  8
48
 10
18.2732
 20
55.0531
 30
0.0000
 11
18.1913
 21
55.0531
 31
0.0000
  0
LINE
  8
48
 10
18.1913
 20
55.7079
 30
0.0000
 11
18.1913
 21
55.7897
 31
0.0000
  0
LINE
  8
48
 10
18.1913
 20
55.7897
 30
0.0000
 11
18.2732
 21
55.7897
 31
0.0000
  0
LINE
  8
48
 10
18.2732
 20
55.7897
 30
0.0000
 11
18.2732
 21
55.7079
 31
0.0000
  0
LINE
  8
48
 10
18.2732
 20
55.7079
 30
0.0000
 11
18.1913
 21
55.7079
 31
0.0000
  0
ARC
  8
48
 10
19.3633
 20
56.0353
 30
0.0000
 40
0.3683
 50
0.0000
 51
90.0000
  0
ARC
  8
48
 10
19.3633
 20
55.9304
 30
0.0000
 40
0.4732
 50
90.0000
 51
162.0549
  0
ARC
  8
48
 10
19.3360
 20
56.0353
 30
0.0000
 40
0.3956
 50
313.6022
 51
0.0000
  0
LINE
  8
48
 10
19.6088
 20
55.7488
 30
0.0000
 11
18.9132
 21
54.9304
 31
0.0000
  0
LINE
  8
48
 10
18.9132
 20
54.9304
 30
0.0000
 11
19.7316
 21
54.9304
 31
0.0000
  0
LINE
  8
48
 10
20.3997
 20
55.7488
 30
0.0000
 11
20.8908
 21
55.7488
 31
0.0000
  0
ARC
  8
48
 10
20.8908
 20
55.4214
 30
0.0000
 40
0.3274
 50
0.0000
 51
90.0000
  0
LINE
  8
48
 10
21.2182
 20
55.4214
 30
0.0000
 11
21.2182
 21
55.3396
 31
0.0000
  0
ARC
  8
48
 10
20.8090
 20
55.3396
 30
0.0000
 40
0.4092
 50
180.0000
 51
0.0000
  0
LINE
  8
48
 10
20.3997
 20
55.3396
 30
0.0000
 11
20.3997
 21
55.7488
 31
0.0000
  0
ARC
  8
48
 10
21.0545
 20
55.7488
 30
0.0000
 40
0.6548
 50
90.0003
 51
180.0000
  0
LINE
  8
21
 10
27.3025
 20
0.4600
 30
0.0000
 11
12.6975
 21
0.4600
 31
0.0000
  0
LINE
  8
21
 10
12.6975
 20
0.4600
 30
0.0000
 11
12.6975
 21
1.7300
 31
0.0000
  0
LINE
  8
21
 10
12.6975
 20
1.7300
 30
0.0000
 11
13.3325
 21
1.7300
 31
0.0000
  0
LINE
  8
21
 10
13.3325
 20
1.7300
 30
0.0000
 11
13.3325
 21
4.2700
 31
0.0000
  0
LINE
  8
21
 10
13.3325
 20
4.2700
 30
0.0000
 11
12.6975
 21
4.2700
 31
0.0000
  0
LINE
  8
21
 10
12.6975
 20
4.2700
 30
0.0000
 11
12.6975
 21
5.5400
 31
0.0000
  0
LINE
  8
21
 10
12.6975
 20
5.5400
 30
0.0000
 11
27.3025
 21
5.5400
 31
0.0000
  0
LINE
  8
21
 10
27.3025
 20
5.5400
 30
0.0000
 11
27.3025
 21
4.2700
 31
0.0000
  0
LINE
  8
21
 10
27.3025
 20
4.2700
 30
0.0000
 11
26.6675
 21
4.2700
 31
0.0000
  0
LINE
  8
21
 10
26.6675
 20
4.2700
 30
0.0000
 11
26.6675
 21
1.7300
 31
0.0000
  0
LINE
  8
21
 10
26.6675
 20
1.7300
 30
0.0000
 11
27.3025
 21
1.7300
 31
0.0000
  0
LINE
  8
21
 10
27.3025
 20
1.7300
 30
0.0000
 11
27.3025
 21
0.4600
 31
0.0000
  0
LINE
  8
21
 10
26.6675
 20
1.0950
 30
0.0000
 11
13.3325
 21
1.0950
 31
0.0000
  0
LINE
  8
21
 10
13.3325
 20
1.0950
 30
0.0000
 11
13.3325
 21
1.7300
 31
0.0000
  0
LINE
  8
21
 10
13.3325
 20
4.2700
 30
0.0000
 11
13.3325
 21
4.9050
 31
0.0000
  0
LINE
  8
21
 10
13.3325
 20
4.9050
 30
0.0000
 11
26.6675
 21
4.9050
 31
0.0000
  0
LINE
  8
21
 10
26.6675
 20
4.9050
 30
0.0000
 11
26.6675
 21
4.2700
 31
0.0000
  0
LINE
  8
21
 10
26.6675
 20
1.0950
 30
0.0000
 11
26.6675
 21
1.7300
 31
0.0000
  0
LINE
  8
21
 10
14.6025
 20
3.9525
 30
0.0000
 11
13.9675
 21
3.9525
 31
0.0000
  0
LINE
  8
21
 10
13.9675
 20
3.9525
 30
0.0000
 11
13.9675
 21
4.5875
 31
0.0000
  0
LINE
  8
21
 10
13.9675
 20
4.5875
 30
0.0000
 11
14.6025
 21
4.5875
 31
0.0000
  0
LINE
  8
21
 10
14.6025
 20
4.5875
 30
0.0000
 11
14.6025
 21
3.9525
 31
0.0000
  0
LINE
  8
21
 10
15.8725
 20
1.4125
 30
0.0000
 11
15.2375
 21
1.4125
 31
0.0000
  0
LINE
  8
21
 10
15.2375
 20
1.4125
 30
0.0000
 11
15.2375
 21
2.0475
 31
0.0000
  0
LINE
  8
21
 10
15.2375
 20
2.0475
 30
0.0000
 11
15.8725
 21
2.0475
 31
0.0000
  0
LINE
  8
21
 10
15.8725
 20
2.0475
 30
0.0000
 11
15.8725
 21
1.4125
 31
0.0000
  0
LINE
  8
21
 10
17.1425
 20
3.9525
 30
0.0000
 11
16.5075
 21
3.9525
 31
0.0000
  0
LINE
  8
21
 10
16.5075
 20
3.9525
 30
0.0000
 11
16.5075
 21
4.5875
 31
0.0000
  0
LINE
  8
21
 10
16.5075
 20
4.5875
 30
0.0000
 11
17.1425
 21
4.5875
 31
0.0000
  0
LINE
  8
21
 10
17.1425
 20
4.5875
 30
0.0000
 11
17.1425
 21
3.9525
 31
0.0000
  0
LINE
  8
21
 10
18.4125
 20
1.4125
 30
0.0000
 11
17.7775
 21
1.4125
 31
0.0000
  0
LINE
  8
21
 10
17.7775
 20
1.4125
 30
0.0000
 11
17.7775
 21
2.0475
 31
0.0000
  0
LINE
  8
21
 10
17.7775
 20
2.0475
 30
0.0000
 11
18.4125
 21
2.0475
 31
0.0000
  0
LINE
  8
21
 10
18.4125
 20
2.0475
 30
0.0000
 11
18.4125
 21
1.4125
 31
0.0000
  0
LINE
  8
21
 10
19.6825
 20
3.9525
 30
0.0000
 11
19.0475
 21
3.9525
 31
0.0000
  0
LINE
  8
21
 10
19.0475
 20
3.9525
 30
0.0000
 11
19.0475
 21
4.5875
 31
0.0000
  0
LINE
  8
21
 10
19.0475
 20
4.5875
 30
0.0000
 11
19.6825
 21
4.5875
 31
0.0000
  0
LINE
  8
21
 10
19.6825
 20
4.5875
 30
0.0000
 11
19.6825
 21
3.9525
 31
0.0000
  0
LINE
  8
21
 10
20.3175
 20
1.4125
 30
0.0000
 11
20.9525
 21
1.4125
 31
0.0000
  0
LINE
  8
21
 10
20.9525
 20
1.4125
 30
0.0000
 11
20.9525
 21
2.0475
 31
0.0000
  0
LINE
  8
21
 10
20.9525
 20
2.0475
 30
0.0000
 11
20.3175
 21
2.0475
 31
0.0000
  0
LINE
  8
21
 10
20.3175
 20
2.0475
 30
0.0000
 11
20.3175
 21
1.4125
 31
0.0000
  0
LINE
  8
21
 10
22.2225
 20
3.9525
 30
0.0000
 11
21.5875
 21
3.9525
 31
0.0000
  0
LINE
  8
21
 10
21.5875
 20
3.9525
 30
0.0000
 11
21.5875
 21
4.5875
 31
0.0000
  0
LINE
  8
21
 10
21.5875
 20
4.5875
 30
0.0000
 11
22.2225
 21
4.5875
 31
0.0000
  0
LINE
  8
21
 10
22.2225
 20
4.5875
 30
0.0000
 11
22.2225
 21
3.9525
 31
0.0000
  0
LINE
  8
21
 10
23.4925
 20
1.4125
 30
0.0000
 11
22.8575
 21
1.4125
 31
0.0000
  0
LINE
  8
21
 10
22.8575
 20
1.4125
 30
0.0000
 11
22.8575
 21
2.0475
 31
0.0000
  0
LINE
  8
21
 10
22.8575
 20
2.0475
 30
0.0000
 11
23.4925
 21
2.0475
 31
0.0000
  0
LINE
  8
21
 10
23.4925
 20
2.0475
 30
0.0000
 11
23.4925
 21
1.4125
 31
0.0000
  0
LINE
  8
21
 10
24.7625
 20
3.9525
 30
0.0000
 11
24.1275
 21
3.9525
 31
0.0000
  0
LINE
  8
21
 10
24.1275
 20
3.9525
 30
0.0000
 11
24.1275
 21
4.5875
 31
0.0000
  0
LINE
  8
21
 10
24.1275
 20
4.5875
 30
0.0000
 11
24.7625
 21
4.5875
 31
0.0000
  0
LINE
  8
21
 10
24.7625
 20
4.5875
 30
0.0000
 11
24.7625
 21
3.9525
 31
0.0000
  0
LINE
  8
21
 10
25.3975
 20
1.4125
 30
0.0000
 11
26.0325
 21
1.4125
 31
0.0000
  0
LINE
  8
21
 10
26.0325
 20
1.4125
 30
0.0000
 11
26.0325
 21
2.0475
 31
0.0000
  0
LINE
  8
21
 10
26.0325
 20
2.0475
 30
0.0000
 11
25.3975
 21
2.0475
 31
0.0000
  0
LINE
  8
21
 10
25.3975
 20
2.0475
 30
0.0000
 11
25.3975
 21
1.4125
 31
0.0000
  0
LINE
  8
21
 10
24.6863
 20
3.1778
 30
0.0000
 11
24.9403
 21
3.1778
 31
0.0000
  0
ARC
  8
21
 10
24.9403
 20
2.9238
 30
0.0000
 40
0.2540
 50
270.0000
 51
90.0000
  0
LINE
  8
21
 10
24.9403
 20
2.6698
 30
0.0000
 11
24.6863
 21
2.6698
 31
0.0000
  0
LINE
  8
21
 10
24.6863
 20
2.6698
 30
0.0000
 11
24.6863
 21
3.5842
 31
0.0000
  0
LINE
  8
21
 10
24.6863
 20
3.5842
 30
0.0000
 11
24.9403
 21
3.5842
 31
0.0000
  0
ARC
  8
21
 10
24.9403
 20
3.3810
 30
0.0000
 40
0.2032
 50
270.0000
 51
90.0000
  0
LINE
  8
21
 10
25.5753
 20
3.2794
 30
0.0000
 11
25.5753
 21
2.8222
 31
0.0000
  0
ARC
  8
21
 10
25.7277
 20
2.8222
 30
0.0000
 40
0.1524
 50
180.0000
 51
270.0000
  0
LINE
  8
21
 10
25.7277
 20
2.6698
 30
0.0000
 11
25.9817
 21
2.6698
 31
0.0000
  0
LINE
  8
21
 10
25.9817
 20
2.6698
 30
0.0000
 11
25.9817
 21
3.2794
 31
0.0000
  0
LINE
  8
21
 10
14.0437
 20
3.0635
 30
0.0000
 11
14.2977
 21
3.2667
 31
0.0000
  0
LINE
  8
21
 10
14.2977
 20
3.2667
 30
0.0000
 11
14.2977
 21
2.3523
 31
0.0000
  0
LINE
  8
21
 10
14.0437
 20
2.3523
 30
0.0000
 11
14.5517
 21
2.3523
 31
0.0000
  0
CIRCLE
  8
20
 10
12.6975
 20
3.3175
 30
0.0000
 40
0.7493
  0
LINE
  8
25
 10
10.1098
 20
0.6435
 30
0.0000
 11
10.8718
 21
1.7865
 31
0.0000
  0
LINE
  8
25
 10
10.1098
 20
1.7865
 30
0.0000
 11
10.8718
 21
0.6435
 31
0.0000
  0
LINE
  8
25
 10
11.3163
 20
1.5325
 30
0.0000
 11
11.6338
 21
1.7865
 31
0.0000
  0
LINE
  8
25
 10
11.6338
 20
1.7865
 30
0.0000
 11
11.6338
 21
0.6435
 31
0.0000
  0
LINE
  8
25
 10
11.3163
 20
0.6435
 30
0.0000
 11
11.9512
 21
0.6435
 31
0.0000
  0
ENDSEC
  0
EOF
